SplineFontDB: 3.0
FontName: Fulfulde-Pulaar
FullName: Fulfulde - Pulaar
FamilyName: Fulfulde - Pulaar
Weight: Book
Copyright: Copyright 2008 Abdoulaye and Ibrahima Berry. All rights reserved. By copyright law this program may not be copied for others or modified.
Version: 1.10
ItalicAngle: 0
UnderlinePosition: -100
UnderlineWidth: 50
Ascent: 800
Descent: 200
InvalidEm: 0
sfntRevision: 0x00010000
LayerCount: 2
Layer: 0 1 "Back" 1
Layer: 1 1 "Fore" 0
XUID: [1021 341 221541093 7662476]
StyleMap: 0x0040
FSType: 4
OS2Version: 2
OS2_WeightWidthSlopeOnly: 0
OS2_UseTypoMetrics: 0
CreationTime: 1209149880
ModificationTime: 1211224847
PfmFamily: 17
TTFWeight: 400
TTFWidth: 5
LineGap: 0
VLineGap: 0
Panose: 2 0 0 0 0 0 0 0 0 0
OS2TypoAscent: 880
OS2TypoAOffset: 0
OS2TypoDescent: -300
OS2TypoDOffset: 0
OS2TypoLinegap: 0
OS2WinAscent: 880
OS2WinAOffset: 0
OS2WinDescent: 300
OS2WinDOffset: 0
HheadAscent: 880
HheadAOffset: 0
HheadDescent: 300
HheadDOffset: 0
OS2SubXSize: 100
OS2SubYSize: 100
OS2SubXOff: 0
OS2SubYOff: 140
OS2SupXSize: 100
OS2SupYSize: 100
OS2SupXOff: 0
OS2SupYOff: 140
OS2StrikeYSize: 50
OS2StrikeYPos: 250
OS2CapHeight: 700
OS2XHeight: 256
OS2Vendor: 'BARR'
OS2CodePages: 00000041.00000000
OS2UnicodeRanges: 8000202f.9000204a.00000008.00000000
Lookup: 1 1 0 "'isol' Isolated Forms in Arabic lookup 0" { "'isol' Isolated Forms in Arabic lookup 0 subtable"  } ['isol' ('arab' <'dflt' > ) ]
Lookup: 1 1 0 "'init' Initial Forms in Arabic lookup 1" { "'init' Initial Forms in Arabic lookup 1 subtable"  } ['init' ('arab' <'dflt' > ) ]
Lookup: 1 1 0 "'medi' Medial Forms in Arabic lookup 2" { "'medi' Medial Forms in Arabic lookup 2 subtable"  } ['medi' ('arab' <'dflt' > ) ]
Lookup: 1 1 0 "'fina' Terminal Forms in Arabic lookup 3" { "'fina' Terminal Forms in Arabic lookup 3 subtable"  } ['fina' ('arab' <'dflt' > ) ]
Lookup: 6 1 0 "'liga' Standard Ligatures in Arabic lookup 4" { "'liga' Standard Ligatures in Arabic lookup 4 subtable"  } ['liga' ('arab' <'dflt' > ) ]

StartChar: exclam
Encoding: 33 33 4
Width: 180
GlyphClass: 2
Flags: W
LayerCount: 2
Fore
SplineSet
120 186 m 1,0,1
 120 171 120 171 110.5 163 c 128,-1,2
 101 155 101 155 90 155 c 128,-1,3
 79 155 79 155 69.5 163 c 128,-1,4
 60 171 60 171 60 186 c 2,5,-1
 60 572 l 2,6,7
 60 587 60 587 69.5 594.5 c 128,-1,8
 79 602 79 602 90 602 c 128,-1,9
 101 602 101 602 110.5 594.5 c 128,-1,10
 120 587 120 587 120 572 c 2,11,-1
 120 186 l 1,12,-1
 120 186 l 1,0,1
126 28 m 256,13,14
 126 13 126 13 115.5 3 c 128,-1,15
 105 -7 105 -7 90 -7 c 256,16,17
 75 -7 75 -7 64.5 3 c 128,-1,18
 54 13 54 13 54 28 c 256,19,20
 54 43 54 43 64.5 53 c 128,-1,21
 75 63 75 63 90 63 c 256,22,23
 105 63 105 63 115.5 53 c 128,-1,24
 126 43 126 43 126 28 c 256,13,14
EndSplineSet
Validated: 5
EndChar

StartChar: quotedbl
Encoding: 34 34 5
Width: 292
GlyphClass: 2
Flags: W
LayerCount: 2
Fore
SplineSet
233 434 m 1,0,1
 233 419 233 419 223.5 411.5 c 128,-1,2
 214 404 214 404 202.5 404 c 128,-1,3
 191 404 191 404 181.5 411.5 c 128,-1,4
 172 419 172 419 172 434 c 2,5,-1
 172 573 l 2,6,7
 172 588 172 588 181.5 595 c 128,-1,8
 191 602 191 602 202.5 602 c 128,-1,9
 214 602 214 602 223.5 595 c 128,-1,10
 233 588 233 588 233 573 c 2,11,-1
 233 434 l 1,12,-1
 233 434 l 1,0,1
120 434 m 1,13,14
 120 419 120 419 110.5 411.5 c 128,-1,15
 101 404 101 404 90 404 c 128,-1,16
 79 404 79 404 69.5 411.5 c 128,-1,17
 60 419 60 419 60 434 c 2,18,-1
 60 573 l 2,19,20
 60 588 60 588 69.5 595 c 128,-1,21
 79 602 79 602 90 602 c 128,-1,22
 101 602 101 602 110.5 595 c 128,-1,23
 120 588 120 588 120 573 c 2,24,-1
 120 434 l 1,25,-1
 120 434 l 1,13,14
EndSplineSet
Validated: 5
EndChar

StartChar: numbersign
Encoding: 35 35 6
Width: 619
GlyphClass: 2
Flags: W
LayerCount: 2
Fore
SplineSet
426 378 m 1,0,-1
 400 247 l 1,1,-1
 503 247 l 2,2,3
 518 247 518 247 526 237.5 c 128,-1,4
 534 228 534 228 534 216.5 c 128,-1,5
 534 205 534 205 526 195.5 c 128,-1,6
 518 186 518 186 503 186 c 2,7,-1
 388 186 l 1,8,-1
 356 24 l 2,9,10
 353 9 353 9 342.5 3 c 128,-1,11
 332 -3 332 -3 321 -0.5 c 128,-1,12
 310 2 310 2 302.5 11.5 c 128,-1,13
 295 21 295 21 298 36 c 2,14,-1
 327 186 l 1,15,-1
 219 186 l 1,16,-1
 187 24 l 2,17,18
 184 9 184 9 173.5 3 c 128,-1,19
 163 -3 163 -3 152 -0.5 c 128,-1,20
 141 2 141 2 133.5 11.5 c 128,-1,21
 126 21 126 21 129 36 c 2,22,-1
 158 186 l 1,23,-1
 66 186 l 2,24,25
 51 186 51 186 43.5 195.5 c 128,-1,26
 36 205 36 205 36 216.5 c 128,-1,27
 36 228 36 228 43.5 237.5 c 128,-1,28
 51 247 51 247 66 247 c 2,29,-1
 170 247 l 1,30,-1
 196 378 l 1,31,-1
 108 378 l 2,32,33
 93 378 93 378 85.5 387.5 c 128,-1,34
 78 397 78 397 78 408 c 128,-1,35
 78 419 78 419 85.5 428.5 c 128,-1,36
 93 438 93 438 108 438 c 2,37,-1
 207 438 l 1,38,-1
 235 577 l 2,39,40
 238 592 238 592 248.5 597.5 c 128,-1,41
 259 603 259 603 270 600.5 c 128,-1,42
 281 598 281 598 289 589 c 128,-1,43
 297 580 297 580 294 565 c 2,44,-1
 268 438 l 1,45,-1
 376 438 l 1,46,-1
 404 577 l 2,47,48
 407 592 407 592 417.5 597.5 c 128,-1,49
 428 603 428 603 439 600.5 c 128,-1,50
 450 598 450 598 458 589 c 128,-1,51
 466 580 466 580 463 565 c 2,52,-1
 437 438 l 1,53,-1
 545 438 l 2,54,55
 560 438 560 438 568 428.5 c 128,-1,56
 576 419 576 419 576 408 c 128,-1,57
 576 397 576 397 568 387.5 c 128,-1,58
 560 378 560 378 545 378 c 2,59,-1
 426 378 l 1,0,-1
257 378 m 1,60,-1
 231 247 l 1,61,-1
 339 247 l 1,62,-1
 365 378 l 1,63,-1
 257 378 l 1,60,-1
EndSplineSet
Validated: 1
EndChar

StartChar: dollar
Encoding: 36 36 7
Width: 533
GlyphClass: 2
Flags: W
LayerCount: 2
Fore
SplineSet
474 146 m 0,0,1
 474 118 474 118 464 93.5 c 128,-1,2
 454 69 454 69 437 49 c 128,-1,3
 420 29 420 29 397 14.5 c 128,-1,4
 374 0 374 0 347 -9 c 1,5,-1
 347 -58 l 2,6,7
 347 -73 347 -73 337.5 -80.5 c 128,-1,8
 328 -88 328 -88 317 -88 c 128,-1,9
 306 -88 306 -88 296.5 -80.5 c 128,-1,10
 287 -73 287 -73 287 -58 c 2,11,-1
 287 -20 l 1,12,-1
 278 -20 l 2,13,14
 256 -20 256 -20 236 -17 c 1,15,-1
 236 -58 l 2,16,17
 236 -73 236 -73 226.5 -80.5 c 128,-1,18
 217 -88 217 -88 205.5 -88 c 128,-1,19
 194 -88 194 -88 184.5 -80.5 c 128,-1,20
 175 -73 175 -73 175 -58 c 2,21,-1
 175 3 l 1,22,23
 143 20 143 20 115.5 47 c 128,-1,24
 88 74 88 74 56 109 c 0,25,26
 46 120 46 120 48 132 c 128,-1,27
 50 144 50 144 59 151.5 c 128,-1,28
 68 159 68 159 80 160 c 128,-1,29
 92 161 92 161 102 149 c 0,30,31
 122 127 122 127 139.5 108.5 c 128,-1,32
 157 90 157 90 175 75 c 1,33,-1
 175 314 l 1,34,35
 126 337 126 337 93 371.5 c 128,-1,36
 60 406 60 406 60 461 c 0,37,38
 60 512 60 512 93.5 547.5 c 128,-1,39
 127 583 127 583 175 601 c 1,40,-1
 175 667 l 2,41,42
 175 682 175 682 184.5 689.5 c 128,-1,43
 194 697 194 697 205.5 697 c 128,-1,44
 217 697 217 697 226.5 689.5 c 128,-1,45
 236 682 236 682 236 667 c 2,46,-1
 236 614 l 1,47,48
 242 615 242 615 248 615.5 c 128,-1,49
 254 616 254 616 260 616 c 0,50,51
 267 616 267 616 273.5 615.5 c 128,-1,52
 280 615 280 615 287 614 c 1,53,-1
 287 667 l 2,54,55
 287 682 287 682 296.5 689.5 c 128,-1,56
 306 697 306 697 317 697 c 128,-1,57
 328 697 328 697 337.5 689.5 c 128,-1,58
 347 682 347 682 347 667 c 2,59,-1
 347 597 l 1,60,61
 379 581 379 581 404.5 555.5 c 128,-1,62
 430 530 430 530 454 496 c 0,63,64
 462 483 462 483 458 471.5 c 128,-1,65
 454 460 454 460 444 454 c 128,-1,66
 434 448 434 448 422 449 c 128,-1,67
 410 450 410 450 402 462 c 0,68,69
 378 502 378 502 347 526 c 1,70,-1
 347 311 l 1,71,72
 377 298 377 298 400.5 282.5 c 128,-1,73
 424 267 424 267 440.5 247.5 c 128,-1,74
 457 228 457 228 465.5 203 c 128,-1,75
 474 178 474 178 474 146 c 0,0,1
287 552 m 1,76,77
 275 555 275 555 260 555 c 0,78,79
 254 555 254 555 248 554.5 c 128,-1,80
 242 554 242 554 236 553 c 1,81,-1
 236 354 l 1,82,83
 244 351 244 351 252.5 348.5 c 128,-1,84
 261 346 261 346 269 342 c 2,85,-1
 287 336 l 1,86,-1
 287 552 l 1,76,77
175 537 m 1,87,88
 151 526 151 526 135.5 507 c 128,-1,89
 120 488 120 488 120 461 c 0,90,91
 120 430 120 430 135.5 411 c 128,-1,92
 151 392 151 392 175 379 c 1,93,-1
 175 537 l 1,87,88
413 146 m 0,94,95
 413 184 413 184 395.5 207 c 128,-1,96
 378 230 378 230 347 246 c 1,97,-1
 347 55 l 1,98,99
 376 67 376 67 394.5 90.5 c 128,-1,100
 413 114 413 114 413 146 c 0,94,95
287 272 m 1,101,102
 278 275 278 275 268 278.5 c 128,-1,103
 258 282 258 282 249 285 c 0,104,105
 246 286 246 286 242.5 287.5 c 128,-1,106
 239 289 239 289 236 290 c 2,107,-1
 236 45 l 1,108,109
 256 40 256 40 278 40 c 2,110,-1
 287 40 l 1,111,-1
 287 272 l 1,101,102
EndSplineSet
Validated: 1
EndChar

StartChar: percent
Encoding: 37 37 8
Width: 825
GlyphClass: 2
Flags: W
LayerCount: 2
Fore
SplineSet
766 152 m 256,0,1
 766 119 766 119 753 90.5 c 128,-1,2
 740 62 740 62 718 40 c 128,-1,3
 696 18 696 18 666.5 5.5 c 128,-1,4
 637 -7 637 -7 604 -7 c 256,5,6
 571 -7 571 -7 541.5 5.5 c 128,-1,7
 512 18 512 18 490.5 40 c 128,-1,8
 469 62 469 62 456 90.5 c 128,-1,9
 443 119 443 119 443 152 c 256,10,11
 443 185 443 185 456 213.5 c 128,-1,12
 469 242 469 242 490.5 264 c 128,-1,13
 512 286 512 286 541.5 298.5 c 128,-1,14
 571 311 571 311 604 311 c 256,15,16
 637 311 637 311 666.5 298.5 c 128,-1,17
 696 286 696 286 718 264 c 128,-1,18
 740 242 740 242 753 213.5 c 128,-1,19
 766 185 766 185 766 152 c 256,0,1
255 10 m 2,20,21
 247 -2 247 -2 235 -3.5 c 128,-1,22
 223 -5 223 -5 213.5 1 c 128,-1,23
 204 7 204 7 200 18.5 c 128,-1,24
 196 30 196 30 204 42 c 2,25,-1
 559 593 l 2,26,27
 567 605 567 605 579 606 c 128,-1,28
 591 607 591 607 600.5 601 c 128,-1,29
 610 595 610 595 614 583.5 c 128,-1,30
 618 572 618 572 610 560 c 2,31,-1
 255 10 l 2,20,21
382 447 m 256,32,33
 382 414 382 414 369 385.5 c 128,-1,34
 356 357 356 357 334.5 335 c 128,-1,35
 313 313 313 313 283.5 300.5 c 128,-1,36
 254 288 254 288 221 288 c 256,37,38
 188 288 188 288 158.5 300.5 c 128,-1,39
 129 313 129 313 107 335 c 128,-1,40
 85 357 85 357 72.5 385.5 c 128,-1,41
 60 414 60 414 60 447 c 256,42,43
 60 480 60 480 72.5 508.5 c 128,-1,44
 85 537 85 537 107 559 c 128,-1,45
 129 581 129 581 158.5 593.5 c 128,-1,46
 188 606 188 606 221 606 c 256,47,48
 254 606 254 606 283.5 593.5 c 128,-1,49
 313 581 313 581 334.5 559 c 128,-1,50
 356 537 356 537 369 508.5 c 128,-1,51
 382 480 382 480 382 447 c 256,32,33
705 152 m 0,52,53
 705 173 705 173 697 191 c 128,-1,54
 689 209 689 209 675.5 222.5 c 128,-1,55
 662 236 662 236 643.5 244 c 128,-1,56
 625 252 625 252 604 252 c 0,57,58
 562 252 562 252 533 223 c 128,-1,59
 504 194 504 194 504 152 c 0,60,61
 504 132 504 132 512 113.5 c 128,-1,62
 520 95 520 95 533.5 81.5 c 128,-1,63
 547 68 547 68 565 60 c 128,-1,64
 583 52 583 52 604 52 c 256,65,66
 625 52 625 52 643.5 60 c 128,-1,67
 662 68 662 68 675.5 81.5 c 128,-1,68
 689 95 689 95 697 113.5 c 128,-1,69
 705 132 705 132 705 152 c 0,52,53
321 447 m 0,70,71
 321 467 321 467 313 485.5 c 128,-1,72
 305 504 305 504 291.5 517.5 c 128,-1,73
 278 531 278 531 260 539 c 128,-1,74
 242 547 242 547 221 547 c 256,75,76
 200 547 200 547 181.5 539 c 128,-1,77
 163 531 163 531 149.5 517.5 c 128,-1,78
 136 504 136 504 128 485.5 c 128,-1,79
 120 467 120 467 120 447 c 0,80,81
 120 426 120 426 128 408 c 128,-1,82
 136 390 136 390 149.5 376.5 c 128,-1,83
 163 363 163 363 181.5 355 c 128,-1,84
 200 347 200 347 221 347 c 0,85,86
 263 347 263 347 292 376 c 128,-1,87
 321 405 321 405 321 447 c 0,70,71
EndSplineSet
Validated: 1
EndChar

StartChar: ampersand
Encoding: 38 38 9
Width: 578
GlyphClass: 2
Flags: W
LayerCount: 2
Fore
SplineSet
518 45 m 0,0,1
 526 32 526 32 521.5 20.5 c 128,-1,2
 517 9 517 9 507.5 3.5 c 128,-1,3
 498 -2 498 -2 485.5 0 c 128,-1,4
 473 2 473 2 465 15 c 0,5,6
 451 39 451 39 441 60 c 128,-1,7
 431 81 431 81 422 101 c 1,8,9
 390 55 390 55 348 23 c 128,-1,10
 306 -9 306 -9 250 -9 c 0,11,12
 210 -9 210 -9 175.5 5.5 c 128,-1,13
 141 20 141 20 115.5 45.5 c 128,-1,14
 90 71 90 71 75 105 c 128,-1,15
 60 139 60 139 60 177 c 0,16,17
 60 228 60 228 83 273 c 128,-1,18
 106 318 106 318 144 345 c 1,19,20
 118 365 118 365 102 395.5 c 128,-1,21
 86 426 86 426 86 461 c 0,22,23
 86 492 86 492 98 519.5 c 128,-1,24
 110 547 110 547 130.5 567 c 128,-1,25
 151 587 151 587 178.5 599 c 128,-1,26
 206 611 206 611 237 611 c 256,27,28
 268 611 268 611 295.5 599 c 128,-1,29
 323 587 323 587 343.5 567 c 128,-1,30
 364 547 364 547 376 519.5 c 128,-1,31
 388 492 388 492 388 461 c 0,32,33
 388 426 388 426 373.5 396.5 c 128,-1,34
 359 367 359 367 333 347 c 1,35,36
 361 330 361 330 382 306 c 128,-1,37
 403 282 403 282 418 253 c 0,38,39
 422 248 422 248 424.5 241.5 c 128,-1,40
 427 235 427 235 430 230 c 1,41,42
 435 238 435 238 439.5 246.5 c 128,-1,43
 444 255 444 255 449 263 c 0,44,45
 457 277 457 277 469 278.5 c 128,-1,46
 481 280 481 280 490.5 274 c 128,-1,47
 500 268 500 268 505 257 c 128,-1,48
 510 246 510 246 502 233 c 0,49,50
 491 215 491 215 481.5 197 c 128,-1,51
 472 179 472 179 461 162 c 1,52,53
 473 133 473 133 485.5 105 c 128,-1,54
 498 77 498 77 518 45 c 0,0,1
328 461 m 0,55,56
 328 499 328 499 301.5 525 c 128,-1,57
 275 551 275 551 237 551 c 256,58,59
 199 551 199 551 172.5 525 c 128,-1,60
 146 499 146 499 146 461 c 0,61,62
 146 424 146 424 172.5 397.5 c 128,-1,63
 199 371 199 371 237 371 c 256,64,65
 275 371 275 371 301.5 397.5 c 128,-1,66
 328 424 328 424 328 461 c 0,55,56
395 164 m 1,67,68
 389 178 389 178 381.5 193 c 128,-1,69
 374 208 374 208 364 225 c 0,70,71
 345 260 345 260 315 286 c 128,-1,72
 285 312 285 312 237 312 c 0,73,74
 211 312 211 312 189.5 300.5 c 128,-1,75
 168 289 168 289 152.5 270.5 c 128,-1,76
 137 252 137 252 128.5 227.5 c 128,-1,77
 120 203 120 203 120 177 c 256,78,79
 120 151 120 151 130.5 128 c 128,-1,80
 141 105 141 105 158.5 87.5 c 128,-1,81
 176 70 176 70 199.5 60 c 128,-1,82
 223 50 223 50 250 50 c 0,83,84
 276 50 276 50 297 59 c 128,-1,85
 318 68 318 68 335.5 84 c 128,-1,86
 353 100 353 100 367.5 120.5 c 128,-1,87
 382 141 382 141 395 164 c 1,67,68
EndSplineSet
Validated: 1
EndChar

StartChar: quotesingle
Encoding: 39 39 10
Width: 180
GlyphClass: 2
Flags: W
LayerCount: 2
Fore
SplineSet
120 434 m 1,0,1
 120 419 120 419 110.5 411.5 c 128,-1,2
 101 404 101 404 90 404 c 128,-1,3
 79 404 79 404 69.5 411.5 c 128,-1,4
 60 419 60 419 60 434 c 2,5,-1
 60 573 l 2,6,7
 60 588 60 588 69.5 595 c 128,-1,8
 79 602 79 602 90 602 c 128,-1,9
 101 602 101 602 110.5 595 c 128,-1,10
 120 588 120 588 120 573 c 2,11,-1
 120 434 l 1,12,-1
 120 434 l 1,0,1
EndSplineSet
Validated: 5
EndChar

StartChar: parenleft
Encoding: 40 40 11
Width: 332
GlyphClass: 2
Flags: W
LayerCount: 2
Fore
SplineSet
267 -40 m 0,0,1
 277 -51 277 -51 275 -62.5 c 128,-1,2
 273 -74 273 -74 265 -81.5 c 128,-1,3
 257 -89 257 -89 245 -90 c 128,-1,4
 233 -91 233 -91 223 -80 c 0,5,6
 192 -46 192 -46 162.5 -5 c 128,-1,7
 133 36 133 36 110 83.5 c 128,-1,8
 87 131 87 131 73.5 185 c 128,-1,9
 60 239 60 239 60 300 c 0,10,11
 60 415 60 415 105 504 c 128,-1,12
 150 593 150 593 223 653 c 0,13,14
 235 662 235 662 246.5 659.5 c 128,-1,15
 258 657 258 657 265.5 648.5 c 128,-1,16
 273 640 273 640 273 628 c 128,-1,17
 273 616 273 616 262 607 c 0,18,19
 199 554 199 554 159.5 477 c 128,-1,20
 120 400 120 400 120 300 c 0,21,22
 120 245 120 245 132.5 197 c 128,-1,23
 145 149 145 149 166 106.5 c 128,-1,24
 187 64 187 64 213.5 27.5 c 128,-1,25
 240 -9 240 -9 267 -40 c 0,0,1
EndSplineSet
Validated: 1
EndChar

StartChar: parenright
Encoding: 41 41 12
Width: 332
GlyphClass: 2
Flags: W
LayerCount: 2
Fore
SplineSet
273 300 m 0,0,1
 273 239 273 239 259.5 185 c 128,-1,2
 246 131 246 131 223 83.5 c 128,-1,3
 200 36 200 36 170.5 -5 c 128,-1,4
 141 -46 141 -46 109 -80 c 0,5,6
 99 -91 99 -91 87 -90 c 128,-1,7
 75 -89 75 -89 67 -81.5 c 128,-1,8
 59 -74 59 -74 57 -62.5 c 128,-1,9
 55 -51 55 -51 65 -40 c 0,10,11
 93 -9 93 -9 119.5 27.5 c 128,-1,12
 146 64 146 64 166.5 106.5 c 128,-1,13
 187 149 187 149 199.5 197 c 128,-1,14
 212 245 212 245 212 300 c 0,15,16
 212 400 212 400 172.5 477 c 128,-1,17
 133 554 133 554 71 607 c 0,18,19
 59 616 59 616 59.5 628 c 128,-1,20
 60 640 60 640 67 648.5 c 128,-1,21
 74 657 74 657 86 659.5 c 128,-1,22
 98 662 98 662 109 653 c 0,23,24
 182 593 182 593 227.5 504 c 128,-1,25
 273 415 273 415 273 300 c 0,0,1
EndSplineSet
Validated: 1
EndChar

StartChar: asterisk
Encoding: 42 42 13
Width: 438
GlyphClass: 2
Flags: W
LayerCount: 2
Fore
SplineSet
273 427 m 1,0,-1
 313 359 l 2,1,2
 321 347 321 347 316.5 336 c 128,-1,3
 312 325 312 325 302.5 319.5 c 128,-1,4
 293 314 293 314 280.5 315.5 c 128,-1,5
 268 317 268 317 260 330 c 2,6,-1
 221 396 l 1,7,-1
 181 329 l 2,8,9
 174 316 174 316 161.5 314.5 c 128,-1,10
 149 313 149 313 139.5 319 c 128,-1,11
 130 325 130 325 125.5 336 c 128,-1,12
 121 347 121 347 129 359 c 2,13,-1
 169 427 l 1,14,-1
 89 427 l 2,15,16
 74 427 74 427 66.5 436 c 128,-1,17
 59 445 59 445 59 456.5 c 128,-1,18
 59 468 59 468 66.5 477 c 128,-1,19
 74 486 74 486 89 486 c 2,20,-1
 168 486 l 1,21,-1
 129 554 l 2,22,23
 121 567 121 567 125.5 578 c 128,-1,24
 130 589 130 589 139.5 594.5 c 128,-1,25
 149 600 149 600 161.5 598 c 128,-1,26
 174 596 174 596 181 584 c 2,27,-1
 221 515 l 1,28,-1
 260 584 l 2,29,30
 268 596 268 596 280.5 597.5 c 128,-1,31
 293 599 293 599 302.5 593.5 c 128,-1,32
 312 588 312 588 316.5 577 c 128,-1,33
 321 566 321 566 313 553 c 2,34,-1
 273 486 l 1,35,-1
 353 486 l 2,36,37
 368 486 368 486 375.5 477 c 128,-1,38
 383 468 383 468 383 456.5 c 128,-1,39
 383 445 383 445 375.5 436 c 128,-1,40
 368 427 368 427 353 427 c 2,41,-1
 273 427 l 1,0,-1
EndSplineSet
Validated: 1
EndChar

StartChar: plus
Encoding: 43 43 14
Width: 504
GlyphClass: 2
Flags: W
LayerCount: 2
Fore
SplineSet
280 200 m 1,0,-1
 280 35 l 2,1,2
 280 20 280 20 270.5 12 c 128,-1,3
 261 4 261 4 250 4 c 128,-1,4
 239 4 239 4 229.5 12 c 128,-1,5
 220 20 220 20 220 35 c 2,6,-1
 220 200 l 1,7,-1
 87 200 l 2,8,9
 72 200 72 200 64.5 209.5 c 128,-1,10
 57 219 57 219 57 230 c 128,-1,11
 57 241 57 241 64.5 250.5 c 128,-1,12
 72 260 72 260 87 260 c 2,13,-1
 220 260 l 1,14,-1
 220 426 l 2,15,16
 220 441 220 441 229.5 448.5 c 128,-1,17
 239 456 239 456 250 456 c 128,-1,18
 261 456 261 456 270.5 448.5 c 128,-1,19
 280 441 280 441 280 426 c 2,20,-1
 280 260 l 1,21,-1
 412 260 l 2,22,23
 427 260 427 260 434.5 250.5 c 128,-1,24
 442 241 442 241 442 230 c 128,-1,25
 442 219 442 219 434.5 209.5 c 128,-1,26
 427 200 427 200 412 200 c 2,27,-1
 280 200 l 1,0,-1
EndSplineSet
Validated: 1
EndChar

StartChar: comma
Encoding: 44 44 15
Width: 213
GlyphClass: 2
Flags: W
LayerCount: 2
Fore
SplineSet
154 25 m 0,0,1
 152 -5 152 -5 143 -27.5 c 128,-1,2
 134 -50 134 -50 114 -80 c 0,3,4
 102 -97 102 -97 92.5 -101 c 128,-1,5
 83 -105 83 -105 77 -102 c 128,-1,6
 71 -99 71 -99 69.5 -90 c 128,-1,7
 68 -81 68 -81 74 -70 c 0,8,9
 81 -58 81 -58 86 -49.5 c 128,-1,10
 91 -41 91 -41 94.5 -33.5 c 128,-1,11
 98 -26 98 -26 99.5 -17.5 c 128,-1,12
 101 -9 101 -9 101 3 c 0,13,14
 101 6 101 6 94.5 9.5 c 128,-1,15
 88 13 88 13 80.5 18.5 c 128,-1,16
 73 24 73 24 66.5 32.5 c 128,-1,17
 60 41 60 41 60 53 c 0,18,19
 60 59 60 59 61 67 c 128,-1,20
 62 75 62 75 67 82.5 c 128,-1,21
 72 90 72 90 80.5 95 c 128,-1,22
 89 100 89 100 104 100 c 0,23,24
 122 100 122 100 132 92.5 c 128,-1,25
 142 85 142 85 147 73.5 c 128,-1,26
 152 62 152 62 153 49 c 128,-1,27
 154 36 154 36 154 25 c 0,0,1
EndSplineSet
Validated: 1
EndChar

StartChar: hyphen
Encoding: 45 45 16
Width: 374
GlyphClass: 2
Flags: W
LayerCount: 2
Fore
SplineSet
89 215 m 2,0,1
 74 215 74 215 66.5 223.5 c 128,-1,2
 59 232 59 232 59 242.5 c 128,-1,3
 59 253 59 253 66.5 261.5 c 128,-1,4
 74 270 74 270 89 270 c 2,5,-1
 282 270 l 2,6,7
 297 270 297 270 304.5 261.5 c 128,-1,8
 312 253 312 253 312 242.5 c 128,-1,9
 312 232 312 232 304.5 223.5 c 128,-1,10
 297 215 297 215 282 215 c 2,11,-1
 89 215 l 2,0,1
EndSplineSet
Validated: 1
EndChar

StartChar: period
Encoding: 46 46 17
Width: 216
GlyphClass: 2
Flags: W
LayerCount: 2
Fore
SplineSet
156 47 m 0,0,1
 156 29 156 29 142 15.5 c 128,-1,2
 128 2 128 2 108 2 c 256,3,4
 88 2 88 2 74 15.5 c 128,-1,5
 60 29 60 29 60 47 c 0,6,7
 60 66 60 66 74 79.5 c 128,-1,8
 88 93 88 93 108 93 c 256,9,10
 128 93 128 93 142 79.5 c 128,-1,11
 156 66 156 66 156 47 c 0,0,1
EndSplineSet
Validated: 1
EndChar

StartChar: slash
Encoding: 47 47 18
Width: 387
GlyphClass: 2
Flags: W
LayerCount: 2
Fore
SplineSet
113 14 m 2,0,1
 107 0 107 0 95.5 -4 c 128,-1,2
 84 -8 84 -8 73.5 -3.5 c 128,-1,3
 63 1 63 1 57 11.5 c 128,-1,4
 51 22 51 22 56 36 c 2,5,-1
 266 583 l 2,6,7
 272 597 272 597 283.5 601 c 128,-1,8
 295 605 295 605 305.5 600.5 c 128,-1,9
 316 596 316 596 322 585.5 c 128,-1,10
 328 575 328 575 323 561 c 2,11,-1
 113 14 l 2,0,1
EndSplineSet
Validated: 1
EndChar

StartChar: zero
Encoding: 48 48 19
Width: 500
GlyphClass: 2
Flags: W
LayerCount: 2
Fore
SplineSet
432 294 m 256,0,1
 432 236 432 236 419.5 181 c 128,-1,2
 407 126 407 126 383 83 c 128,-1,3
 359 40 359 40 324 14 c 128,-1,4
 289 -12 289 -12 245 -12 c 256,5,6
 201 -12 201 -12 166.5 14 c 128,-1,7
 132 40 132 40 108 83 c 128,-1,8
 84 126 84 126 71.5 181 c 128,-1,9
 59 236 59 236 59 294 c 256,10,11
 59 352 59 352 72 407 c 128,-1,12
 85 462 85 462 109 505 c 128,-1,13
 133 548 133 548 167.5 574.5 c 128,-1,14
 202 601 202 601 245 601 c 0,15,16
 289 601 289 601 324 574.5 c 128,-1,17
 359 548 359 548 383 505 c 128,-1,18
 407 462 407 462 419.5 407 c 128,-1,19
 432 352 432 352 432 294 c 256,0,1
372 295 m 0,20,21
 372 340 372 340 364 384 c 128,-1,22
 356 428 356 428 340 462.5 c 128,-1,23
 324 497 324 497 300 518.5 c 128,-1,24
 276 540 276 540 245 540 c 256,25,26
 214 540 214 540 190.5 518.5 c 128,-1,27
 167 497 167 497 151 462.5 c 128,-1,28
 135 428 135 428 127 383.5 c 128,-1,29
 119 339 119 339 119 294 c 0,30,31
 119 248 119 248 127 204 c 128,-1,32
 135 160 135 160 151 125.5 c 128,-1,33
 167 91 167 91 190.5 69.5 c 128,-1,34
 214 48 214 48 245 48 c 256,35,36
 276 48 276 48 299.5 69.5 c 128,-1,37
 323 91 323 91 339 126 c 128,-1,38
 355 161 355 161 363.5 205 c 128,-1,39
 372 249 372 249 372 295 c 0,20,21
EndSplineSet
Validated: 1
EndChar

StartChar: one
Encoding: 49 49 20
Width: 500
GlyphClass: 2
Flags: W
LayerCount: 2
Fore
SplineSet
282 23 m 1,0,1
 282 8 282 8 272.5 0.5 c 128,-1,2
 263 -7 263 -7 252 -7 c 128,-1,3
 241 -7 241 -7 231.5 0.5 c 128,-1,4
 222 8 222 8 222 23 c 2,5,-1
 222 570 l 2,6,7
 222 585 222 585 231.5 593 c 128,-1,8
 241 601 241 601 252 601 c 128,-1,9
 263 601 263 601 272.5 593 c 128,-1,10
 282 585 282 585 282 570 c 2,11,-1
 282 23 l 1,12,-1
 282 23 l 1,0,1
EndSplineSet
Validated: 5
EndChar

StartChar: two
Encoding: 50 50 21
Width: 500
GlyphClass: 2
Flags: W
LayerCount: 2
Fore
SplineSet
66 1 m 1,0,1
 77 41 77 41 87 86.5 c 128,-1,2
 97 132 97 132 121.5 180.5 c 128,-1,3
 146 229 146 229 192.5 277.5 c 128,-1,4
 239 326 239 326 321 372 c 0,5,6
 357 392 357 392 370.5 421.5 c 128,-1,7
 384 451 384 451 378 478.5 c 128,-1,8
 372 506 372 506 347.5 525.5 c 128,-1,9
 323 545 323 545 283 545 c 0,10,11
 237 545 237 545 205.5 530 c 128,-1,12
 174 515 174 515 154 466 c 0,13,14
 148 453 148 453 137 449.5 c 128,-1,15
 126 446 126 446 116 450.5 c 128,-1,16
 106 455 106 455 100.5 465.5 c 128,-1,17
 95 476 95 476 101 489 c 0,18,19
 129 558 129 558 174.5 582 c 128,-1,20
 220 606 220 606 279 606 c 0,21,22
 348 606 348 606 389.5 573.5 c 128,-1,23
 431 541 431 541 441 495 c 128,-1,24
 451 449 451 449 428.5 400.5 c 128,-1,25
 406 352 406 352 349 319 c 0,26,27
 289 285 289 285 252.5 250.5 c 128,-1,28
 216 216 216 216 195 183 c 128,-1,29
 174 150 174 150 164.5 119 c 128,-1,30
 155 88 155 88 147 61 c 1,31,-1
 408 61 l 2,32,33
 423 61 423 61 430.5 51.5 c 128,-1,34
 438 42 438 42 438 31 c 128,-1,35
 438 20 438 20 430.5 10.5 c 128,-1,36
 423 1 423 1 408 1 c 2,37,-1
 66 1 l 1,0,1
EndSplineSet
Validated: 33
EndChar

StartChar: three
Encoding: 51 51 22
Width: 500
GlyphClass: 2
Flags: W
LayerCount: 2
Fore
SplineSet
444 209 m 0,0,1
 444 146 444 146 420.5 100.5 c 128,-1,2
 397 55 397 55 360 28.5 c 128,-1,3
 323 2 323 2 278 -5 c 128,-1,4
 233 -12 233 -12 190.5 0.5 c 128,-1,5
 148 13 148 13 112.5 46.5 c 128,-1,6
 77 80 77 80 59 135 c 0,7,8
 55 149 55 149 61.5 159 c 128,-1,9
 68 169 68 169 78.5 172.5 c 128,-1,10
 89 176 89 176 100 171.5 c 128,-1,11
 111 167 111 167 115 153 c 0,12,13
 128 115 128 115 153 92 c 128,-1,14
 178 69 178 69 208 60.5 c 128,-1,15
 238 52 238 52 269.5 57.5 c 128,-1,16
 301 63 301 63 326.5 82 c 128,-1,17
 352 101 352 101 368.5 133 c 128,-1,18
 385 165 385 165 385 209 c 0,19,20
 385 251 385 251 372 278.5 c 128,-1,21
 359 306 359 306 339 322.5 c 128,-1,22
 319 339 319 339 295.5 347.5 c 128,-1,23
 272 356 272 356 250.5 359 c 128,-1,24
 229 362 229 362 212.5 362.5 c 128,-1,25
 196 363 196 363 190 364 c 0,26,27
 176 366 176 366 168 372 c 128,-1,28
 160 378 160 378 160 386 c 0,29,30
 160 393 160 393 161.5 398 c 128,-1,31
 163 403 163 403 174 416 c 2,32,-1
 298 540 l 1,33,-1
 115 540 l 2,34,35
 100 540 100 540 92.5 549.5 c 128,-1,36
 85 559 85 559 85 570 c 128,-1,37
 85 581 85 581 92.5 590.5 c 128,-1,38
 100 600 100 600 115 600 c 2,39,-1
 387 601 l 2,40,41
 396 601 396 601 403.5 596.5 c 128,-1,42
 411 592 411 592 411 584 c 0,43,44
 411 574 411 574 403.5 563.5 c 128,-1,45
 396 553 396 553 385 545 c 2,46,-1
 264 421 l 1,47,48
 314 414 314 414 348.5 395.5 c 128,-1,49
 383 377 383 377 404 349.5 c 128,-1,50
 425 322 425 322 434.5 286.5 c 128,-1,51
 444 251 444 251 444 209 c 0,0,1
EndSplineSet
Validated: 33
EndChar

StartChar: four
Encoding: 52 52 23
Width: 500
GlyphClass: 2
Flags: W
LayerCount: 2
Fore
SplineSet
386 89 m 1,0,-1
 386 22 l 2,1,2
 386 7 386 7 376.5 -1 c 128,-1,3
 367 -9 367 -9 355.5 -9 c 128,-1,4
 344 -9 344 -9 334.5 -1 c 128,-1,5
 325 7 325 7 325 22 c 2,6,-1
 325 89 l 1,7,-1
 50 89 l 2,8,9
 41 89 41 89 36.5 95.5 c 128,-1,10
 32 102 32 102 31.5 111.5 c 128,-1,11
 31 121 31 121 33 132 c 128,-1,12
 35 143 35 143 38 152 c 2,13,-1
 189 581 l 2,14,15
 194 596 194 596 205.5 599.5 c 128,-1,16
 217 603 217 603 228 599 c 128,-1,17
 239 595 239 595 245.5 585 c 128,-1,18
 252 575 252 575 247 561 c 2,19,-1
 103 149 l 1,20,-1
 324 149 l 1,21,-1
 324 262 l 2,22,23
 324 278 324 278 333.5 286 c 128,-1,24
 343 294 343 294 354.5 294 c 128,-1,25
 366 294 366 294 375.5 286 c 128,-1,26
 385 278 385 278 385 262 c 2,27,-1
 385 149 l 1,28,-1
 444 149 l 2,29,30
 459 149 459 149 467 139.5 c 128,-1,31
 475 130 475 130 475 119 c 128,-1,32
 475 108 475 108 467 98.5 c 128,-1,33
 459 89 459 89 444 89 c 2,34,-1
 386 89 l 1,0,-1
EndSplineSet
Validated: 1
EndChar

StartChar: five
Encoding: 53 53 24
Width: 500
GlyphClass: 2
Flags: W
LayerCount: 2
Fore
SplineSet
439 202 m 0,0,1
 439 160 439 160 428.5 123 c 128,-1,2
 418 86 418 86 396.5 57.5 c 128,-1,3
 375 29 375 29 341.5 11.5 c 128,-1,4
 308 -6 308 -6 263 -9 c 0,5,6
 227 -12 227 -12 196.5 -1.5 c 128,-1,7
 166 9 166 9 140.5 29 c 128,-1,8
 115 49 115 49 96.5 77 c 128,-1,9
 78 105 78 105 66 138 c 0,10,11
 61 152 61 152 67.5 162.5 c 128,-1,12
 74 173 74 173 84.5 176.5 c 128,-1,13
 95 180 95 180 106 176.5 c 128,-1,14
 117 173 117 173 123 158 c 0,15,16
 131 135 131 135 144 115 c 128,-1,17
 157 95 157 95 174.5 80 c 128,-1,18
 192 65 192 65 213 57 c 128,-1,19
 234 49 234 49 259 51 c 0,20,21
 291 53 291 53 314 66 c 128,-1,22
 337 79 337 79 351.5 99.5 c 128,-1,23
 366 120 366 120 373 146.5 c 128,-1,24
 380 173 380 173 380 202 c 0,25,26
 380 232 380 232 369 259 c 128,-1,27
 358 286 358 286 339.5 306.5 c 128,-1,28
 321 327 321 327 297 339 c 128,-1,29
 273 351 273 351 247 351 c 0,30,31
 211 351 211 351 185.5 344.5 c 128,-1,32
 160 338 160 338 131 316 c 0,33,34
 126 311 126 311 117 305.5 c 128,-1,35
 108 300 108 300 100 300 c 0,36,37
 87 300 87 300 81.5 308.5 c 128,-1,38
 76 317 76 317 76 326 c 2,39,-1
 76 600 l 1,40,-1
 362 600 l 2,41,42
 377 600 377 600 385 590.5 c 128,-1,43
 393 581 393 581 393 570 c 128,-1,44
 393 559 393 559 385 549.5 c 128,-1,45
 377 540 377 540 362 540 c 2,46,-1
 136 540 l 1,47,-1
 136 386 l 1,48,49
 146 391 146 391 171 401 c 128,-1,50
 196 411 196 411 247 411 c 0,51,52
 284 411 284 411 318.5 394.5 c 128,-1,53
 353 378 353 378 380 350 c 128,-1,54
 407 322 407 322 423 284 c 128,-1,55
 439 246 439 246 439 202 c 0,0,1
EndSplineSet
Validated: 33
EndChar

StartChar: six
Encoding: 54 54 25
Width: 500
GlyphClass: 2
Flags: W
LayerCount: 2
Fore
SplineSet
452 210 m 0,0,1
 452 162 452 162 438 121.5 c 128,-1,2
 424 81 424 81 398.5 51 c 128,-1,3
 373 21 373 21 337.5 4.5 c 128,-1,4
 302 -12 302 -12 258 -12 c 0,5,6
 179 -12 179 -12 131.5 21 c 128,-1,7
 84 54 84 54 62 105.5 c 128,-1,8
 40 157 40 157 40 219.5 c 128,-1,9
 40 282 40 282 56 340 c 0,10,11
 68 381 68 381 85.5 416 c 128,-1,12
 103 451 103 451 128.5 482.5 c 128,-1,13
 154 514 154 514 190 543.5 c 128,-1,14
 226 573 226 573 274 602 c 0,15,16
 287 610 287 610 298 605.5 c 128,-1,17
 309 601 309 601 314.5 591 c 128,-1,18
 320 581 320 581 318 569 c 128,-1,19
 316 557 316 557 304 549 c 0,20,21
 231 505 231 505 191 460 c 128,-1,22
 151 415 151 415 129 357 c 0,23,24
 128 355 128 355 128 354 c 128,-1,25
 128 353 128 353 127 351 c 1,26,27
 147 374 147 374 178 389.5 c 128,-1,28
 209 405 209 405 254 405 c 0,29,30
 293 405 293 405 328.5 392 c 128,-1,31
 364 379 364 379 391.5 354 c 128,-1,32
 419 329 419 329 435.5 293 c 128,-1,33
 452 257 452 257 452 210 c 0,0,1
391 210 m 0,34,35
 391 238 391 238 380 262.5 c 128,-1,36
 369 287 369 287 350.5 305 c 128,-1,37
 332 323 332 323 307 333.5 c 128,-1,38
 282 344 282 344 254 344 c 0,39,40
 224 344 224 344 197.5 332.5 c 128,-1,41
 171 321 171 321 151.5 300.5 c 128,-1,42
 132 280 132 280 120.5 253.5 c 128,-1,43
 109 227 109 227 109 197 c 0,44,45
 109 166 109 166 121 139 c 128,-1,46
 133 112 133 112 153 92 c 128,-1,47
 173 72 173 72 200.5 60 c 128,-1,48
 228 48 228 48 258 48 c 256,49,50
 288 48 288 48 313 62 c 128,-1,51
 338 76 338 76 355 98.5 c 128,-1,52
 372 121 372 121 381.5 150.5 c 128,-1,53
 391 180 391 180 391 210 c 0,34,35
EndSplineSet
Validated: 1
EndChar

StartChar: seven
Encoding: 55 55 26
Width: 500
GlyphClass: 2
Flags: W
LayerCount: 2
Fore
SplineSet
418 583 m 0,0,1
 420 580 420 580 421.5 577 c 128,-1,2
 423 574 423 574 422.5 568 c 128,-1,3
 422 562 422 562 419.5 552.5 c 128,-1,4
 417 543 417 543 411 529 c 2,5,-1
 199 10 l 2,6,7
 193 -4 193 -4 181 -7 c 128,-1,8
 169 -10 169 -10 158.5 -5.5 c 128,-1,9
 148 -1 148 -1 142 10 c 128,-1,10
 136 21 136 21 142 34 c 2,11,-1
 352 540 l 1,12,-1
 102 540 l 2,13,14
 87 540 87 540 79 549.5 c 128,-1,15
 71 559 71 559 71 570 c 128,-1,16
 71 581 71 581 79 590.5 c 128,-1,17
 87 600 87 600 102 600 c 2,18,-1
 359 600 l 2,19,20
 381 600 381 600 392 599 c 128,-1,21
 403 598 403 598 408 595.5 c 128,-1,22
 413 593 413 593 414.5 590 c 128,-1,23
 416 587 416 587 418 583 c 0,0,1
EndSplineSet
Validated: 1
EndChar

StartChar: eight
Encoding: 56 56 27
Width: 500
GlyphClass: 2
Flags: W
LayerCount: 2
Fore
SplineSet
432 173 m 0,0,1
 432 136 432 136 418 103 c 128,-1,2
 404 70 404 70 379.5 45 c 128,-1,3
 355 20 355 20 322 5.5 c 128,-1,4
 289 -9 289 -9 252 -9 c 256,5,6
 215 -9 215 -9 182 5.5 c 128,-1,7
 149 20 149 20 125 45 c 128,-1,8
 101 70 101 70 87 103 c 128,-1,9
 73 136 73 136 73 173 c 0,10,11
 73 222 73 222 97 263 c 128,-1,12
 121 304 121 304 159 327 c 1,13,14
 130 348 130 348 111.5 381 c 128,-1,15
 93 414 93 414 93 454 c 0,16,17
 93 486 93 486 105.5 514 c 128,-1,18
 118 542 118 542 139 563 c 128,-1,19
 160 584 160 584 188 596.5 c 128,-1,20
 216 609 216 609 247 609 c 0,21,22
 279 609 279 609 307 596.5 c 128,-1,23
 335 584 335 584 356 563 c 128,-1,24
 377 542 377 542 389 514 c 128,-1,25
 401 486 401 486 401 454 c 0,26,27
 401 416 401 416 384.5 384 c 128,-1,28
 368 352 368 352 339 332 c 1,29,30
 381 308 381 308 406.5 266 c 128,-1,31
 432 224 432 224 432 173 c 0,0,1
343 454 m 256,32,33
 343 474 343 474 335.5 491 c 128,-1,34
 328 508 328 508 314.5 521.5 c 128,-1,35
 301 535 301 535 284 542.5 c 128,-1,36
 267 550 267 550 247 550 c 0,37,38
 228 550 228 550 211 542.5 c 128,-1,39
 194 535 194 535 181 521.5 c 128,-1,40
 168 508 168 508 160.5 491 c 128,-1,41
 153 474 153 474 153 454 c 256,42,43
 153 434 153 434 160.5 416.5 c 128,-1,44
 168 399 168 399 181 385.5 c 128,-1,45
 194 372 194 372 211 364.5 c 128,-1,46
 228 357 228 357 247 357 c 0,47,48
 267 357 267 357 284 364.5 c 128,-1,49
 301 372 301 372 314.5 385.5 c 128,-1,50
 328 399 328 399 335.5 416.5 c 128,-1,51
 343 434 343 434 343 454 c 256,32,33
374 173 m 0,52,53
 374 199 374 199 364 221 c 128,-1,54
 354 243 354 243 337.5 260 c 128,-1,55
 321 277 321 277 299 286.5 c 128,-1,56
 277 296 277 296 252 296 c 256,57,58
 227 296 227 296 205 286.5 c 128,-1,59
 183 277 183 277 166.5 260 c 128,-1,60
 150 243 150 243 140.5 221 c 128,-1,61
 131 199 131 199 131 173 c 0,62,63
 131 148 131 148 140.5 126 c 128,-1,64
 150 104 150 104 166.5 87 c 128,-1,65
 183 70 183 70 205 60 c 128,-1,66
 227 50 227 50 252 50 c 256,67,68
 277 50 277 50 299 60 c 128,-1,69
 321 70 321 70 337.5 87 c 128,-1,70
 354 104 354 104 364 126 c 128,-1,71
 374 148 374 148 374 173 c 0,52,53
EndSplineSet
Validated: 1
EndChar

StartChar: nine
Encoding: 57 57 28
Width: 500
GlyphClass: 2
Flags: W
LayerCount: 2
Fore
SplineSet
444 258 m 0,0,1
 432 218 432 218 414.5 182.5 c 128,-1,2
 397 147 397 147 371.5 115.5 c 128,-1,3
 346 84 346 84 310.5 54.5 c 128,-1,4
 275 25 275 25 227 -4 c 0,5,6
 214 -12 214 -12 202.5 -7 c 128,-1,7
 191 -2 191 -2 185.5 8 c 128,-1,8
 180 18 180 18 181.5 29.5 c 128,-1,9
 183 41 183 41 196 48 c 0,10,11
 233 70 233 70 261 92 c 128,-1,12
 289 114 289 114 310 137 c 128,-1,13
 331 160 331 160 346 185.5 c 128,-1,14
 361 211 361 211 372 240 c 0,15,16
 373 242 373 242 373 243 c 128,-1,17
 373 244 373 244 374 246 c 1,18,19
 354 223 354 223 323 208 c 128,-1,20
 292 193 292 193 247 193 c 0,21,22
 212 193 212 193 176.5 206 c 128,-1,23
 141 219 141 219 112.5 244 c 128,-1,24
 84 269 84 269 66.5 305 c 128,-1,25
 49 341 49 341 49 387 c 0,26,27
 49 435 49 435 63 476 c 128,-1,28
 77 517 77 517 102.5 546 c 128,-1,29
 128 575 128 575 163.5 591.5 c 128,-1,30
 199 608 199 608 243 608 c 0,31,32
 297 608 297 608 336.5 593 c 128,-1,33
 376 578 376 578 401.5 551.5 c 128,-1,34
 427 525 427 525 441 490.5 c 128,-1,35
 455 456 455 456 459.5 417 c 128,-1,36
 464 378 464 378 459.5 337.5 c 128,-1,37
 455 297 455 297 444 258 c 0,0,1
392 401 m 0,38,39
 392 432 392 432 380 459 c 128,-1,40
 368 486 368 486 348 506.5 c 128,-1,41
 328 527 328 527 300.5 538.5 c 128,-1,42
 273 550 273 550 243 550 c 0,43,44
 212 550 212 550 187.5 536 c 128,-1,45
 163 522 163 522 145.5 499 c 128,-1,46
 128 476 128 476 118.5 446.5 c 128,-1,47
 109 417 109 417 109 387 c 0,48,49
 109 360 109 360 120 335.5 c 128,-1,50
 131 311 131 311 150 292.5 c 128,-1,51
 169 274 169 274 194 263.5 c 128,-1,52
 219 253 219 253 247 253 c 0,53,54
 277 253 277 253 303.5 264.5 c 128,-1,55
 330 276 330 276 349.5 296.5 c 128,-1,56
 369 317 369 317 380.5 344 c 128,-1,57
 392 371 392 371 392 401 c 0,38,39
EndSplineSet
Validated: 33
EndChar

StartChar: colon
Encoding: 58 58 29
Width: 216
GlyphClass: 2
Flags: W
LayerCount: 2
Fore
SplineSet
156 353 m 0,0,1
 156 332 156 332 142 318 c 128,-1,2
 128 304 128 304 108 304 c 256,3,4
 88 304 88 304 74 318 c 128,-1,5
 60 332 60 332 60 353 c 0,6,7
 60 373 60 373 74 386.5 c 128,-1,8
 88 400 88 400 108 400 c 256,9,10
 128 400 128 400 142 386.5 c 128,-1,11
 156 373 156 373 156 353 c 0,0,1
156 47 m 0,12,13
 156 27 156 27 142 13.5 c 128,-1,14
 128 0 128 0 108 0 c 256,15,16
 88 0 88 0 74 13.5 c 128,-1,17
 60 27 60 27 60 47 c 0,18,19
 60 68 60 68 74 82 c 128,-1,20
 88 96 88 96 108 96 c 256,21,22
 128 96 128 96 142 82 c 128,-1,23
 156 68 156 68 156 47 c 0,12,13
EndSplineSet
Validated: 1
EndChar

StartChar: semicolon
Encoding: 59 59 30
Width: 216
GlyphClass: 2
Flags: W
LayerCount: 2
Fore
SplineSet
156 353 m 0,0,1
 156 332 156 332 142 318.5 c 128,-1,2
 128 305 128 305 108 305 c 256,3,4
 88 305 88 305 74 318.5 c 128,-1,5
 60 332 60 332 60 353 c 0,6,7
 60 373 60 373 74 386.5 c 128,-1,8
 88 400 88 400 108 400 c 256,9,10
 128 400 128 400 142 386.5 c 128,-1,11
 156 373 156 373 156 353 c 0,0,1
156 28 m 0,12,13
 155 -2 155 -2 146.5 -25 c 128,-1,14
 138 -48 138 -48 116 -79 c 0,15,16
 104 -96 104 -96 94.5 -101 c 128,-1,17
 85 -106 85 -106 79 -102.5 c 128,-1,18
 73 -99 73 -99 72 -90 c 128,-1,19
 71 -81 71 -81 77 -70 c 0,20,21
 84 -57 84 -57 89 -48 c 128,-1,22
 94 -39 94 -39 97.5 -31.5 c 128,-1,23
 101 -24 101 -24 102.5 -15.5 c 128,-1,24
 104 -7 104 -7 104 5 c 0,25,26
 104 8 104 8 97.5 12 c 128,-1,27
 91 16 91 16 83.5 21.5 c 128,-1,28
 76 27 76 27 69.5 35.5 c 128,-1,29
 63 44 63 44 62 56 c 0,30,31
 62 62 62 62 63.5 70.5 c 128,-1,32
 65 79 65 79 69.5 86.5 c 128,-1,33
 74 94 74 94 83 99.5 c 128,-1,34
 92 105 92 105 107 105 c 0,35,36
 125 105 125 105 135 97 c 128,-1,37
 145 89 145 89 150 77.5 c 128,-1,38
 155 66 155 66 155.5 52.5 c 128,-1,39
 156 39 156 39 156 28 c 0,12,13
EndSplineSet
Validated: 1
EndChar

StartChar: less
Encoding: 60 60 31
Width: 463
GlyphClass: 2
Flags: W
LayerCount: 2
Fore
SplineSet
390 106 m 1,0,1
 402 97 402 97 402 85 c 128,-1,2
 402 73 402 73 395 64 c 128,-1,3
 388 55 388 55 375.5 52 c 128,-1,4
 363 49 363 49 351 59 c 2,5,-1
 73 276 l 2,6,7
 41 300 41 300 73 324 c 2,8,-1
 351 541 l 2,9,10
 363 551 363 551 375.5 548 c 128,-1,11
 388 545 388 545 395 536 c 128,-1,12
 402 527 402 527 402 515 c 128,-1,13
 402 503 402 503 390 494 c 2,14,-1
 142 300 l 1,15,-1
 390 106 l 1,16,-1
 390 106 l 1,0,1
EndSplineSet
Validated: 37
EndChar

StartChar: equal
Encoding: 61 61 32
Width: 434
GlyphClass: 2
Flags: W
LayerCount: 2
Fore
SplineSet
90 343 m 2,0,1
 75 343 75 343 67 352.5 c 128,-1,2
 59 362 59 362 59 373 c 128,-1,3
 59 384 59 384 67 393.5 c 128,-1,4
 75 403 75 403 90 403 c 2,5,-1
 343 403 l 2,6,7
 358 403 358 403 365.5 393.5 c 128,-1,8
 373 384 373 384 373 373 c 128,-1,9
 373 362 373 362 365.5 352.5 c 128,-1,10
 358 343 358 343 343 343 c 2,11,-1
 90 343 l 2,0,1
90 154 m 2,12,13
 75 154 75 154 67 163 c 128,-1,14
 59 172 59 172 59 183.5 c 128,-1,15
 59 195 59 195 67 204 c 128,-1,16
 75 213 75 213 90 213 c 2,17,-1
 343 213 l 2,18,19
 358 213 358 213 365.5 204 c 128,-1,20
 373 195 373 195 373 183.5 c 128,-1,21
 373 172 373 172 365.5 163 c 128,-1,22
 358 154 358 154 343 154 c 2,23,-1
 90 154 l 2,12,13
EndSplineSet
Validated: 1
EndChar

StartChar: greater
Encoding: 62 62 33
Width: 463
GlyphClass: 2
Flags: W
LayerCount: 2
Fore
SplineSet
109 59 m 2,0,1
 97 49 97 49 85 52 c 128,-1,2
 73 55 73 55 65.5 64 c 128,-1,3
 58 73 58 73 58.5 85 c 128,-1,4
 59 97 59 97 71 106 c 2,5,-1
 318 300 l 1,6,-1
 71 494 l 2,7,8
 59 503 59 503 58.5 515 c 128,-1,9
 58 527 58 527 65.5 536 c 128,-1,10
 73 545 73 545 85 548 c 128,-1,11
 97 551 97 551 109 541 c 2,12,-1
 387 324 l 2,13,14
 419 300 419 300 387 276 c 2,15,-1
 109 59 l 2,0,1
EndSplineSet
Validated: 33
EndChar

StartChar: question
Encoding: 63 63 34
Width: 434
GlyphClass: 2
Flags: W
LayerCount: 2
Fore
SplineSet
375 450 m 0,0,1
 375 408 375 408 362.5 378.5 c 128,-1,2
 350 349 350 349 330 326.5 c 128,-1,3
 310 304 310 304 285.5 285 c 128,-1,4
 261 266 261 266 238 244 c 0,5,6
 227 233 227 233 214.5 223 c 128,-1,7
 202 213 202 213 202 196 c 0,8,9
 202 181 202 181 192.5 173 c 128,-1,10
 183 165 183 165 171.5 165 c 128,-1,11
 160 165 160 165 150.5 173 c 128,-1,12
 141 181 141 181 141 196 c 0,13,14
 141 212 141 212 145 223.5 c 128,-1,15
 149 235 149 235 156 244 c 128,-1,16
 163 253 163 253 172 261.5 c 128,-1,17
 181 270 181 270 191 281 c 0,18,19
 209 301 209 301 230.5 316.5 c 128,-1,20
 252 332 252 332 270.5 350 c 128,-1,21
 289 368 289 368 301.5 391 c 128,-1,22
 314 414 314 414 314 450 c 0,23,24
 314 469 314 469 306 485.5 c 128,-1,25
 298 502 298 502 284.5 515 c 128,-1,26
 271 528 271 528 253 535 c 128,-1,27
 235 542 235 542 215 542 c 0,28,29
 177 541 177 541 152 515 c 128,-1,30
 127 489 127 489 122 450 c 0,31,32
 120 435 120 435 109.5 428.5 c 128,-1,33
 99 422 99 422 88 423 c 128,-1,34
 77 424 77 424 68.5 432 c 128,-1,35
 60 440 60 440 61 455 c 0,36,37
 69 521 69 521 110.5 561 c 128,-1,38
 152 601 152 601 215 602 c 0,39,40
 247 602 247 602 276 590 c 128,-1,41
 305 578 305 578 327 557.5 c 128,-1,42
 349 537 349 537 362 509 c 128,-1,43
 375 481 375 481 375 450 c 0,0,1
207 30 m 0,44,45
 207 15 207 15 197 5 c 128,-1,46
 187 -5 187 -5 172 -5 c 0,47,48
 156 -5 156 -5 146 5 c 128,-1,49
 136 15 136 15 136 30 c 0,50,51
 136 44 136 44 146 54.5 c 128,-1,52
 156 65 156 65 172 65 c 0,53,54
 187 65 187 65 197 54.5 c 128,-1,55
 207 44 207 44 207 30 c 0,44,45
EndSplineSet
Validated: 1
EndChar

StartChar: at
Encoding: 64 64 35
Width: 661
GlyphClass: 2
Flags: W
LayerCount: 2
Fore
SplineSet
602 342 m 0,0,1
 602 312 602 312 596 277 c 128,-1,2
 590 242 590 242 572 211.5 c 128,-1,3
 554 181 554 181 521.5 161 c 128,-1,4
 489 141 489 141 435 141 c 0,5,6
 413 141 413 141 402.5 144 c 128,-1,7
 392 147 392 147 383 153 c 1,8,9
 368 143 368 143 351.5 140 c 128,-1,10
 335 137 335 137 313 137 c 0,11,12
 282 137 282 137 259 149.5 c 128,-1,13
 236 162 236 162 220.5 182 c 128,-1,14
 205 202 205 202 197 227 c 128,-1,15
 189 252 189 252 189 277 c 0,16,17
 189 312 189 312 200.5 344.5 c 128,-1,18
 212 377 212 377 232 402.5 c 128,-1,19
 252 428 252 428 281 443.5 c 128,-1,20
 310 459 310 459 344 459 c 0,21,22
 375 459 375 459 400 443 c 1,23,-1
 400 444 l 2,24,25
 403 458 403 458 413.5 463 c 128,-1,26
 424 468 424 468 435.5 465.5 c 128,-1,27
 447 463 447 463 454.5 454 c 128,-1,28
 462 445 462 445 459 431 c 2,29,-1
 416 203 l 1,30,31
 422 200 422 200 435 200 c 0,32,33
 471 200 471 200 492.5 214.5 c 128,-1,34
 514 229 514 229 524.5 250.5 c 128,-1,35
 535 272 535 272 538 296.5 c 128,-1,36
 541 321 541 321 541 342 c 0,37,38
 541 383 541 383 524.5 420.5 c 128,-1,39
 508 458 508 458 480 486.5 c 128,-1,40
 452 515 452 515 414.5 531.5 c 128,-1,41
 377 548 377 548 335 548 c 0,42,43
 287 548 287 548 247.5 527.5 c 128,-1,44
 208 507 208 507 179.5 473 c 128,-1,45
 151 439 151 439 135.5 395 c 128,-1,46
 120 351 120 351 120 304 c 0,47,48
 120 256 120 256 137 211.5 c 128,-1,49
 154 167 154 167 184 133 c 128,-1,50
 214 99 214 99 255 78.5 c 128,-1,51
 296 58 296 58 344 58 c 0,52,53
 385 58 385 58 419.5 66 c 128,-1,54
 454 74 454 74 480 88 c 0,55,56
 493 95 493 95 504 90 c 128,-1,57
 515 85 515 85 520.5 74.5 c 128,-1,58
 526 64 526 64 523.5 52 c 128,-1,59
 521 40 521 40 507 34 c 0,60,61
 476 19 476 19 434.5 8.5 c 128,-1,62
 393 -2 393 -2 344 -2 c 0,63,64
 283 -2 283 -2 231 23 c 128,-1,65
 179 48 179 48 141 90.5 c 128,-1,66
 103 133 103 133 81.5 188.5 c 128,-1,67
 60 244 60 244 60 304 c 0,68,69
 60 363 60 363 80.5 418 c 128,-1,70
 101 473 101 473 137.5 515 c 128,-1,71
 174 557 174 557 224.5 582 c 128,-1,72
 275 607 275 607 335 607 c 0,73,74
 389 607 389 607 437.5 585.5 c 128,-1,75
 486 564 486 564 522.5 528 c 128,-1,76
 559 492 559 492 580.5 444 c 128,-1,77
 602 396 602 396 602 342 c 0,0,1
387 371 m 1,78,79
 386 373 386 373 385 373 c 128,-1,80
 384 373 384 373 383 375 c 0,81,82
 375 386 375 386 366.5 393 c 128,-1,83
 358 400 358 400 344 400 c 0,84,85
 323 400 323 400 305.5 390 c 128,-1,86
 288 380 288 380 275.5 364 c 128,-1,87
 263 348 263 348 256 327.5 c 128,-1,88
 249 307 249 307 249 286 c 0,89,90
 249 271 249 271 252 255.5 c 128,-1,91
 255 240 255 240 263 227 c 128,-1,92
 271 214 271 214 284 205.5 c 128,-1,93
 297 197 297 197 317 197 c 0,94,95
 328 197 328 197 337 199 c 128,-1,96
 346 201 346 201 355 206 c 1,97,-1
 387 371 l 1,98,-1
 387 371 l 1,78,79
EndSplineSet
Validated: 5
EndChar

StartChar: A
Encoding: 68 68 36
Width: 256
GlyphClass: 2
Flags: W
LayerCount: 2
Fore
SplineSet
210 250 m 256,0,1
 210 215 210 215 186.5 191.5 c 128,-1,2
 163 168 163 168 128 168 c 256,3,4
 93 168 93 168 69 191.5 c 128,-1,5
 45 215 45 215 45 250 c 256,6,7
 45 285 45 285 69 308.5 c 128,-1,8
 93 332 93 332 128 332 c 256,9,10
 163 332 163 332 186.5 308.5 c 128,-1,11
 210 285 210 285 210 250 c 256,0,1
EndSplineSet
Validated: 1
EndChar

StartChar: B
Encoding: 69 69 37
Width: 256
GlyphClass: 2
Flags: W
LayerCount: 2
Fore
SplineSet
210 250 m 256,0,1
 210 215 210 215 186.5 191.5 c 128,-1,2
 163 168 163 168 128 168 c 256,3,4
 93 168 93 168 69 191.5 c 128,-1,5
 45 215 45 215 45 250 c 256,6,7
 45 285 45 285 69 308.5 c 128,-1,8
 93 332 93 332 128 332 c 256,9,10
 163 332 163 332 186.5 308.5 c 128,-1,11
 210 285 210 285 210 250 c 256,0,1
EndSplineSet
Validated: 1
EndChar

StartChar: C
Encoding: 70 70 38
Width: 256
GlyphClass: 2
Flags: W
LayerCount: 2
Fore
SplineSet
210 250 m 256,0,1
 210 215 210 215 186.5 191.5 c 128,-1,2
 163 168 163 168 128 168 c 256,3,4
 93 168 93 168 69 191.5 c 128,-1,5
 45 215 45 215 45 250 c 256,6,7
 45 285 45 285 69 308.5 c 128,-1,8
 93 332 93 332 128 332 c 256,9,10
 163 332 163 332 186.5 308.5 c 128,-1,11
 210 285 210 285 210 250 c 256,0,1
EndSplineSet
Validated: 1
EndChar

StartChar: D
Encoding: 71 71 39
Width: 256
GlyphClass: 2
Flags: W
LayerCount: 2
Fore
SplineSet
210 250 m 256,0,1
 210 215 210 215 186.5 191.5 c 128,-1,2
 163 168 163 168 128 168 c 256,3,4
 93 168 93 168 69 191.5 c 128,-1,5
 45 215 45 215 45 250 c 256,6,7
 45 285 45 285 69 308.5 c 128,-1,8
 93 332 93 332 128 332 c 256,9,10
 163 332 163 332 186.5 308.5 c 128,-1,11
 210 285 210 285 210 250 c 256,0,1
EndSplineSet
Validated: 1
EndChar

StartChar: E
Encoding: 72 72 40
Width: 256
GlyphClass: 2
Flags: W
LayerCount: 2
Fore
SplineSet
210 250 m 256,0,1
 210 215 210 215 186.5 191.5 c 128,-1,2
 163 168 163 168 128 168 c 256,3,4
 93 168 93 168 69 191.5 c 128,-1,5
 45 215 45 215 45 250 c 256,6,7
 45 285 45 285 69 308.5 c 128,-1,8
 93 332 93 332 128 332 c 256,9,10
 163 332 163 332 186.5 308.5 c 128,-1,11
 210 285 210 285 210 250 c 256,0,1
EndSplineSet
Validated: 1
EndChar

StartChar: F
Encoding: 73 73 41
Width: 256
GlyphClass: 2
Flags: W
LayerCount: 2
Fore
SplineSet
210 250 m 256,0,1
 210 215 210 215 186.5 191.5 c 128,-1,2
 163 168 163 168 128 168 c 256,3,4
 93 168 93 168 69 191.5 c 128,-1,5
 45 215 45 215 45 250 c 256,6,7
 45 285 45 285 69 308.5 c 128,-1,8
 93 332 93 332 128 332 c 256,9,10
 163 332 163 332 186.5 308.5 c 128,-1,11
 210 285 210 285 210 250 c 256,0,1
EndSplineSet
Validated: 1
EndChar

StartChar: G
Encoding: 74 74 42
Width: 256
GlyphClass: 2
Flags: W
LayerCount: 2
Fore
SplineSet
210 250 m 256,0,1
 210 215 210 215 186.5 191.5 c 128,-1,2
 163 168 163 168 128 168 c 256,3,4
 93 168 93 168 69 191.5 c 128,-1,5
 45 215 45 215 45 250 c 256,6,7
 45 285 45 285 69 308.5 c 128,-1,8
 93 332 93 332 128 332 c 256,9,10
 163 332 163 332 186.5 308.5 c 128,-1,11
 210 285 210 285 210 250 c 256,0,1
EndSplineSet
Validated: 1
EndChar

StartChar: H
Encoding: 75 75 43
Width: 256
GlyphClass: 2
Flags: W
LayerCount: 2
Fore
SplineSet
210 250 m 256,0,1
 210 215 210 215 186.5 191.5 c 128,-1,2
 163 168 163 168 128 168 c 256,3,4
 93 168 93 168 69 191.5 c 128,-1,5
 45 215 45 215 45 250 c 256,6,7
 45 285 45 285 69 308.5 c 128,-1,8
 93 332 93 332 128 332 c 256,9,10
 163 332 163 332 186.5 308.5 c 128,-1,11
 210 285 210 285 210 250 c 256,0,1
EndSplineSet
Validated: 1
EndChar

StartChar: I
Encoding: 76 76 44
Width: 256
GlyphClass: 2
Flags: W
LayerCount: 2
Fore
SplineSet
210 250 m 256,0,1
 210 215 210 215 186.5 191.5 c 128,-1,2
 163 168 163 168 128 168 c 256,3,4
 93 168 93 168 69 191.5 c 128,-1,5
 45 215 45 215 45 250 c 256,6,7
 45 285 45 285 69 308.5 c 128,-1,8
 93 332 93 332 128 332 c 256,9,10
 163 332 163 332 186.5 308.5 c 128,-1,11
 210 285 210 285 210 250 c 256,0,1
EndSplineSet
Validated: 1
EndChar

StartChar: J
Encoding: 77 77 45
Width: 256
GlyphClass: 2
Flags: W
LayerCount: 2
Fore
SplineSet
210 250 m 256,0,1
 210 215 210 215 186.5 191.5 c 128,-1,2
 163 168 163 168 128 168 c 256,3,4
 93 168 93 168 69 191.5 c 128,-1,5
 45 215 45 215 45 250 c 256,6,7
 45 285 45 285 69 308.5 c 128,-1,8
 93 332 93 332 128 332 c 256,9,10
 163 332 163 332 186.5 308.5 c 128,-1,11
 210 285 210 285 210 250 c 256,0,1
EndSplineSet
Validated: 1
EndChar

StartChar: K
Encoding: 78 78 46
Width: 256
GlyphClass: 2
Flags: W
LayerCount: 2
Fore
SplineSet
210 250 m 256,0,1
 210 215 210 215 186.5 191.5 c 128,-1,2
 163 168 163 168 128 168 c 256,3,4
 93 168 93 168 69 191.5 c 128,-1,5
 45 215 45 215 45 250 c 256,6,7
 45 285 45 285 69 308.5 c 128,-1,8
 93 332 93 332 128 332 c 256,9,10
 163 332 163 332 186.5 308.5 c 128,-1,11
 210 285 210 285 210 250 c 256,0,1
EndSplineSet
Validated: 1
EndChar

StartChar: L
Encoding: 79 79 47
Width: 256
GlyphClass: 2
Flags: W
LayerCount: 2
Fore
SplineSet
210 250 m 256,0,1
 210 215 210 215 186.5 191.5 c 128,-1,2
 163 168 163 168 128 168 c 256,3,4
 93 168 93 168 69 191.5 c 128,-1,5
 45 215 45 215 45 250 c 256,6,7
 45 285 45 285 69 308.5 c 128,-1,8
 93 332 93 332 128 332 c 256,9,10
 163 332 163 332 186.5 308.5 c 128,-1,11
 210 285 210 285 210 250 c 256,0,1
EndSplineSet
Validated: 1
EndChar

StartChar: M
Encoding: 80 80 48
Width: 256
GlyphClass: 2
Flags: W
LayerCount: 2
Fore
SplineSet
210 250 m 256,0,1
 210 215 210 215 186.5 191.5 c 128,-1,2
 163 168 163 168 128 168 c 256,3,4
 93 168 93 168 69 191.5 c 128,-1,5
 45 215 45 215 45 250 c 256,6,7
 45 285 45 285 69 308.5 c 128,-1,8
 93 332 93 332 128 332 c 256,9,10
 163 332 163 332 186.5 308.5 c 128,-1,11
 210 285 210 285 210 250 c 256,0,1
EndSplineSet
Validated: 1
EndChar

StartChar: N
Encoding: 81 81 49
Width: 256
GlyphClass: 2
Flags: W
LayerCount: 2
Fore
SplineSet
210 250 m 256,0,1
 210 215 210 215 186.5 191.5 c 128,-1,2
 163 168 163 168 128 168 c 256,3,4
 93 168 93 168 69 191.5 c 128,-1,5
 45 215 45 215 45 250 c 256,6,7
 45 285 45 285 69 308.5 c 128,-1,8
 93 332 93 332 128 332 c 256,9,10
 163 332 163 332 186.5 308.5 c 128,-1,11
 210 285 210 285 210 250 c 256,0,1
EndSplineSet
Validated: 1
EndChar

StartChar: O
Encoding: 82 82 50
Width: 256
GlyphClass: 2
Flags: W
LayerCount: 2
Fore
SplineSet
210 250 m 256,0,1
 210 215 210 215 186.5 191.5 c 128,-1,2
 163 168 163 168 128 168 c 256,3,4
 93 168 93 168 69 191.5 c 128,-1,5
 45 215 45 215 45 250 c 256,6,7
 45 285 45 285 69 308.5 c 128,-1,8
 93 332 93 332 128 332 c 256,9,10
 163 332 163 332 186.5 308.5 c 128,-1,11
 210 285 210 285 210 250 c 256,0,1
EndSplineSet
Validated: 1
EndChar

StartChar: P
Encoding: 83 83 51
Width: 256
GlyphClass: 2
Flags: W
LayerCount: 2
Fore
SplineSet
210 250 m 256,0,1
 210 215 210 215 186.5 191.5 c 128,-1,2
 163 168 163 168 128 168 c 256,3,4
 93 168 93 168 69 191.5 c 128,-1,5
 45 215 45 215 45 250 c 256,6,7
 45 285 45 285 69 308.5 c 128,-1,8
 93 332 93 332 128 332 c 256,9,10
 163 332 163 332 186.5 308.5 c 128,-1,11
 210 285 210 285 210 250 c 256,0,1
EndSplineSet
Validated: 1
EndChar

StartChar: Q
Encoding: 84 84 52
Width: 256
GlyphClass: 2
Flags: W
LayerCount: 2
Fore
SplineSet
210 250 m 256,0,1
 210 215 210 215 186.5 191.5 c 128,-1,2
 163 168 163 168 128 168 c 256,3,4
 93 168 93 168 69 191.5 c 128,-1,5
 45 215 45 215 45 250 c 256,6,7
 45 285 45 285 69 308.5 c 128,-1,8
 93 332 93 332 128 332 c 256,9,10
 163 332 163 332 186.5 308.5 c 128,-1,11
 210 285 210 285 210 250 c 256,0,1
EndSplineSet
Validated: 1
EndChar

StartChar: R
Encoding: 85 85 53
Width: 256
GlyphClass: 2
Flags: W
LayerCount: 2
Fore
SplineSet
210 250 m 256,0,1
 210 215 210 215 186.5 191.5 c 128,-1,2
 163 168 163 168 128 168 c 256,3,4
 93 168 93 168 69 191.5 c 128,-1,5
 45 215 45 215 45 250 c 256,6,7
 45 285 45 285 69 308.5 c 128,-1,8
 93 332 93 332 128 332 c 256,9,10
 163 332 163 332 186.5 308.5 c 128,-1,11
 210 285 210 285 210 250 c 256,0,1
EndSplineSet
Validated: 1
EndChar

StartChar: S
Encoding: 86 86 54
Width: 256
GlyphClass: 2
Flags: W
LayerCount: 2
Fore
SplineSet
210 250 m 256,0,1
 210 215 210 215 186.5 191.5 c 128,-1,2
 163 168 163 168 128 168 c 256,3,4
 93 168 93 168 69 191.5 c 128,-1,5
 45 215 45 215 45 250 c 256,6,7
 45 285 45 285 69 308.5 c 128,-1,8
 93 332 93 332 128 332 c 256,9,10
 163 332 163 332 186.5 308.5 c 128,-1,11
 210 285 210 285 210 250 c 256,0,1
EndSplineSet
Validated: 1
EndChar

StartChar: T
Encoding: 87 87 55
Width: 256
GlyphClass: 2
Flags: W
LayerCount: 2
Fore
SplineSet
210 250 m 256,0,1
 210 215 210 215 186.5 191.5 c 128,-1,2
 163 168 163 168 128 168 c 256,3,4
 93 168 93 168 69 191.5 c 128,-1,5
 45 215 45 215 45 250 c 256,6,7
 45 285 45 285 69 308.5 c 128,-1,8
 93 332 93 332 128 332 c 256,9,10
 163 332 163 332 186.5 308.5 c 128,-1,11
 210 285 210 285 210 250 c 256,0,1
EndSplineSet
Validated: 1
EndChar

StartChar: U
Encoding: 88 88 56
Width: 256
GlyphClass: 2
Flags: W
LayerCount: 2
Fore
SplineSet
210 250 m 256,0,1
 210 215 210 215 186.5 191.5 c 128,-1,2
 163 168 163 168 128 168 c 256,3,4
 93 168 93 168 69 191.5 c 128,-1,5
 45 215 45 215 45 250 c 256,6,7
 45 285 45 285 69 308.5 c 128,-1,8
 93 332 93 332 128 332 c 256,9,10
 163 332 163 332 186.5 308.5 c 128,-1,11
 210 285 210 285 210 250 c 256,0,1
EndSplineSet
Validated: 1
EndChar

StartChar: V
Encoding: 89 89 57
Width: 256
GlyphClass: 2
Flags: W
LayerCount: 2
Fore
SplineSet
210 250 m 256,0,1
 210 215 210 215 186.5 191.5 c 128,-1,2
 163 168 163 168 128 168 c 256,3,4
 93 168 93 168 69 191.5 c 128,-1,5
 45 215 45 215 45 250 c 256,6,7
 45 285 45 285 69 308.5 c 128,-1,8
 93 332 93 332 128 332 c 256,9,10
 163 332 163 332 186.5 308.5 c 128,-1,11
 210 285 210 285 210 250 c 256,0,1
EndSplineSet
Validated: 1
EndChar

StartChar: W
Encoding: 90 90 58
Width: 256
GlyphClass: 2
Flags: W
LayerCount: 2
Fore
SplineSet
210 250 m 256,0,1
 210 215 210 215 186.5 191.5 c 128,-1,2
 163 168 163 168 128 168 c 256,3,4
 93 168 93 168 69 191.5 c 128,-1,5
 45 215 45 215 45 250 c 256,6,7
 45 285 45 285 69 308.5 c 128,-1,8
 93 332 93 332 128 332 c 256,9,10
 163 332 163 332 186.5 308.5 c 128,-1,11
 210 285 210 285 210 250 c 256,0,1
EndSplineSet
Validated: 1
EndChar

StartChar: X
Encoding: 65539 -1 59
Width: 256
GlyphClass: 2
Flags: W
LayerCount: 2
Fore
SplineSet
210 250 m 256,0,1
 210 215 210 215 186.5 191.5 c 128,-1,2
 163 168 163 168 128 168 c 256,3,4
 93 168 93 168 69 191.5 c 128,-1,5
 45 215 45 215 45 250 c 256,6,7
 45 285 45 285 69 308.5 c 128,-1,8
 93 332 93 332 128 332 c 256,9,10
 163 332 163 332 186.5 308.5 c 128,-1,11
 210 285 210 285 210 250 c 256,0,1
EndSplineSet
Validated: 1
EndChar

StartChar: Y
Encoding: 65540 -1 60
Width: 256
GlyphClass: 2
Flags: W
LayerCount: 2
Fore
SplineSet
210 250 m 256,0,1
 210 215 210 215 186.5 191.5 c 128,-1,2
 163 168 163 168 128 168 c 256,3,4
 93 168 93 168 69 191.5 c 128,-1,5
 45 215 45 215 45 250 c 256,6,7
 45 285 45 285 69 308.5 c 128,-1,8
 93 332 93 332 128 332 c 256,9,10
 163 332 163 332 186.5 308.5 c 128,-1,11
 210 285 210 285 210 250 c 256,0,1
EndSplineSet
Validated: 1
EndChar

StartChar: Z
Encoding: 65541 -1 61
Width: 256
GlyphClass: 2
Flags: W
LayerCount: 2
Fore
SplineSet
210 250 m 256,0,1
 210 215 210 215 186.5 191.5 c 128,-1,2
 163 168 163 168 128 168 c 256,3,4
 93 168 93 168 69 191.5 c 128,-1,5
 45 215 45 215 45 250 c 256,6,7
 45 285 45 285 69 308.5 c 128,-1,8
 93 332 93 332 128 332 c 256,9,10
 163 332 163 332 186.5 308.5 c 128,-1,11
 210 285 210 285 210 250 c 256,0,1
EndSplineSet
Validated: 1
EndChar

StartChar: bracketleft
Encoding: 91 91 62
Width: 319
GlyphClass: 2
Flags: W
LayerCount: 2
Fore
SplineSet
90 -125 m 2,0,1
 60 -125 60 -125 60 -95 c 2,2,-1
 60 693 l 2,3,4
 60 724 60 724 90 724 c 2,5,-1
 226 724 l 2,6,7
 241 724 241 724 249 714.5 c 128,-1,8
 257 705 257 705 257 693.5 c 128,-1,9
 257 682 257 682 249 672.5 c 128,-1,10
 241 663 241 663 226 663 c 2,11,-1
 120 663 l 1,12,-1
 120 -65 l 1,13,-1
 226 -65 l 2,14,15
 241 -65 241 -65 249 -74.5 c 128,-1,16
 257 -84 257 -84 257 -95 c 128,-1,17
 257 -106 257 -106 249 -115.5 c 128,-1,18
 241 -125 241 -125 226 -125 c 2,19,-1
 90 -125 l 2,0,1
EndSplineSet
Validated: 1
EndChar

StartChar: backslash
Encoding: 92 92 63
Width: 425
GlyphClass: 2
Flags: W
LayerCount: 2
Fore
SplineSet
340 36 m 1,0,1
 345 22 345 22 339 11.5 c 128,-1,2
 333 1 333 1 322.5 -3.5 c 128,-1,3
 312 -8 312 -8 300.5 -4 c 128,-1,4
 289 0 289 0 283 14 c 2,5,-1
 73 561 l 2,6,7
 68 575 68 575 74 585.5 c 128,-1,8
 80 596 80 596 90.5 600.5 c 128,-1,9
 101 605 101 605 112.5 601 c 128,-1,10
 124 597 124 597 130 583 c 2,11,-1
 340 36 l 1,12,-1
 340 36 l 1,0,1
EndSplineSet
Validated: 5
EndChar

StartChar: bracketright
Encoding: 93 93 64
Width: 319
GlyphClass: 2
Flags: W
LayerCount: 2
Fore
SplineSet
257 -95 m 1,0,1
 257 -125 257 -125 227 -125 c 2,2,-1
 91 -125 l 2,3,4
 76 -125 76 -125 68 -115.5 c 128,-1,5
 60 -106 60 -106 60 -95 c 128,-1,6
 60 -84 60 -84 68 -74.5 c 128,-1,7
 76 -65 76 -65 91 -65 c 2,8,-1
 197 -65 l 1,9,-1
 197 663 l 1,10,-1
 91 663 l 2,11,12
 76 663 76 663 68 672.5 c 128,-1,13
 60 682 60 682 60 693.5 c 128,-1,14
 60 705 60 705 68 714.5 c 128,-1,15
 76 724 76 724 91 724 c 2,16,-1
 227 724 l 2,17,18
 257 724 257 724 257 693 c 2,19,-1
 257 -95 l 1,20,-1
 257 -95 l 1,0,1
EndSplineSet
Validated: 5
EndChar

StartChar: asciicircum
Encoding: 94 94 65
Width: 358
GlyphClass: 2
Flags: W
LayerCount: 2
Fore
SplineSet
291 458 m 1,0,1
 299 446 299 446 295 435 c 128,-1,2
 291 424 291 424 281.5 418 c 128,-1,3
 272 412 272 412 260 413 c 128,-1,4
 248 414 248 414 240 426 c 2,5,-1
 178 518 l 1,6,-1
 115 426 l 2,7,8
 107 414 107 414 94.5 413 c 128,-1,9
 82 412 82 412 72.5 418 c 128,-1,10
 63 424 63 424 59 435 c 128,-1,11
 55 446 55 446 64 458 c 2,12,-1
 152 588 l 2,13,14
 163 605 163 605 177.5 605 c 128,-1,15
 192 605 192 605 203 588 c 2,16,-1
 291 458 l 1,17,-1
 291 458 l 1,0,1
EndSplineSet
Validated: 5
EndChar

StartChar: underscore
Encoding: 95 95 66
Width: 505
GlyphClass: 2
Flags: W
LayerCount: 2
Fore
SplineSet
-1 -128 m 2,0,1
 -16 -128 -16 -128 -23.5 -119.5 c 128,-1,2
 -31 -111 -31 -111 -31 -101 c 128,-1,3
 -31 -91 -31 -91 -23.5 -82.5 c 128,-1,4
 -16 -74 -16 -74 -1 -74 c 2,5,-1
 503 -74 l 2,6,7
 518 -74 518 -74 525.5 -82.5 c 128,-1,8
 533 -91 533 -91 533 -101 c 128,-1,9
 533 -111 533 -111 525.5 -119.5 c 128,-1,10
 518 -128 518 -128 503 -128 c 2,11,-1
 -1 -128 l 2,0,1
EndSplineSet
Validated: 1
EndChar

StartChar: grave
Encoding: 96 96 67
Width: 298
GlyphClass: 2
Flags: W
LayerCount: 2
Fore
SplineSet
220 508 m 1,0,1
 234 501 234 501 236 489.5 c 128,-1,2
 238 478 238 478 232.5 468.5 c 128,-1,3
 227 459 227 459 216 454.5 c 128,-1,4
 205 450 205 450 192 457 c 2,5,-1
 75 516 l 2,6,7
 62 523 62 523 59.5 534 c 128,-1,8
 57 545 57 545 62.5 554.5 c 128,-1,9
 68 564 68 564 79 568.5 c 128,-1,10
 90 573 90 573 103 566 c 2,11,-1
 220 508 l 1,12,-1
 220 508 l 1,0,1
EndSplineSet
Validated: 5
EndChar

StartChar: a
Encoding: 100 100 68
Width: 256
GlyphClass: 2
Flags: W
LayerCount: 2
Fore
SplineSet
210 250 m 256,0,1
 210 215 210 215 186.5 191.5 c 128,-1,2
 163 168 163 168 128 168 c 256,3,4
 93 168 93 168 69 191.5 c 128,-1,5
 45 215 45 215 45 250 c 256,6,7
 45 285 45 285 69 308.5 c 128,-1,8
 93 332 93 332 128 332 c 256,9,10
 163 332 163 332 186.5 308.5 c 128,-1,11
 210 285 210 285 210 250 c 256,0,1
EndSplineSet
Validated: 1
EndChar

StartChar: b
Encoding: 101 101 69
Width: 256
GlyphClass: 2
Flags: W
LayerCount: 2
Fore
SplineSet
210 250 m 256,0,1
 210 215 210 215 186.5 191.5 c 128,-1,2
 163 168 163 168 128 168 c 256,3,4
 93 168 93 168 69 191.5 c 128,-1,5
 45 215 45 215 45 250 c 256,6,7
 45 285 45 285 69 308.5 c 128,-1,8
 93 332 93 332 128 332 c 256,9,10
 163 332 163 332 186.5 308.5 c 128,-1,11
 210 285 210 285 210 250 c 256,0,1
EndSplineSet
Validated: 1
EndChar

StartChar: c
Encoding: 102 102 70
Width: 256
GlyphClass: 2
Flags: W
LayerCount: 2
Fore
SplineSet
210 250 m 256,0,1
 210 215 210 215 186.5 191.5 c 128,-1,2
 163 168 163 168 128 168 c 256,3,4
 93 168 93 168 69 191.5 c 128,-1,5
 45 215 45 215 45 250 c 256,6,7
 45 285 45 285 69 308.5 c 128,-1,8
 93 332 93 332 128 332 c 256,9,10
 163 332 163 332 186.5 308.5 c 128,-1,11
 210 285 210 285 210 250 c 256,0,1
EndSplineSet
Validated: 1
EndChar

StartChar: d
Encoding: 103 103 71
Width: 256
GlyphClass: 2
Flags: W
LayerCount: 2
Fore
SplineSet
210 250 m 256,0,1
 210 215 210 215 186.5 191.5 c 128,-1,2
 163 168 163 168 128 168 c 256,3,4
 93 168 93 168 69 191.5 c 128,-1,5
 45 215 45 215 45 250 c 256,6,7
 45 285 45 285 69 308.5 c 128,-1,8
 93 332 93 332 128 332 c 256,9,10
 163 332 163 332 186.5 308.5 c 128,-1,11
 210 285 210 285 210 250 c 256,0,1
EndSplineSet
Validated: 1
EndChar

StartChar: e
Encoding: 104 104 72
Width: 256
GlyphClass: 2
Flags: W
LayerCount: 2
Fore
SplineSet
210 250 m 256,0,1
 210 215 210 215 186.5 191.5 c 128,-1,2
 163 168 163 168 128 168 c 256,3,4
 93 168 93 168 69 191.5 c 128,-1,5
 45 215 45 215 45 250 c 256,6,7
 45 285 45 285 69 308.5 c 128,-1,8
 93 332 93 332 128 332 c 256,9,10
 163 332 163 332 186.5 308.5 c 128,-1,11
 210 285 210 285 210 250 c 256,0,1
EndSplineSet
Validated: 1
EndChar

StartChar: f
Encoding: 105 105 73
Width: 256
GlyphClass: 2
Flags: W
LayerCount: 2
Fore
SplineSet
210 250 m 256,0,1
 210 215 210 215 186.5 191.5 c 128,-1,2
 163 168 163 168 128 168 c 256,3,4
 93 168 93 168 69 191.5 c 128,-1,5
 45 215 45 215 45 250 c 256,6,7
 45 285 45 285 69 308.5 c 128,-1,8
 93 332 93 332 128 332 c 256,9,10
 163 332 163 332 186.5 308.5 c 128,-1,11
 210 285 210 285 210 250 c 256,0,1
EndSplineSet
Validated: 1
EndChar

StartChar: g
Encoding: 106 106 74
Width: 256
GlyphClass: 2
Flags: W
LayerCount: 2
Fore
SplineSet
210 250 m 256,0,1
 210 215 210 215 186.5 191.5 c 128,-1,2
 163 168 163 168 128 168 c 256,3,4
 93 168 93 168 69 191.5 c 128,-1,5
 45 215 45 215 45 250 c 256,6,7
 45 285 45 285 69 308.5 c 128,-1,8
 93 332 93 332 128 332 c 256,9,10
 163 332 163 332 186.5 308.5 c 128,-1,11
 210 285 210 285 210 250 c 256,0,1
EndSplineSet
Validated: 1
EndChar

StartChar: h
Encoding: 107 107 75
Width: 256
GlyphClass: 2
Flags: W
LayerCount: 2
Fore
SplineSet
210 250 m 256,0,1
 210 215 210 215 186.5 191.5 c 128,-1,2
 163 168 163 168 128 168 c 256,3,4
 93 168 93 168 69 191.5 c 128,-1,5
 45 215 45 215 45 250 c 256,6,7
 45 285 45 285 69 308.5 c 128,-1,8
 93 332 93 332 128 332 c 256,9,10
 163 332 163 332 186.5 308.5 c 128,-1,11
 210 285 210 285 210 250 c 256,0,1
EndSplineSet
Validated: 1
EndChar

StartChar: i
Encoding: 108 108 76
Width: 256
GlyphClass: 2
Flags: W
LayerCount: 2
Fore
SplineSet
210 250 m 256,0,1
 210 215 210 215 186.5 191.5 c 128,-1,2
 163 168 163 168 128 168 c 256,3,4
 93 168 93 168 69 191.5 c 128,-1,5
 45 215 45 215 45 250 c 256,6,7
 45 285 45 285 69 308.5 c 128,-1,8
 93 332 93 332 128 332 c 256,9,10
 163 332 163 332 186.5 308.5 c 128,-1,11
 210 285 210 285 210 250 c 256,0,1
EndSplineSet
Validated: 1
EndChar

StartChar: j
Encoding: 109 109 77
Width: 256
GlyphClass: 2
Flags: W
LayerCount: 2
Fore
SplineSet
210 250 m 256,0,1
 210 215 210 215 186.5 191.5 c 128,-1,2
 163 168 163 168 128 168 c 256,3,4
 93 168 93 168 69 191.5 c 128,-1,5
 45 215 45 215 45 250 c 256,6,7
 45 285 45 285 69 308.5 c 128,-1,8
 93 332 93 332 128 332 c 256,9,10
 163 332 163 332 186.5 308.5 c 128,-1,11
 210 285 210 285 210 250 c 256,0,1
EndSplineSet
Validated: 1
EndChar

StartChar: k
Encoding: 110 110 78
Width: 256
GlyphClass: 2
Flags: W
LayerCount: 2
Fore
SplineSet
210 250 m 256,0,1
 210 215 210 215 186.5 191.5 c 128,-1,2
 163 168 163 168 128 168 c 256,3,4
 93 168 93 168 69 191.5 c 128,-1,5
 45 215 45 215 45 250 c 256,6,7
 45 285 45 285 69 308.5 c 128,-1,8
 93 332 93 332 128 332 c 256,9,10
 163 332 163 332 186.5 308.5 c 128,-1,11
 210 285 210 285 210 250 c 256,0,1
EndSplineSet
Validated: 1
EndChar

StartChar: l
Encoding: 111 111 79
Width: 256
GlyphClass: 2
Flags: W
LayerCount: 2
Fore
SplineSet
210 250 m 256,0,1
 210 215 210 215 186.5 191.5 c 128,-1,2
 163 168 163 168 128 168 c 256,3,4
 93 168 93 168 69 191.5 c 128,-1,5
 45 215 45 215 45 250 c 256,6,7
 45 285 45 285 69 308.5 c 128,-1,8
 93 332 93 332 128 332 c 256,9,10
 163 332 163 332 186.5 308.5 c 128,-1,11
 210 285 210 285 210 250 c 256,0,1
EndSplineSet
Validated: 1
EndChar

StartChar: m
Encoding: 112 112 80
Width: 256
GlyphClass: 2
Flags: W
LayerCount: 2
Fore
SplineSet
210 250 m 256,0,1
 210 215 210 215 186.5 191.5 c 128,-1,2
 163 168 163 168 128 168 c 256,3,4
 93 168 93 168 69 191.5 c 128,-1,5
 45 215 45 215 45 250 c 256,6,7
 45 285 45 285 69 308.5 c 128,-1,8
 93 332 93 332 128 332 c 256,9,10
 163 332 163 332 186.5 308.5 c 128,-1,11
 210 285 210 285 210 250 c 256,0,1
EndSplineSet
Validated: 1
EndChar

StartChar: n
Encoding: 113 113 81
Width: 256
GlyphClass: 2
Flags: W
LayerCount: 2
Fore
SplineSet
210 250 m 256,0,1
 210 215 210 215 186.5 191.5 c 128,-1,2
 163 168 163 168 128 168 c 256,3,4
 93 168 93 168 69 191.5 c 128,-1,5
 45 215 45 215 45 250 c 256,6,7
 45 285 45 285 69 308.5 c 128,-1,8
 93 332 93 332 128 332 c 256,9,10
 163 332 163 332 186.5 308.5 c 128,-1,11
 210 285 210 285 210 250 c 256,0,1
EndSplineSet
Validated: 1
EndChar

StartChar: o
Encoding: 114 114 82
Width: 256
GlyphClass: 2
Flags: W
LayerCount: 2
Fore
SplineSet
210 250 m 256,0,1
 210 215 210 215 186.5 191.5 c 128,-1,2
 163 168 163 168 128 168 c 256,3,4
 93 168 93 168 69 191.5 c 128,-1,5
 45 215 45 215 45 250 c 256,6,7
 45 285 45 285 69 308.5 c 128,-1,8
 93 332 93 332 128 332 c 256,9,10
 163 332 163 332 186.5 308.5 c 128,-1,11
 210 285 210 285 210 250 c 256,0,1
EndSplineSet
Validated: 1
EndChar

StartChar: p
Encoding: 115 115 83
Width: 256
GlyphClass: 2
Flags: W
LayerCount: 2
Fore
SplineSet
210 250 m 256,0,1
 210 215 210 215 186.5 191.5 c 128,-1,2
 163 168 163 168 128 168 c 256,3,4
 93 168 93 168 69 191.5 c 128,-1,5
 45 215 45 215 45 250 c 256,6,7
 45 285 45 285 69 308.5 c 128,-1,8
 93 332 93 332 128 332 c 256,9,10
 163 332 163 332 186.5 308.5 c 128,-1,11
 210 285 210 285 210 250 c 256,0,1
EndSplineSet
Validated: 1
EndChar

StartChar: q
Encoding: 116 116 84
Width: 256
GlyphClass: 2
Flags: W
LayerCount: 2
Fore
SplineSet
210 250 m 256,0,1
 210 215 210 215 186.5 191.5 c 128,-1,2
 163 168 163 168 128 168 c 256,3,4
 93 168 93 168 69 191.5 c 128,-1,5
 45 215 45 215 45 250 c 256,6,7
 45 285 45 285 69 308.5 c 128,-1,8
 93 332 93 332 128 332 c 256,9,10
 163 332 163 332 186.5 308.5 c 128,-1,11
 210 285 210 285 210 250 c 256,0,1
EndSplineSet
Validated: 1
EndChar

StartChar: r
Encoding: 117 117 85
Width: 256
GlyphClass: 2
Flags: W
LayerCount: 2
Fore
SplineSet
210 250 m 256,0,1
 210 215 210 215 186.5 191.5 c 128,-1,2
 163 168 163 168 128 168 c 256,3,4
 93 168 93 168 69 191.5 c 128,-1,5
 45 215 45 215 45 250 c 256,6,7
 45 285 45 285 69 308.5 c 128,-1,8
 93 332 93 332 128 332 c 256,9,10
 163 332 163 332 186.5 308.5 c 128,-1,11
 210 285 210 285 210 250 c 256,0,1
EndSplineSet
Validated: 1
EndChar

StartChar: s
Encoding: 118 118 86
Width: 256
GlyphClass: 2
Flags: W
LayerCount: 2
Fore
SplineSet
210 250 m 256,0,1
 210 215 210 215 186.5 191.5 c 128,-1,2
 163 168 163 168 128 168 c 256,3,4
 93 168 93 168 69 191.5 c 128,-1,5
 45 215 45 215 45 250 c 256,6,7
 45 285 45 285 69 308.5 c 128,-1,8
 93 332 93 332 128 332 c 256,9,10
 163 332 163 332 186.5 308.5 c 128,-1,11
 210 285 210 285 210 250 c 256,0,1
EndSplineSet
Validated: 1
EndChar

StartChar: t
Encoding: 119 119 87
Width: 256
GlyphClass: 2
Flags: W
LayerCount: 2
Fore
SplineSet
210 250 m 256,0,1
 210 215 210 215 186.5 191.5 c 128,-1,2
 163 168 163 168 128 168 c 256,3,4
 93 168 93 168 69 191.5 c 128,-1,5
 45 215 45 215 45 250 c 256,6,7
 45 285 45 285 69 308.5 c 128,-1,8
 93 332 93 332 128 332 c 256,9,10
 163 332 163 332 186.5 308.5 c 128,-1,11
 210 285 210 285 210 250 c 256,0,1
EndSplineSet
Validated: 1
EndChar

StartChar: u
Encoding: 120 120 88
Width: 256
GlyphClass: 2
Flags: W
LayerCount: 2
Fore
SplineSet
210 250 m 256,0,1
 210 215 210 215 186.5 191.5 c 128,-1,2
 163 168 163 168 128 168 c 256,3,4
 93 168 93 168 69 191.5 c 128,-1,5
 45 215 45 215 45 250 c 256,6,7
 45 285 45 285 69 308.5 c 128,-1,8
 93 332 93 332 128 332 c 256,9,10
 163 332 163 332 186.5 308.5 c 128,-1,11
 210 285 210 285 210 250 c 256,0,1
EndSplineSet
Validated: 1
EndChar

StartChar: v
Encoding: 121 121 89
Width: 256
GlyphClass: 2
Flags: W
LayerCount: 2
Fore
SplineSet
210 250 m 256,0,1
 210 215 210 215 186.5 191.5 c 128,-1,2
 163 168 163 168 128 168 c 256,3,4
 93 168 93 168 69 191.5 c 128,-1,5
 45 215 45 215 45 250 c 256,6,7
 45 285 45 285 69 308.5 c 128,-1,8
 93 332 93 332 128 332 c 256,9,10
 163 332 163 332 186.5 308.5 c 128,-1,11
 210 285 210 285 210 250 c 256,0,1
EndSplineSet
Validated: 1
EndChar

StartChar: w
Encoding: 122 122 90
Width: 256
GlyphClass: 2
Flags: W
LayerCount: 2
Fore
SplineSet
210 250 m 256,0,1
 210 215 210 215 186.5 191.5 c 128,-1,2
 163 168 163 168 128 168 c 256,3,4
 93 168 93 168 69 191.5 c 128,-1,5
 45 215 45 215 45 250 c 256,6,7
 45 285 45 285 69 308.5 c 128,-1,8
 93 332 93 332 128 332 c 256,9,10
 163 332 163 332 186.5 308.5 c 128,-1,11
 210 285 210 285 210 250 c 256,0,1
EndSplineSet
Validated: 1
EndChar

StartChar: x
Encoding: 65542 -1 91
Width: 256
GlyphClass: 2
Flags: W
LayerCount: 2
Fore
SplineSet
210 250 m 256,0,1
 210 215 210 215 186.5 191.5 c 128,-1,2
 163 168 163 168 128 168 c 256,3,4
 93 168 93 168 69 191.5 c 128,-1,5
 45 215 45 215 45 250 c 256,6,7
 45 285 45 285 69 308.5 c 128,-1,8
 93 332 93 332 128 332 c 256,9,10
 163 332 163 332 186.5 308.5 c 128,-1,11
 210 285 210 285 210 250 c 256,0,1
EndSplineSet
Validated: 1
EndChar

StartChar: y
Encoding: 65543 -1 92
Width: 256
GlyphClass: 2
Flags: W
LayerCount: 2
Fore
SplineSet
210 250 m 256,0,1
 210 215 210 215 186.5 191.5 c 128,-1,2
 163 168 163 168 128 168 c 256,3,4
 93 168 93 168 69 191.5 c 128,-1,5
 45 215 45 215 45 250 c 256,6,7
 45 285 45 285 69 308.5 c 128,-1,8
 93 332 93 332 128 332 c 256,9,10
 163 332 163 332 186.5 308.5 c 128,-1,11
 210 285 210 285 210 250 c 256,0,1
EndSplineSet
Validated: 1
EndChar

StartChar: z
Encoding: 65544 -1 93
Width: 256
GlyphClass: 2
Flags: W
LayerCount: 2
Fore
SplineSet
210 250 m 256,0,1
 210 215 210 215 186.5 191.5 c 128,-1,2
 163 168 163 168 128 168 c 256,3,4
 93 168 93 168 69 191.5 c 128,-1,5
 45 215 45 215 45 250 c 256,6,7
 45 285 45 285 69 308.5 c 128,-1,8
 93 332 93 332 128 332 c 256,9,10
 163 332 163 332 186.5 308.5 c 128,-1,11
 210 285 210 285 210 250 c 256,0,1
EndSplineSet
Validated: 1
EndChar

StartChar: braceleft
Encoding: 123 123 94
Width: 347
GlyphClass: 2
Flags: W
LayerCount: 2
Fore
SplineSet
256 60 m 256,0,1
 271 60 271 60 278.5 50 c 128,-1,2
 286 40 286 40 285 29 c 128,-1,3
 284 18 284 18 276 8.5 c 128,-1,4
 268 -1 268 -1 253 0 c 0,5,6
 228 2 228 2 203.5 6 c 128,-1,7
 179 10 179 10 159 24 c 128,-1,8
 139 38 139 38 126.5 66.5 c 128,-1,9
 114 95 114 95 114 144 c 2,10,-1
 114 240 l 2,11,12
 114 263 114 263 108 280 c 128,-1,13
 102 297 102 297 94 308 c 0,14,15
 85 321 85 321 74 330 c 0,16,17
 57 341 57 341 57 354.5 c 128,-1,18
 57 368 57 368 74 379 c 0,19,20
 85 388 85 388 94 401 c 0,21,22
 102 412 102 412 108 429 c 128,-1,23
 114 446 114 446 114 469 c 2,24,-1
 114 565 l 2,25,26
 114 615 114 615 126.5 643 c 128,-1,27
 139 671 139 671 159 685 c 128,-1,28
 179 699 179 699 203.5 703.5 c 128,-1,29
 228 708 228 708 253 709 c 0,30,31
 268 710 268 710 276 701 c 128,-1,32
 284 692 284 692 285 680.5 c 128,-1,33
 286 669 286 669 278.5 659.5 c 128,-1,34
 271 650 271 650 256 650 c 0,35,36
 242 649 242 649 227.5 646.5 c 128,-1,37
 213 644 213 644 201.5 636 c 128,-1,38
 190 628 190 628 182.5 611 c 128,-1,39
 175 594 175 594 175 565 c 2,40,-1
 175 469 l 2,41,42
 175 428 175 428 162 399.5 c 128,-1,43
 149 371 149 371 135 355 c 1,44,45
 149 338 149 338 162 310 c 128,-1,46
 175 282 175 282 175 240 c 2,47,-1
 175 144 l 2,48,49
 175 115 175 115 182 98 c 128,-1,50
 189 81 189 81 200.5 73 c 128,-1,51
 212 65 212 65 226.5 62.5 c 128,-1,52
 241 60 241 60 256 60 c 256,0,1
EndSplineSet
Validated: 1
EndChar

StartChar: bar
Encoding: 124 124 95
Width: 180
GlyphClass: 2
Flags: W
LayerCount: 2
Fore
SplineSet
120 -34 m 1,0,1
 120 -49 120 -49 110.5 -57 c 128,-1,2
 101 -65 101 -65 90 -65 c 128,-1,3
 79 -65 79 -65 69.5 -57 c 128,-1,4
 60 -49 60 -49 60 -34 c 2,5,-1
 60 702 l 2,6,7
 60 717 60 717 69.5 725 c 128,-1,8
 79 733 79 733 90 733 c 128,-1,9
 101 733 101 733 110.5 725 c 128,-1,10
 120 717 120 717 120 702 c 2,11,-1
 120 -34 l 1,12,-1
 120 -34 l 1,0,1
EndSplineSet
Validated: 5
EndChar

StartChar: braceright
Encoding: 125 125 96
Width: 347
GlyphClass: 2
Flags: W
LayerCount: 2
Fore
SplineSet
269 330 m 0,0,1
 258 321 258 321 249 308 c 0,2,3
 241 297 241 297 235 280 c 128,-1,4
 229 263 229 263 229 240 c 2,5,-1
 229 144 l 2,6,7
 229 95 229 95 216.5 66.5 c 128,-1,8
 204 38 204 38 184.5 24 c 128,-1,9
 165 10 165 10 140 6 c 128,-1,10
 115 2 115 2 91 0 c 0,11,12
 76 -1 76 -1 67.5 8.5 c 128,-1,13
 59 18 59 18 58.5 29 c 128,-1,14
 58 40 58 40 65 50 c 128,-1,15
 72 60 72 60 87 60 c 256,16,17
 102 60 102 60 116.5 62.5 c 128,-1,18
 131 65 131 65 142.5 73 c 128,-1,19
 154 81 154 81 161.5 98 c 128,-1,20
 169 115 169 115 169 144 c 2,21,-1
 169 240 l 2,22,23
 169 282 169 282 182 310 c 128,-1,24
 195 338 195 338 209 355 c 1,25,26
 195 371 195 371 182 399.5 c 128,-1,27
 169 428 169 428 169 469 c 2,28,-1
 169 565 l 2,29,30
 169 594 169 594 161.5 611 c 128,-1,31
 154 628 154 628 142 636 c 128,-1,32
 130 644 130 644 115.5 646.5 c 128,-1,33
 101 649 101 649 87 650 c 0,34,35
 72 650 72 650 65 659.5 c 128,-1,36
 58 669 58 669 58.5 680.5 c 128,-1,37
 59 692 59 692 67.5 701 c 128,-1,38
 76 710 76 710 91 709 c 0,39,40
 115 708 115 708 140 703.5 c 128,-1,41
 165 699 165 699 184.5 685 c 128,-1,42
 204 671 204 671 216.5 643 c 128,-1,43
 229 615 229 615 229 565 c 2,44,-1
 229 469 l 2,45,46
 229 446 229 446 235 429 c 128,-1,47
 241 412 241 412 249 401 c 0,48,49
 258 388 258 388 269 379 c 0,50,51
 286 368 286 368 286 354.5 c 128,-1,52
 286 341 286 341 269 330 c 0,0,1
EndSplineSet
Validated: 1
EndChar

StartChar: asciitilde
Encoding: 126 126 97
Width: 457
GlyphClass: 2
Flags: W
LayerCount: 2
Fore
SplineSet
397 287 m 0,0,1
 389 247 389 247 361 219.5 c 128,-1,2
 333 192 333 192 292 192 c 0,3,4
 255 192 255 192 239 203 c 128,-1,5
 223 214 223 214 214.5 227 c 128,-1,6
 206 240 206 240 198 251 c 128,-1,7
 190 262 190 262 170 262 c 0,8,9
 148 262 148 262 138 244.5 c 128,-1,10
 128 227 128 227 118 208 c 0,11,12
 111 195 111 195 99 193 c 128,-1,13
 87 191 87 191 76.5 196 c 128,-1,14
 66 201 66 201 61 211.5 c 128,-1,15
 56 222 56 222 63 235 c 0,16,17
 72 251 72 251 82.5 266.5 c 128,-1,18
 93 282 93 282 106 294 c 128,-1,19
 119 306 119 306 134.5 313 c 128,-1,20
 150 320 150 320 170 320 c 0,21,22
 193 320 193 320 207 314.5 c 128,-1,23
 221 309 221 309 230 301.5 c 128,-1,24
 239 294 239 294 244.5 284.5 c 128,-1,25
 250 275 250 275 256 267.5 c 128,-1,26
 262 260 262 260 270 254.5 c 128,-1,27
 278 249 278 249 292 249 c 0,28,29
 312 249 312 249 323 265 c 128,-1,30
 334 281 334 281 339 301 c 0,31,32
 342 315 342 315 353 320 c 128,-1,33
 364 325 364 325 375 322.5 c 128,-1,34
 386 320 386 320 393.5 310.5 c 128,-1,35
 401 301 401 301 397 287 c 0,0,1
EndSplineSet
Validated: 1
EndChar

StartChar: FL00A1h
Encoding: 161 161 99
Width: 180
GlyphClass: 2
Flags: W
LayerCount: 2
Fore
SplineSet
126 412 m 256,0,1
 126 397 126 397 115.5 387 c 128,-1,2
 105 377 105 377 90 377 c 256,3,4
 75 377 75 377 64.5 387 c 128,-1,5
 54 397 54 397 54 412 c 256,6,7
 54 427 54 427 64.5 437 c 128,-1,8
 75 447 75 447 90 447 c 256,9,10
 105 447 105 447 115.5 437 c 128,-1,11
 126 427 126 427 126 412 c 256,0,1
120 -132 m 1,12,13
 120 -147 120 -147 110.5 -154.5 c 128,-1,14
 101 -162 101 -162 90 -162 c 128,-1,15
 79 -162 79 -162 69.5 -154.5 c 128,-1,16
 60 -147 60 -147 60 -132 c 2,17,-1
 60 254 l 2,18,19
 60 269 60 269 69.5 276.5 c 128,-1,20
 79 284 79 284 90 284 c 128,-1,21
 101 284 101 284 110.5 276.5 c 128,-1,22
 120 269 120 269 120 254 c 2,23,-1
 120 -132 l 1,24,-1
 120 -132 l 1,12,13
EndSplineSet
Validated: 5
EndChar

StartChar: FL00A2h
Encoding: 162 162 100
Width: 494
GlyphClass: 2
Flags: W
LayerCount: 2
Fore
SplineSet
427 79 m 0,0,1
 413 56 413 56 398.5 40 c 128,-1,2
 384 24 384 24 365.5 14 c 128,-1,3
 347 4 347 4 323 -0.5 c 128,-1,4
 299 -5 299 -5 264 -5 c 0,5,6
 248 -5 248 -5 232 -2.5 c 128,-1,7
 216 0 216 0 201 5 c 1,8,-1
 173 -58 l 2,9,10
 167 -72 167 -72 155 -75.5 c 128,-1,11
 143 -79 143 -79 132.5 -74.5 c 128,-1,12
 122 -70 122 -70 116 -59 c 128,-1,13
 110 -48 110 -48 116 -34 c 2,14,-1
 146 34 l 1,15,16
 106 61 106 61 82 106 c 128,-1,17
 58 151 58 151 58 202 c 0,18,19
 58 243 58 243 72 280.5 c 128,-1,20
 86 318 86 318 111.5 347 c 128,-1,21
 137 376 137 376 172 393 c 128,-1,22
 207 410 207 410 248 410 c 0,23,24
 266 410 266 410 281 409 c 128,-1,25
 296 408 296 408 311 405 c 0,26,27
 313 407 313 407 317.5 417.5 c 128,-1,28
 322 428 322 428 327 441 c 0,29,30
 333 456 333 456 340 474 c 0,31,32
 346 488 346 488 358 491.5 c 128,-1,33
 370 495 370 495 380.5 490.5 c 128,-1,34
 391 486 391 486 396.5 475.5 c 128,-1,35
 402 465 402 465 396 451 c 2,36,-1
 367 383 l 1,37,38
 395 362 395 362 423 321 c 0,39,40
 431 308 431 308 427 296.5 c 128,-1,41
 423 285 423 285 413 279 c 128,-1,42
 403 273 403 273 391 274.5 c 128,-1,43
 379 276 379 276 371 288 c 0,44,45
 358 311 358 311 341 325 c 1,46,-1
 225 61 l 1,47,48
 245 56 245 56 264 56 c 0,49,50
 288 56 288 56 304.5 59 c 128,-1,51
 321 62 321 62 333.5 68.5 c 128,-1,52
 346 75 346 75 355.5 85.5 c 128,-1,53
 365 96 365 96 374 112 c 0,54,55
 382 125 382 125 394 126.5 c 128,-1,56
 406 128 406 128 416 122 c 128,-1,57
 426 116 426 116 430.5 104.5 c 128,-1,58
 435 93 435 93 427 79 c 0,0,1
285 349 m 1,59,60
 276 350 276 350 267 350 c 128,-1,61
 258 350 258 350 248 350 c 0,62,63
 219 350 219 350 195 337.5 c 128,-1,64
 171 325 171 325 154 304.5 c 128,-1,65
 137 284 137 284 127.5 257.5 c 128,-1,66
 118 231 118 231 118 202 c 0,67,68
 118 170 118 170 132.5 140 c 128,-1,69
 147 110 147 110 171 90 c 1,70,-1
 285 349 l 1,71,-1
 285 349 l 1,59,60
EndSplineSet
Validated: 5
EndChar

StartChar: sterling
Encoding: 163 163 101
Width: 455
GlyphClass: 2
Flags: W
LayerCount: 2
Fore
SplineSet
396 504 m 0,0,1
 402 491 402 491 396.5 480 c 128,-1,2
 391 469 391 469 380.5 464 c 128,-1,3
 370 459 370 459 358.5 462 c 128,-1,4
 347 465 347 465 340 478 c 0,5,6
 324 513 324 513 295 526.5 c 128,-1,7
 266 540 266 540 228 540 c 0,8,9
 211 540 211 540 194 535.5 c 128,-1,10
 177 531 177 531 163.5 522 c 128,-1,11
 150 513 150 513 141.5 500 c 128,-1,12
 133 487 133 487 133 471 c 0,13,14
 133 447 133 447 146 428 c 128,-1,15
 159 409 159 409 175.5 389.5 c 128,-1,16
 192 370 192 370 208 348 c 128,-1,17
 224 326 224 326 230 296 c 1,18,-1
 315 296 l 2,19,20
 330 296 330 296 338 286.5 c 128,-1,21
 346 277 346 277 346 266 c 128,-1,22
 346 255 346 255 338 245.5 c 128,-1,23
 330 236 330 236 315 236 c 2,24,-1
 231 236 l 1,25,26
 226 209 226 209 212.5 185.5 c 128,-1,27
 199 162 199 162 183.5 141 c 128,-1,28
 168 120 168 120 152.5 100 c 128,-1,29
 137 80 137 80 128 60 c 1,30,-1
 364 60 l 2,31,32
 379 60 379 60 387 50.5 c 128,-1,33
 395 41 395 41 395 30 c 128,-1,34
 395 19 395 19 387 9.5 c 128,-1,35
 379 0 379 0 364 0 c 2,36,-1
 90 0 l 2,37,38
 57 0 57 0 60 32 c 0,39,40
 62 59 62 59 79 87 c 128,-1,41
 96 115 96 115 115.5 141.5 c 128,-1,42
 135 168 135 168 152 192 c 128,-1,43
 169 216 169 216 170 236 c 1,44,-1
 97 236 l 2,45,46
 82 236 82 236 74.5 245.5 c 128,-1,47
 67 255 67 255 67 266 c 128,-1,48
 67 277 67 277 74.5 286.5 c 128,-1,49
 82 296 82 296 97 296 c 2,50,-1
 169 296 l 1,51,52
 163 322 163 322 147 340 c 128,-1,53
 131 358 131 358 114.5 376 c 128,-1,54
 98 394 98 394 85 416 c 128,-1,55
 72 438 72 438 72 471 c 0,56,57
 72 500 72 500 85 523.5 c 128,-1,58
 98 547 98 547 119.5 564 c 128,-1,59
 141 581 141 581 169.5 590.5 c 128,-1,60
 198 600 198 600 228 600 c 0,61,62
 285 600 285 600 328 577.5 c 128,-1,63
 371 555 371 555 396 504 c 0,0,1
EndSplineSet
Validated: 33
EndChar

StartChar: currency
Encoding: 164 164 102
Width: 460
GlyphClass: 2
Flags: W
LayerCount: 2
Fore
SplineSet
390 175 m 1,0,1
 401 165 401 165 399.5 153.5 c 128,-1,2
 398 142 398 142 390 134 c 128,-1,3
 382 126 382 126 370.5 125 c 128,-1,4
 359 124 359 124 348 134 c 2,5,-1
 302 180 l 1,6,7
 286 171 286 171 268 165.5 c 128,-1,8
 250 160 250 160 230 160 c 256,9,10
 210 160 210 160 192 165.5 c 128,-1,11
 174 171 174 171 158 180 c 1,12,-1
 112 134 l 2,13,14
 102 124 102 124 90 125 c 128,-1,15
 78 126 78 126 70 134 c 128,-1,16
 62 142 62 142 61 153.5 c 128,-1,17
 60 165 60 165 70 175 c 2,18,-1
 116 221 l 1,19,20
 107 237 107 237 101.5 254.5 c 128,-1,21
 96 272 96 272 96 292 c 256,22,23
 96 312 96 312 101.5 329.5 c 128,-1,24
 107 347 107 347 116 363 c 1,25,-1
 70 409 l 2,26,27
 60 419 60 419 61 430.5 c 128,-1,28
 62 442 62 442 70 450 c 128,-1,29
 78 458 78 458 90 459.5 c 128,-1,30
 102 461 102 461 112 450 c 2,31,-1
 158 404 l 1,32,33
 174 413 174 413 192 418.5 c 128,-1,34
 210 424 210 424 230 424 c 256,35,36
 250 424 250 424 268 418.5 c 128,-1,37
 286 413 286 413 302 404 c 1,38,-1
 348 450 l 2,39,40
 359 461 359 461 370.5 459.5 c 128,-1,41
 382 458 382 458 390 450 c 128,-1,42
 398 442 398 442 399.5 430.5 c 128,-1,43
 401 419 401 419 390 409 c 2,44,-1
 344 363 l 1,45,46
 353 347 353 347 358.5 329.5 c 128,-1,47
 364 312 364 312 364 292 c 256,48,49
 364 272 364 272 358.5 254.5 c 128,-1,50
 353 237 353 237 344 221 c 1,51,-1
 390 175 l 1,52,-1
 390 175 l 1,0,1
303 292 m 256,53,54
 303 321 303 321 281.5 342.5 c 128,-1,55
 260 364 260 364 230 364 c 256,56,57
 200 364 200 364 178.5 342.5 c 128,-1,58
 157 321 157 321 157 292 c 256,59,60
 157 263 157 263 178.5 241.5 c 128,-1,61
 200 220 200 220 230 220 c 256,62,63
 260 220 260 220 281.5 241.5 c 128,-1,64
 303 263 303 263 303 292 c 256,53,54
EndSplineSet
Validated: 5
EndChar

StartChar: yen
Encoding: 165 165 103
Width: 576
GlyphClass: 2
Flags: W
LayerCount: 2
Fore
SplineSet
324 289 m 1,0,-1
 415 289 l 2,1,2
 430 289 430 289 438 280 c 128,-1,3
 446 271 446 271 446 259.5 c 128,-1,4
 446 248 446 248 438 239 c 128,-1,5
 430 230 430 230 415 230 c 2,6,-1
 316 230 l 1,7,-1
 316 187 l 1,8,-1
 415 187 l 2,9,10
 430 187 430 187 438 177.5 c 128,-1,11
 446 168 446 168 446 157 c 128,-1,12
 446 146 446 146 438 136.5 c 128,-1,13
 430 127 430 127 415 127 c 2,14,-1
 316 127 l 1,15,-1
 316 21 l 2,16,17
 316 6 316 6 306.5 -1.5 c 128,-1,18
 297 -9 297 -9 286 -9 c 128,-1,19
 275 -9 275 -9 265.5 -1.5 c 128,-1,20
 256 6 256 6 256 21 c 2,21,-1
 256 127 l 1,22,-1
 163 127 l 2,23,24
 148 127 148 127 140 136.5 c 128,-1,25
 132 146 132 146 132 157 c 128,-1,26
 132 168 132 168 140 177.5 c 128,-1,27
 148 187 148 187 163 187 c 2,28,-1
 256 187 l 1,29,-1
 256 230 l 1,30,-1
 163 230 l 2,31,32
 148 230 148 230 140 239 c 128,-1,33
 132 248 132 248 132 259.5 c 128,-1,34
 132 271 132 271 140 280 c 128,-1,35
 148 289 148 289 163 289 c 2,36,-1
 248 289 l 1,37,-1
 65 558 l 2,38,39
 56 571 56 571 60 582.5 c 128,-1,40
 64 594 64 594 73.5 600.5 c 128,-1,41
 83 607 83 607 95 606 c 128,-1,42
 107 605 107 605 115 593 c 2,43,-1
 286 341 l 1,44,-1
 458 593 l 2,45,46
 466 605 466 605 478 606 c 128,-1,47
 490 607 490 607 499.5 600.5 c 128,-1,48
 509 594 509 594 512.5 582.5 c 128,-1,49
 516 571 516 571 507 558 c 2,50,-1
 324 289 l 1,0,-1
EndSplineSet
Validated: 1
EndChar

StartChar: brokenbar
Encoding: 166 166 104
Width: 180
GlyphClass: 2
Flags: W
LayerCount: 2
Fore
SplineSet
120 355 m 1,0,1
 120 340 120 340 110.5 333 c 128,-1,2
 101 326 101 326 90 326 c 128,-1,3
 79 326 79 326 69.5 333 c 128,-1,4
 60 340 60 340 60 355 c 2,5,-1
 60 615 l 2,6,7
 60 630 60 630 69.5 638 c 128,-1,8
 79 646 79 646 90 646 c 128,-1,9
 101 646 101 646 110.5 638 c 128,-1,10
 120 630 120 630 120 615 c 2,11,-1
 120 355 l 1,12,-1
 120 355 l 1,0,1
120 -48 m 1,13,14
 120 -63 120 -63 110.5 -70.5 c 128,-1,15
 101 -78 101 -78 90 -78 c 128,-1,16
 79 -78 79 -78 69.5 -70.5 c 128,-1,17
 60 -63 60 -63 60 -48 c 2,18,-1
 60 212 l 2,19,20
 60 227 60 227 69.5 234 c 128,-1,21
 79 241 79 241 90 241 c 128,-1,22
 101 241 101 241 110.5 234 c 128,-1,23
 120 227 120 227 120 212 c 2,24,-1
 120 -48 l 1,25,-1
 120 -48 l 1,13,14
EndSplineSet
Validated: 5
EndChar

StartChar: section
Encoding: 167 167 105
Width: 480
GlyphClass: 2
Flags: W
LayerCount: 2
Fore
SplineSet
420 193 m 0,0,1
 420 150 420 150 397 121.5 c 128,-1,2
 374 93 374 93 339 70 c 1,3,4
 358 53 358 53 369 33.5 c 128,-1,5
 380 14 380 14 380 -11 c 0,6,7
 380 -37 380 -37 367.5 -59 c 128,-1,8
 355 -81 355 -81 335 -97 c 128,-1,9
 315 -113 315 -113 288.5 -122 c 128,-1,10
 262 -131 262 -131 235 -131 c 0,11,12
 206 -131 206 -131 179 -122 c 128,-1,13
 152 -113 152 -113 132 -95.5 c 128,-1,14
 112 -78 112 -78 101 -51.5 c 128,-1,15
 90 -25 90 -25 92 11 c 0,16,17
 93 26 93 26 103 33 c 128,-1,18
 113 40 113 40 124.5 39 c 128,-1,19
 136 38 136 38 145 30 c 128,-1,20
 154 22 154 22 153 7 c 0,21,22
 151 -13 151 -13 157.5 -28 c 128,-1,23
 164 -43 164 -43 176 -52.5 c 128,-1,24
 188 -62 188 -62 203.5 -66.5 c 128,-1,25
 219 -71 219 -71 235 -71 c 0,26,27
 250 -71 250 -71 265 -67 c 128,-1,28
 280 -63 280 -63 292.5 -55.5 c 128,-1,29
 305 -48 305 -48 312.5 -36.5 c 128,-1,30
 320 -25 320 -25 320 -11 c 0,31,32
 320 11 320 11 306 27 c 128,-1,33
 292 43 292 43 271 56.5 c 128,-1,34
 250 70 250 70 224 83.5 c 128,-1,35
 198 97 198 97 174 115 c 0,36,37
 148 133 148 133 127 149 c 128,-1,38
 106 165 106 165 91.5 182.5 c 128,-1,39
 77 200 77 200 69 221.5 c 128,-1,40
 61 243 61 243 61 271 c 0,41,42
 61 314 61 314 85 342.5 c 128,-1,43
 109 371 109 371 142 393 c 1,44,45
 124 410 124 410 112.5 430 c 128,-1,46
 101 450 101 450 101 474 c 0,47,48
 101 500 101 500 113.5 522.5 c 128,-1,49
 126 545 126 545 146 561 c 128,-1,50
 166 577 166 577 192.5 586 c 128,-1,51
 219 595 219 595 246 595 c 0,52,53
 276 595 276 595 303 586 c 128,-1,54
 330 577 330 577 350 559.5 c 128,-1,55
 370 542 370 542 381 515.5 c 128,-1,56
 392 489 392 489 389 453 c 0,57,58
 388 438 388 438 378 431 c 128,-1,59
 368 424 368 424 357 424.5 c 128,-1,60
 346 425 346 425 337 433 c 128,-1,61
 328 441 328 441 329 456 c 0,62,63
 331 477 331 477 324 491.5 c 128,-1,64
 317 506 317 506 305.5 515.5 c 128,-1,65
 294 525 294 525 278.5 529.5 c 128,-1,66
 263 534 263 534 246 534 c 0,67,68
 231 534 231 534 216 530 c 128,-1,69
 201 526 201 526 189 518.5 c 128,-1,70
 177 511 177 511 169.5 499.5 c 128,-1,71
 162 488 162 488 162 474 c 0,72,73
 162 456 162 456 176 440.5 c 128,-1,74
 190 425 190 425 212 410 c 128,-1,75
 234 395 234 395 259.5 380 c 128,-1,76
 285 365 285 365 307 348 c 0,77,78
 333 330 333 330 354 314.5 c 128,-1,79
 375 299 375 299 389.5 281 c 128,-1,80
 404 263 404 263 412 242 c 128,-1,81
 420 221 420 221 420 193 c 0,0,1
360 193 m 0,82,83
 360 213 360 213 353 227 c 128,-1,84
 346 241 346 241 334 253 c 128,-1,85
 322 265 322 265 306 276.5 c 128,-1,86
 290 288 290 288 272 301 c 0,87,88
 252 315 252 315 231.5 328 c 128,-1,89
 211 341 211 341 192 353 c 1,90,91
 179 345 179 345 166.5 337 c 128,-1,92
 154 329 154 329 144 319.5 c 128,-1,93
 134 310 134 310 128 298 c 128,-1,94
 122 286 122 286 122 271 c 0,95,96
 122 251 122 251 128.5 236.5 c 128,-1,97
 135 222 135 222 147 210 c 128,-1,98
 159 198 159 198 175 187 c 128,-1,99
 191 176 191 176 209 163 c 0,100,101
 229 149 229 149 249 136 c 128,-1,102
 269 123 269 123 288 110 c 1,103,104
 302 118 302 118 314.5 126 c 128,-1,105
 327 134 327 134 337.5 143.5 c 128,-1,106
 348 153 348 153 354 165 c 128,-1,107
 360 177 360 177 360 193 c 0,82,83
EndSplineSet
Validated: 33
EndChar

StartChar: dieresis
Encoding: 168 168 106
Width: 352
GlyphClass: 2
Flags: W
LayerCount: 2
Fore
SplineSet
293 493 m 256,0,1
 293 477 293 477 281 466 c 128,-1,2
 269 455 269 455 252 455 c 256,3,4
 235 455 235 455 222.5 466 c 128,-1,5
 210 477 210 477 210 493 c 256,6,7
 210 509 210 509 222.5 520 c 128,-1,8
 235 531 235 531 252 531 c 256,9,10
 269 531 269 531 281 520 c 128,-1,11
 293 509 293 509 293 493 c 256,0,1
141 493 m 256,12,13
 141 477 141 477 129 466 c 128,-1,14
 117 455 117 455 100 455 c 256,15,16
 83 455 83 455 71 466 c 128,-1,17
 59 477 59 477 59 493 c 256,18,19
 59 509 59 509 71 520 c 128,-1,20
 83 531 83 531 100 531 c 256,21,22
 117 531 117 531 129 520 c 128,-1,23
 141 509 141 509 141 493 c 256,12,13
EndSplineSet
Validated: 1
EndChar

StartChar: copyright
Encoding: 169 169 107
Width: 724
GlyphClass: 2
Flags: W
LayerCount: 2
Fore
SplineSet
667 302 m 256,0,1
 667 239 667 239 643.5 184 c 128,-1,2
 620 129 620 129 578.5 88 c 128,-1,3
 537 47 537 47 481.5 23.5 c 128,-1,4
 426 0 426 0 363 0 c 0,5,6
 299 0 299 0 243.5 23.5 c 128,-1,7
 188 47 188 47 147 88 c 128,-1,8
 106 129 106 129 82 184 c 128,-1,9
 58 239 58 239 58 302 c 256,10,11
 58 365 58 365 82 420 c 128,-1,12
 106 475 106 475 147 516 c 128,-1,13
 188 557 188 557 243.5 580.5 c 128,-1,14
 299 604 299 604 363 604 c 0,15,16
 426 604 426 604 481.5 580.5 c 128,-1,17
 537 557 537 557 578.5 516 c 128,-1,18
 620 475 620 475 643.5 420 c 128,-1,19
 667 365 667 365 667 302 c 256,0,1
607 302 m 256,20,21
 607 352 607 352 587.5 396 c 128,-1,22
 568 440 568 440 535 473 c 128,-1,23
 502 506 502 506 457.5 525 c 128,-1,24
 413 544 413 544 363 544 c 0,25,26
 312 544 312 544 267.5 525 c 128,-1,27
 223 506 223 506 190 473 c 128,-1,28
 157 440 157 440 137.5 396 c 128,-1,29
 118 352 118 352 118 302 c 256,30,31
 118 252 118 252 137.5 208 c 128,-1,32
 157 164 157 164 190 131 c 128,-1,33
 223 98 223 98 267.5 79 c 128,-1,34
 312 60 312 60 363 60 c 0,35,36
 413 60 413 60 457.5 79 c 128,-1,37
 502 98 502 98 535 131 c 128,-1,38
 568 164 568 164 587.5 208 c 128,-1,39
 607 252 607 252 607 302 c 256,20,21
501 202 m 0,40,41
 481 160 481 160 446 143 c 128,-1,42
 411 126 411 126 366 126 c 0,43,44
 330 126 330 126 298.5 140 c 128,-1,45
 267 154 267 154 243.5 177.5 c 128,-1,46
 220 201 220 201 206.5 232.5 c 128,-1,47
 193 264 193 264 193 300 c 0,48,49
 193 335 193 335 206 365.5 c 128,-1,50
 219 396 219 396 242 419.5 c 128,-1,51
 265 443 265 443 295.5 456.5 c 128,-1,52
 326 470 326 470 361 470 c 0,53,54
 407 470 407 470 444.5 450.5 c 128,-1,55
 482 431 482 431 498 390 c 0,56,57
 503 376 503 376 497 365.5 c 128,-1,58
 491 355 491 355 480.5 350.5 c 128,-1,59
 470 346 470 346 458.5 350 c 128,-1,60
 447 354 447 354 441 368 c 0,61,62
 433 392 433 392 410 401.5 c 128,-1,63
 387 411 387 411 361 411 c 0,64,65
 339 411 339 411 319 402 c 128,-1,66
 299 393 299 393 285 377.5 c 128,-1,67
 271 362 271 362 262.5 342 c 128,-1,68
 254 322 254 322 254 300 c 0,69,70
 254 277 254 277 263 256 c 128,-1,71
 272 235 272 235 287 219.5 c 128,-1,72
 302 204 302 204 322.5 195 c 128,-1,73
 343 186 343 186 366 186 c 0,74,75
 392 186 392 186 413.5 194 c 128,-1,76
 435 202 435 202 446 226 c 0,77,78
 452 239 452 239 464 242 c 128,-1,79
 476 245 476 245 486 240.5 c 128,-1,80
 496 236 496 236 501.5 226 c 128,-1,81
 507 216 507 216 501 202 c 0,40,41
EndSplineSet
Validated: 1
EndChar

StartChar: ordfeminine
Encoding: 170 170 108
Width: 392
GlyphClass: 2
Flags: W
LayerCount: 2
Fore
SplineSet
261 333 m 2,0,1
 239 333 239 333 232 351 c 1,2,3
 203 331 203 331 167 331 c 0,4,5
 146 331 146 331 126.5 338 c 128,-1,6
 107 345 107 345 92.5 357 c 128,-1,7
 78 369 78 369 69 386 c 128,-1,8
 60 403 60 403 60 424 c 256,9,10
 60 445 60 445 69.5 462 c 128,-1,11
 79 479 79 479 94 491 c 128,-1,12
 109 503 109 503 129 510 c 128,-1,13
 149 517 149 517 170 517 c 0,14,15
 186 517 186 517 200.5 516 c 128,-1,16
 215 515 215 515 229 512 c 1,17,18
 223 545 223 545 193 545 c 0,19,20
 171 545 171 545 155.5 540 c 128,-1,21
 140 535 140 535 120 524 c 0,22,23
 107 517 107 517 95.5 521.5 c 128,-1,24
 84 526 84 526 78.5 536 c 128,-1,25
 73 546 73 546 75.5 557.5 c 128,-1,26
 78 569 78 569 91 576 c 0,27,28
 117 591 117 591 139 598 c 128,-1,29
 161 605 161 605 193 605 c 0,30,31
 235 605 235 605 263 578 c 128,-1,32
 291 551 291 551 291 500 c 2,33,-1
 291 393 l 1,34,-1
 300 393 l 2,35,36
 315 393 315 393 322.5 383.5 c 128,-1,37
 330 374 330 374 330 363 c 128,-1,38
 330 352 330 352 322.5 342.5 c 128,-1,39
 315 333 315 333 300 333 c 2,40,-1
 261 333 l 2,0,1
91 241 m 2,41,42
 76 241 76 241 68 250 c 128,-1,43
 60 259 60 259 60 270.5 c 128,-1,44
 60 282 60 282 68 291 c 128,-1,45
 76 300 76 300 91 300 c 2,46,-1
 287 300 l 2,47,48
 302 300 302 300 309.5 291 c 128,-1,49
 317 282 317 282 317 270.5 c 128,-1,50
 317 259 317 259 309.5 250 c 128,-1,51
 302 241 302 241 287 241 c 2,52,-1
 91 241 l 2,41,42
230 451 m 1,53,54
 203 458 203 458 170 458 c 0,55,56
 153 458 153 458 136.5 449.5 c 128,-1,57
 120 441 120 441 120 424 c 256,58,59
 120 407 120 407 135 398.5 c 128,-1,60
 150 390 150 390 167 390 c 0,61,62
 189 390 189 390 203 403 c 128,-1,63
 217 416 217 416 229 430 c 0,64,65
 229 431 229 431 230 431 c 2,66,-1
 230 451 l 1,53,54
EndSplineSet
Validated: 1
EndChar

StartChar: guillemotleft
Encoding: 171 171 109
Width: 485
GlyphClass: 2
Flags: W
LayerCount: 2
Fore
SplineSet
414 44 m 1,0,1
 425 34 425 34 423 22 c 128,-1,2
 421 10 421 10 413 2 c 128,-1,3
 405 -6 405 -6 393 -7 c 128,-1,4
 381 -8 381 -8 370 3 c 2,5,-1
 247 127 l 2,6,7
 226 148 226 148 247 169 c 2,8,-1
 370 294 l 2,9,10
 381 305 381 305 393 304 c 128,-1,11
 405 303 405 303 413 295.5 c 128,-1,12
 421 288 421 288 423 276 c 128,-1,13
 425 264 425 264 414 253 c 2,14,-1
 311 148 l 1,15,-1
 414 44 l 1,16,-1
 414 44 l 1,0,1
235 44 m 1,17,18
 246 34 246 34 244.5 22 c 128,-1,19
 243 10 243 10 235 2 c 128,-1,20
 227 -6 227 -6 214.5 -7 c 128,-1,21
 202 -8 202 -8 191 3 c 2,22,-1
 69 127 l 2,23,24
 48 148 48 148 69 169 c 2,25,-1
 191 294 l 2,26,27
 202 305 202 305 214.5 304 c 128,-1,28
 227 303 227 303 235 295.5 c 128,-1,29
 243 288 243 288 244.5 276 c 128,-1,30
 246 264 246 264 235 253 c 2,31,-1
 133 148 l 1,32,-1
 235 44 l 1,33,-1
 235 44 l 1,17,18
EndSplineSet
Validated: 37
EndChar

StartChar: logicalnot
Encoding: 172 172 110
Width: 514
GlyphClass: 2
Flags: W
LayerCount: 2
Fore
SplineSet
455 29 m 1,0,1
 455 14 455 14 445.5 7 c 128,-1,2
 436 0 436 0 424.5 0 c 128,-1,3
 413 0 413 0 403.5 7 c 128,-1,4
 394 14 394 14 394 29 c 2,5,-1
 394 149 l 1,6,-1
 88 149 l 2,7,8
 73 149 73 149 65.5 158 c 128,-1,9
 58 167 58 167 58 178 c 128,-1,10
 58 189 58 189 65.5 198 c 128,-1,11
 73 207 73 207 88 207 c 2,12,-1
 424 207 l 2,13,14
 455 207 455 207 455 178 c 2,15,-1
 455 29 l 1,16,-1
 455 29 l 1,0,1
EndSplineSet
Validated: 5
EndChar

StartChar: minus
Encoding: 173 173 111
Width: 483
GlyphClass: 2
Flags: W
LayerCount: 2
Fore
SplineSet
90 215 m 2,0,1
 75 215 75 215 67 223.5 c 128,-1,2
 59 232 59 232 59 242.5 c 128,-1,3
 59 253 59 253 67 261.5 c 128,-1,4
 75 270 75 270 90 270 c 2,5,-1
 392 270 l 2,6,7
 407 270 407 270 414.5 261.5 c 128,-1,8
 422 253 422 253 422 242.5 c 128,-1,9
 422 232 422 232 414.5 223.5 c 128,-1,10
 407 215 407 215 392 215 c 2,11,-1
 90 215 l 2,0,1
EndSplineSet
Validated: 1
EndChar

StartChar: registered
Encoding: 174 174 112
Width: 730
GlyphClass: 2
Flags: W
LayerCount: 2
Fore
SplineSet
670 302 m 256,0,1
 670 239 670 239 646.5 184 c 128,-1,2
 623 129 623 129 581.5 88 c 128,-1,3
 540 47 540 47 484.5 23.5 c 128,-1,4
 429 0 429 0 365 0 c 0,5,6
 302 0 302 0 246 23.5 c 128,-1,7
 190 47 190 47 149 88 c 128,-1,8
 108 129 108 129 84 184 c 128,-1,9
 60 239 60 239 60 302 c 256,10,11
 60 365 60 365 84 420 c 128,-1,12
 108 475 108 475 149 516 c 128,-1,13
 190 557 190 557 246 580.5 c 128,-1,14
 302 604 302 604 365 604 c 0,15,16
 429 604 429 604 484.5 580.5 c 128,-1,17
 540 557 540 557 581.5 516 c 128,-1,18
 623 475 623 475 646.5 420 c 128,-1,19
 670 365 670 365 670 302 c 256,0,1
610 302 m 256,20,21
 610 352 610 352 590.5 396 c 128,-1,22
 571 440 571 440 538 473 c 128,-1,23
 505 506 505 506 460.5 525 c 128,-1,24
 416 544 416 544 365 544 c 0,25,26
 315 544 315 544 270.5 525 c 128,-1,27
 226 506 226 506 193 473 c 128,-1,28
 160 440 160 440 140.5 396 c 128,-1,29
 121 352 121 352 121 302 c 256,30,31
 121 252 121 252 140.5 208 c 128,-1,32
 160 164 160 164 193 131 c 128,-1,33
 226 98 226 98 270.5 79 c 128,-1,34
 315 60 315 60 365 60 c 0,35,36
 416 60 416 60 460.5 79 c 128,-1,37
 505 98 505 98 538 131 c 128,-1,38
 571 164 571 164 590.5 208 c 128,-1,39
 610 252 610 252 610 302 c 256,20,21
510 370 m 0,40,41
 510 352 510 352 503.5 335 c 128,-1,42
 497 318 497 318 485.5 304 c 128,-1,43
 474 290 474 290 458 280 c 128,-1,44
 442 270 442 270 423 266 c 1,45,46
 423 268 423 268 436 251.5 c 128,-1,47
 449 235 449 235 465 215 c 2,48,-1
 507 161 l 2,49,50
 516 149 516 149 512.5 137.5 c 128,-1,51
 509 126 509 126 500 119.5 c 128,-1,52
 491 113 491 113 479 114 c 128,-1,53
 467 115 467 115 458 127 c 2,54,-1
 359 265 l 2,55,56
 359 266 359 266 358.5 266.5 c 128,-1,57
 358 267 358 267 358 265 c 2,58,-1
 306 265 l 1,59,-1
 306 151 l 2,60,61
 306 136 306 136 296.5 128.5 c 128,-1,62
 287 121 287 121 276 121 c 128,-1,63
 265 121 265 121 255.5 128.5 c 128,-1,64
 246 136 246 136 246 151 c 2,65,-1
 246 444 l 2,66,67
 246 474 246 474 276 474 c 2,68,-1
 406 474 l 2,69,70
 451 474 451 474 480.5 444 c 128,-1,71
 510 414 510 414 510 370 c 0,40,41
450 370 m 256,72,73
 450 387 450 387 437 400.5 c 128,-1,74
 424 414 424 414 406 414 c 2,75,-1
 306 414 l 1,76,-1
 306 326 l 1,77,-1
 405 326 l 2,78,79
 424 326 424 326 437 339.5 c 128,-1,80
 450 353 450 353 450 370 c 256,72,73
EndSplineSet
Validated: 5
EndChar

StartChar: macron
Encoding: 175 175 113
Width: 483
GlyphClass: 2
Flags: W
LayerCount: 2
Fore
SplineSet
90 454 m 2,0,1
 75 454 75 454 67 462.5 c 128,-1,2
 59 471 59 471 59 481 c 128,-1,3
 59 491 59 491 67 499.5 c 128,-1,4
 75 508 75 508 90 508 c 2,5,-1
 392 508 l 2,6,7
 407 508 407 508 414.5 499.5 c 128,-1,8
 422 491 422 491 422 481 c 128,-1,9
 422 471 422 471 414.5 462.5 c 128,-1,10
 407 454 407 454 392 454 c 2,11,-1
 90 454 l 2,0,1
EndSplineSet
Validated: 1
EndChar

StartChar: degree
Encoding: 176 176 114
Width: 393
GlyphClass: 2
Flags: W
LayerCount: 2
Fore
SplineSet
334 467 m 256,0,1
 334 439 334 439 323.5 415 c 128,-1,2
 313 391 313 391 294 373 c 128,-1,3
 275 355 275 355 250 344.5 c 128,-1,4
 225 334 225 334 196 334 c 0,5,6
 168 334 168 334 143 344.5 c 128,-1,7
 118 355 118 355 99 373 c 128,-1,8
 80 391 80 391 69.5 415 c 128,-1,9
 59 439 59 439 59 467 c 256,10,11
 59 495 59 495 69.5 519.5 c 128,-1,12
 80 544 80 544 99 562.5 c 128,-1,13
 118 581 118 581 143 591.5 c 128,-1,14
 168 602 168 602 196 602 c 0,15,16
 225 602 225 602 250 591.5 c 128,-1,17
 275 581 275 581 294 562.5 c 128,-1,18
 313 544 313 544 323.5 519.5 c 128,-1,19
 334 495 334 495 334 467 c 256,0,1
273 467 m 0,20,21
 273 498 273 498 250.5 520 c 128,-1,22
 228 542 228 542 196 542 c 0,23,24
 165 542 165 542 142 520 c 128,-1,25
 119 498 119 498 119 467 c 0,26,27
 119 437 119 437 142 415 c 128,-1,28
 165 393 165 393 196 393 c 0,29,30
 228 393 228 393 250.5 415 c 128,-1,31
 273 437 273 437 273 467 c 0,20,21
EndSplineSet
Validated: 1
EndChar

StartChar: plusminus
Encoding: 177 177 115
Width: 505
GlyphClass: 2
Flags: W
LayerCount: 2
Fore
SplineSet
282 272 m 1,0,-1
 282 142 l 2,1,2
 282 127 282 127 272.5 120 c 128,-1,3
 263 113 263 113 251.5 113 c 128,-1,4
 240 113 240 113 230.5 120 c 128,-1,5
 221 127 221 127 221 142 c 2,6,-1
 221 272 l 1,7,-1
 89 272 l 2,8,9
 74 272 74 272 66.5 281.5 c 128,-1,10
 59 291 59 291 59 302 c 128,-1,11
 59 313 59 313 66.5 322.5 c 128,-1,12
 74 332 74 332 89 332 c 2,13,-1
 221 332 l 1,14,-1
 221 462 l 2,15,16
 221 477 221 477 230.5 485 c 128,-1,17
 240 493 240 493 251.5 493 c 128,-1,18
 263 493 263 493 272.5 485 c 128,-1,19
 282 477 282 477 282 462 c 2,20,-1
 282 332 l 1,21,-1
 413 332 l 2,22,23
 428 332 428 332 436 322.5 c 128,-1,24
 444 313 444 313 444 302 c 128,-1,25
 444 291 444 291 436 281.5 c 128,-1,26
 428 272 428 272 413 272 c 2,27,-1
 282 272 l 1,0,-1
104 0 m 2,28,29
 89 0 89 0 81.5 9.5 c 128,-1,30
 74 19 74 19 74 30 c 128,-1,31
 74 41 74 41 81.5 50.5 c 128,-1,32
 89 60 89 60 104 60 c 2,33,-1
 406 60 l 2,34,35
 421 60 421 60 429 50.5 c 128,-1,36
 437 41 437 41 437 30 c 128,-1,37
 437 19 437 19 429 9.5 c 128,-1,38
 421 0 421 0 406 0 c 2,39,-1
 104 0 l 2,28,29
EndSplineSet
Validated: 1
EndChar

StartChar: twosuperior
Encoding: 178 178 116
Width: 366
GlyphClass: 2
Flags: W
LayerCount: 2
Fore
SplineSet
306 519 m 0,0,1
 306 492 306 492 293 472 c 128,-1,2
 280 452 280 452 260.5 436 c 128,-1,3
 241 420 241 420 218.5 405.5 c 128,-1,4
 196 391 196 391 178 374 c 0,5,6
 158 352 158 352 148.5 332 c 128,-1,7
 139 312 139 312 131 289 c 1,8,-1
 273 289 l 2,9,10
 288 289 288 289 296 279.5 c 128,-1,11
 304 270 304 270 304 259 c 128,-1,12
 304 248 304 248 296 238.5 c 128,-1,13
 288 229 288 229 273 229 c 2,14,-1
 90 229 l 2,15,16
 49 229 49 229 61 268 c 0,17,18
 69 291 69 291 75 310.5 c 128,-1,19
 81 330 81 330 88.5 347.5 c 128,-1,20
 96 365 96 365 107 381.5 c 128,-1,21
 118 398 118 398 136 415 c 0,22,23
 150 429 150 429 169 439 c 128,-1,24
 188 449 188 449 205 459.5 c 128,-1,25
 222 470 222 470 234 484 c 128,-1,26
 246 498 246 498 246 519 c 0,27,28
 246 536 246 536 230 545.5 c 128,-1,29
 214 555 214 555 196 555 c 0,30,31
 172 555 172 555 153 545 c 128,-1,32
 134 535 134 535 128 513 c 0,33,34
 124 498 124 498 112.5 493.5 c 128,-1,35
 101 489 101 489 90 492.5 c 128,-1,36
 79 496 79 496 72.5 506 c 128,-1,37
 66 516 66 516 70 530 c 0,38,39
 84 572 84 572 117.5 593.5 c 128,-1,40
 151 615 151 615 196 615 c 0,41,42
 218 615 218 615 238 607.5 c 128,-1,43
 258 600 258 600 273 587.5 c 128,-1,44
 288 575 288 575 297 557.5 c 128,-1,45
 306 540 306 540 306 519 c 0,0,1
EndSplineSet
Validated: 33
EndChar

StartChar: threesuperior
Encoding: 179 179 117
Width: 380
GlyphClass: 2
Flags: W
LayerCount: 2
Fore
SplineSet
320 369 m 0,0,1
 320 341 320 341 310.5 315 c 128,-1,2
 301 289 301 289 283.5 268.5 c 128,-1,3
 266 248 266 248 242.5 236 c 128,-1,4
 219 224 219 224 190 224 c 0,5,6
 139 224 139 224 104 251 c 128,-1,7
 69 278 69 278 59 326 c 0,8,9
 56 341 56 341 63 350.5 c 128,-1,10
 70 360 70 360 81 362 c 128,-1,11
 92 364 92 364 103 359 c 128,-1,12
 114 354 114 354 117 339 c 0,13,14
 124 313 124 313 143.5 298 c 128,-1,15
 163 283 163 283 190 283 c 0,16,17
 206 283 206 283 219 290.5 c 128,-1,18
 232 298 232 298 241 310 c 128,-1,19
 250 322 250 322 255 337.5 c 128,-1,20
 260 353 260 353 260 369 c 0,21,22
 260 405 260 405 233.5 426 c 128,-1,23
 207 447 207 447 162 447 c 0,24,25
 137 447 137 447 130 462.5 c 128,-1,26
 123 478 123 478 140 496 c 2,27,-1
 189 550 l 1,28,-1
 104 550 l 2,29,30
 89 550 89 550 81.5 559.5 c 128,-1,31
 74 569 74 569 74 580 c 128,-1,32
 74 591 74 591 81.5 600.5 c 128,-1,33
 89 610 89 610 104 610 c 2,34,-1
 258 610 l 2,35,36
 283 610 283 610 290 594 c 128,-1,37
 297 578 297 578 280 561 c 2,38,-1
 222 499 l 1,39,40
 271 485 271 485 295.5 451 c 128,-1,41
 320 417 320 417 320 369 c 0,0,1
EndSplineSet
Validated: 33
EndChar

StartChar: FL00B4h
Encoding: 180 180 118
Width: 300
GlyphClass: 2
Flags: W
LayerCount: 2
Fore
SplineSet
104 457 m 2,0,1
 91 450 91 450 80 454.5 c 128,-1,2
 69 459 69 459 63.5 468.5 c 128,-1,3
 58 478 58 478 60.5 489.5 c 128,-1,4
 63 501 63 501 76 508 c 2,5,-1
 193 566 l 2,6,7
 206 573 206 573 217 568.5 c 128,-1,8
 228 564 228 564 233.5 554.5 c 128,-1,9
 239 545 239 545 237 534 c 128,-1,10
 235 523 235 523 221 516 c 2,11,-1
 104 457 l 2,0,1
EndSplineSet
Validated: 1
EndChar

StartChar: mu1
Encoding: 181 181 119
Width: 449
GlyphClass: 2
Flags: W
LayerCount: 2
Fore
SplineSet
389 145 m 1,0,1
 389 110 389 110 376.5 82 c 128,-1,2
 364 54 364 54 343 34 c 128,-1,3
 322 14 322 14 293.5 3.5 c 128,-1,4
 265 -7 265 -7 233 -7 c 0,5,6
 196 -7 196 -7 166.5 6.5 c 128,-1,7
 137 20 137 20 114 43 c 1,8,9
 114 43 114 43 114 33 c 128,-1,10
 114 23 114 23 114.5 6.5 c 128,-1,11
 115 -10 115 -10 115.5 -31.5 c 128,-1,12
 116 -53 116 -53 117 -75 c 0,13,14
 119 -127 119 -127 120 -194 c 0,15,16
 120 -209 120 -209 110.5 -217 c 128,-1,17
 101 -225 101 -225 90 -225 c 128,-1,18
 79 -225 79 -225 69.5 -217 c 128,-1,19
 60 -209 60 -209 60 -194 c 2,20,-1
 60 379 l 2,21,22
 60 394 60 394 69.5 401.5 c 128,-1,23
 79 409 79 409 90 409 c 128,-1,24
 101 409 101 409 110.5 401.5 c 128,-1,25
 120 394 120 394 120 379 c 2,26,-1
 120 130 l 1,27,28
 139 100 139 100 169.5 76 c 128,-1,29
 200 52 200 52 233 52 c 0,30,31
 272 52 272 52 300.5 77 c 128,-1,32
 329 102 329 102 329 145 c 2,33,-1
 329 382 l 2,34,35
 329 397 329 397 338.5 405 c 128,-1,36
 348 413 348 413 359 413 c 128,-1,37
 370 413 370 413 379.5 405 c 128,-1,38
 389 397 389 397 389 382 c 2,39,-1
 389 145 l 1,40,-1
 389 145 l 1,0,1
EndSplineSet
Validated: 5
EndChar

StartChar: paragraph
Encoding: 182 182 120
Width: 476
GlyphClass: 2
Flags: W
LayerCount: 2
Fore
SplineSet
416 22 m 1,0,1
 416 7 416 7 406.5 -0.5 c 128,-1,2
 397 -8 397 -8 386 -8 c 128,-1,3
 375 -8 375 -8 365.5 -0.5 c 128,-1,4
 356 7 356 7 356 22 c 2,5,-1
 356 290 l 1,6,-1
 311 290 l 1,7,-1
 311 22 l 2,8,9
 311 7 311 7 301.5 -0.5 c 128,-1,10
 292 -8 292 -8 280.5 -8 c 128,-1,11
 269 -8 269 -8 259.5 -0.5 c 128,-1,12
 250 7 250 7 250 22 c 2,13,-1
 250 290 l 1,14,-1
 210 290 l 2,15,16
 167 290 167 290 138 302.5 c 128,-1,17
 109 315 109 315 91.5 336 c 128,-1,18
 74 357 74 357 67 385 c 128,-1,19
 60 413 60 413 60 444 c 0,20,21
 60 476 60 476 68.5 504.5 c 128,-1,22
 77 533 77 533 95 555 c 128,-1,23
 113 577 113 577 141 589.5 c 128,-1,24
 169 602 169 602 208 602 c 2,25,-1
 416 602 l 1,26,-1
 416 22 l 1,27,-1
 416 22 l 1,0,1
356 542 m 1,28,-1
 311 542 l 1,29,-1
 311 349 l 1,30,-1
 356 349 l 1,31,-1
 356 542 l 1,28,-1
250 542 m 1,32,-1
 208 542 l 2,33,34
 184 542 184 542 167.5 533.5 c 128,-1,35
 151 525 151 525 140.5 511.5 c 128,-1,36
 130 498 130 498 125 480.5 c 128,-1,37
 120 463 120 463 120 444 c 256,38,39
 120 425 120 425 124 408 c 128,-1,40
 128 391 128 391 138.5 378 c 128,-1,41
 149 365 149 365 166.5 357 c 128,-1,42
 184 349 184 349 210 349 c 2,43,-1
 250 349 l 1,44,-1
 250 542 l 1,32,-1
EndSplineSet
Validated: 5
EndChar

StartChar: FL00B7h
Encoding: 183 183 121
Width: 380
GlyphClass: 2
Flags: W
LayerCount: 2
Fore
SplineSet
234 215 m 0,0,1
 234 196 234 196 219.5 182.5 c 128,-1,2
 205 169 205 169 184 169 c 0,3,4
 164 169 164 169 149.5 182.5 c 128,-1,5
 135 196 135 196 135 215 c 0,6,7
 135 235 135 235 149.5 248.5 c 128,-1,8
 164 262 164 262 184 262 c 0,9,10
 205 262 205 262 219.5 248.5 c 128,-1,11
 234 235 234 235 234 215 c 0,0,1
EndSplineSet
Validated: 1
EndChar

StartChar: FL00B8h
Encoding: 184 184 122
Width: 332
GlyphClass: 2
Flags: W
LayerCount: 2
Fore
SplineSet
273 -117 m 0,0,1
 273 -137 273 -137 264 -153 c 128,-1,2
 255 -169 255 -169 240 -179.5 c 128,-1,3
 225 -190 225 -190 206 -195.5 c 128,-1,4
 187 -201 187 -201 167 -201 c 0,5,6
 129 -201 129 -201 102 -181.5 c 128,-1,7
 75 -162 75 -162 62 -127 c 0,8,9
 57 -113 57 -113 64 -103 c 128,-1,10
 71 -93 71 -93 82.5 -89.5 c 128,-1,11
 94 -86 94 -86 105.5 -90 c 128,-1,12
 117 -94 117 -94 121 -109 c 0,13,14
 130 -141 130 -141 167 -141 c 0,15,16
 182 -141 182 -141 197 -136.5 c 128,-1,17
 212 -132 212 -132 212 -117 c 0,18,19
 212 -100 212 -100 202 -90 c 128,-1,20
 192 -80 192 -80 178 -80 c 0,21,22
 148 -80 148 -80 148 -51 c 2,23,-1
 148 20 l 2,24,25
 148 35 148 35 157.5 42 c 128,-1,26
 167 49 167 49 178 49 c 128,-1,27
 189 49 189 49 198.5 42 c 128,-1,28
 208 35 208 35 208 20 c 2,29,-1
 208 -25 l 1,30,31
 237 -33 237 -33 255 -56 c 128,-1,32
 273 -79 273 -79 273 -117 c 0,0,1
EndSplineSet
Validated: 1
EndChar

StartChar: FL00B9h
Encoding: 185 185 123
Width: 180
GlyphClass: 2
Flags: W
LayerCount: 2
Fore
SplineSet
120 257 m 1,0,1
 120 242 120 242 110.5 234 c 128,-1,2
 101 226 101 226 90 226 c 128,-1,3
 79 226 79 226 69.5 234 c 128,-1,4
 60 242 60 242 60 257 c 2,5,-1
 60 579 l 2,6,7
 60 594 60 594 69.5 601.5 c 128,-1,8
 79 609 79 609 90 609 c 128,-1,9
 101 609 101 609 110.5 601.5 c 128,-1,10
 120 594 120 594 120 579 c 2,11,-1
 120 257 l 1,12,-1
 120 257 l 1,0,1
EndSplineSet
Validated: 5
EndChar

StartChar: FL00BAh
Encoding: 186 186 124
Width: 396
GlyphClass: 2
Flags: W
LayerCount: 2
Fore
SplineSet
336 467 m 0,0,1
 336 439 336 439 325.5 414.5 c 128,-1,2
 315 390 315 390 296 371.5 c 128,-1,3
 277 353 277 353 252 342.5 c 128,-1,4
 227 332 227 332 198 332 c 256,5,6
 169 332 169 332 144 342.5 c 128,-1,7
 119 353 119 353 100 371.5 c 128,-1,8
 81 390 81 390 70.5 414.5 c 128,-1,9
 60 439 60 439 60 467 c 0,10,11
 60 496 60 496 70.5 521 c 128,-1,12
 81 546 81 546 100 564.5 c 128,-1,13
 119 583 119 583 144 593.5 c 128,-1,14
 169 604 169 604 198 604 c 256,15,16
 227 604 227 604 252 593.5 c 128,-1,17
 277 583 277 583 296 564.5 c 128,-1,18
 315 546 315 546 325.5 521 c 128,-1,19
 336 496 336 496 336 467 c 0,0,1
100 242 m 2,20,21
 85 242 85 242 77 251 c 128,-1,22
 69 260 69 260 69 271.5 c 128,-1,23
 69 283 69 283 77 292 c 128,-1,24
 85 301 85 301 100 301 c 2,25,-1
 305 301 l 2,26,27
 320 301 320 301 328 292 c 128,-1,28
 336 283 336 283 336 271.5 c 128,-1,29
 336 260 336 260 328 251 c 128,-1,30
 320 242 320 242 305 242 c 2,31,-1
 100 242 l 2,20,21
276 467 m 0,32,33
 276 499 276 499 253 521.5 c 128,-1,34
 230 544 230 544 198 544 c 256,35,36
 166 544 166 544 143 521.5 c 128,-1,37
 120 499 120 499 120 467 c 0,38,39
 120 452 120 452 126 438 c 128,-1,40
 132 424 132 424 142.5 413.5 c 128,-1,41
 153 403 153 403 167.5 397 c 128,-1,42
 182 391 182 391 198 391 c 256,43,44
 214 391 214 391 228.5 397 c 128,-1,45
 243 403 243 403 253.5 413.5 c 128,-1,46
 264 424 264 424 270 438 c 128,-1,47
 276 452 276 452 276 467 c 0,32,33
EndSplineSet
Validated: 1
EndChar

StartChar: guillemotright
Encoding: 187 187 125
Width: 485
GlyphClass: 2
Flags: W
LayerCount: 2
Fore
SplineSet
289 3 m 2,0,1
 279 -8 279 -8 266.5 -7 c 128,-1,2
 254 -6 254 -6 246 2 c 128,-1,3
 238 10 238 10 236.5 22 c 128,-1,4
 235 34 235 34 245 44 c 2,5,-1
 348 148 l 1,6,-1
 245 253 l 2,7,8
 235 264 235 264 236.5 276 c 128,-1,9
 238 288 238 288 246 295.5 c 128,-1,10
 254 303 254 303 266.5 304 c 128,-1,11
 279 305 279 305 289 294 c 2,12,-1
 412 169 l 2,13,14
 433 148 433 148 412 127 c 2,15,-1
 289 3 l 2,0,1
111 3 m 2,16,17
 100 -8 100 -8 88 -7 c 128,-1,18
 76 -6 76 -6 67.5 2 c 128,-1,19
 59 10 59 10 57.5 22 c 128,-1,20
 56 34 56 34 67 44 c 2,21,-1
 169 148 l 1,22,-1
 67 253 l 2,23,24
 56 264 56 264 57.5 276 c 128,-1,25
 59 288 59 288 67.5 295.5 c 128,-1,26
 76 303 76 303 88 304 c 128,-1,27
 100 305 100 305 111 294 c 2,28,-1
 234 169 l 2,29,30
 253 149 253 149 234 127 c 2,31,-1
 111 3 l 2,16,17
EndSplineSet
Validated: 33
EndChar

StartChar: FL00BCh
Encoding: 188 188 126
Width: 623
GlyphClass: 2
Flags: W
LayerCount: 2
Fore
SplineSet
506 43 m 1,0,-1
 506 21 l 2,1,2
 506 6 506 6 496.5 -1.5 c 128,-1,3
 487 -9 487 -9 476 -9 c 128,-1,4
 465 -9 465 -9 455.5 -1.5 c 128,-1,5
 446 6 446 6 446 21 c 2,6,-1
 446 43 l 1,7,-1
 302 43 l 2,8,9
 261 43 261 43 273 83 c 2,10,-1
 367 358 l 2,11,12
 372 372 372 372 383.5 376 c 128,-1,13
 395 380 395 380 405.5 376.5 c 128,-1,14
 416 373 416 373 422.5 363 c 128,-1,15
 429 353 429 353 424 339 c 2,16,-1
 343 103 l 1,17,-1
 446 103 l 1,18,-1
 446 165 l 2,19,20
 446 180 446 180 455.5 187.5 c 128,-1,21
 465 195 465 195 476 195 c 128,-1,22
 487 195 487 195 496.5 187.5 c 128,-1,23
 506 180 506 180 506 165 c 2,24,-1
 506 103 l 1,25,-1
 532 103 l 2,26,27
 547 103 547 103 554.5 93.5 c 128,-1,28
 562 84 562 84 562 73 c 128,-1,29
 562 62 562 62 554.5 52.5 c 128,-1,30
 547 43 547 43 532 43 c 2,31,-1
 506 43 l 1,0,-1
164 17 m 2,32,33
 158 3 158 3 146.5 -0.5 c 128,-1,34
 135 -4 135 -4 124.5 0 c 128,-1,35
 114 4 114 4 108 14.5 c 128,-1,36
 102 25 102 25 107 39 c 2,37,-1
 314 584 l 2,38,39
 320 598 320 598 331.5 602 c 128,-1,40
 343 606 343 606 353.5 601.5 c 128,-1,41
 364 597 364 597 370 586.5 c 128,-1,42
 376 576 376 576 371 562 c 2,43,-1
 164 17 l 2,32,33
120 236 m 1,44,45
 120 221 120 221 110.5 213.5 c 128,-1,46
 101 206 101 206 90 206 c 128,-1,47
 79 206 79 206 69.5 213.5 c 128,-1,48
 60 221 60 221 60 236 c 2,49,-1
 60 561 l 2,50,51
 60 576 60 576 69.5 583.5 c 128,-1,52
 79 591 79 591 90 591 c 128,-1,53
 101 591 101 591 110.5 583.5 c 128,-1,54
 120 576 120 576 120 561 c 2,55,-1
 120 236 l 1,56,-1
 120 236 l 1,44,45
EndSplineSet
Validated: 37
EndChar

StartChar: onehalf
Encoding: 189 189 127
Width: 600
GlyphClass: 2
Flags: W
LayerCount: 2
Fore
SplineSet
541 292 m 0,0,1
 541 264 541 264 528 244.5 c 128,-1,2
 515 225 515 225 495.5 208.5 c 128,-1,3
 476 192 476 192 453.5 177.5 c 128,-1,4
 431 163 431 163 413 145 c 0,5,6
 393 124 393 124 383.5 103.5 c 128,-1,7
 374 83 374 83 366 60 c 1,8,-1
 508 60 l 2,9,10
 523 60 523 60 530.5 50.5 c 128,-1,11
 538 41 538 41 538 30 c 128,-1,12
 538 19 538 19 530.5 9.5 c 128,-1,13
 523 0 523 0 508 0 c 2,14,-1
 324 0 l 2,15,16
 284 0 284 0 296 39 c 0,17,18
 304 62 304 62 309.5 81.5 c 128,-1,19
 315 101 315 101 323 119 c 128,-1,20
 331 137 331 137 342 153.5 c 128,-1,21
 353 170 353 170 371 187 c 0,22,23
 385 201 385 201 403.5 211.5 c 128,-1,24
 422 222 422 222 439 232.5 c 128,-1,25
 456 243 456 243 468 257 c 128,-1,26
 480 271 480 271 480 292 c 0,27,28
 480 309 480 309 464 318.5 c 128,-1,29
 448 328 448 328 431 328 c 0,30,31
 407 328 407 328 388.5 317.5 c 128,-1,32
 370 307 370 307 363 284 c 0,33,34
 359 270 359 270 347.5 265.5 c 128,-1,35
 336 261 336 261 325 264.5 c 128,-1,36
 314 268 314 268 307 278 c 128,-1,37
 300 288 300 288 304 303 c 0,38,39
 318 345 318 345 352 366 c 128,-1,40
 386 387 386 387 431 387 c 0,41,42
 453 387 453 387 473 380 c 128,-1,43
 493 373 493 373 508 360 c 128,-1,44
 523 347 523 347 532 330 c 128,-1,45
 541 313 541 313 541 292 c 0,0,1
164 17 m 2,46,47
 158 3 158 3 146.5 -0.5 c 128,-1,48
 135 -4 135 -4 124.5 0 c 128,-1,49
 114 4 114 4 108 14.5 c 128,-1,50
 102 25 102 25 107 39 c 2,51,-1
 314 584 l 2,52,53
 320 598 320 598 331.5 602 c 128,-1,54
 343 606 343 606 353.5 601.5 c 128,-1,55
 364 597 364 597 370 586.5 c 128,-1,56
 376 576 376 576 371 562 c 2,57,-1
 164 17 l 2,46,47
120 236 m 1,58,59
 120 221 120 221 110.5 213.5 c 128,-1,60
 101 206 101 206 90 206 c 128,-1,61
 79 206 79 206 69.5 213.5 c 128,-1,62
 60 221 60 221 60 236 c 2,63,-1
 60 561 l 2,64,65
 60 576 60 576 69.5 583.5 c 128,-1,66
 79 591 79 591 90 591 c 128,-1,67
 101 591 101 591 110.5 583.5 c 128,-1,68
 120 576 120 576 120 561 c 2,69,-1
 120 236 l 1,70,-1
 120 236 l 1,58,59
EndSplineSet
Validated: 37
EndChar

StartChar: FL00BEh
Encoding: 190 190 128
Width: 800
GlyphClass: 2
Flags: W
LayerCount: 2
Fore
SplineSet
683 43 m 1,0,-1
 683 21 l 2,1,2
 683 6 683 6 673.5 -1.5 c 128,-1,3
 664 -9 664 -9 652.5 -9 c 128,-1,4
 641 -9 641 -9 631.5 -1.5 c 128,-1,5
 622 6 622 6 622 21 c 2,6,-1
 622 43 l 1,7,-1
 478 43 l 2,8,9
 436 43 436 43 450 83 c 2,10,-1
 543 358 l 2,11,12
 548 372 548 372 559.5 376 c 128,-1,13
 571 380 571 380 581.5 376.5 c 128,-1,14
 592 373 592 373 598.5 363 c 128,-1,15
 605 353 605 353 600 339 c 2,16,-1
 519 103 l 1,17,-1
 622 103 l 1,18,-1
 622 165 l 2,19,20
 622 180 622 180 631.5 187.5 c 128,-1,21
 641 195 641 195 652.5 195 c 128,-1,22
 664 195 664 195 673.5 187.5 c 128,-1,23
 683 180 683 180 683 165 c 2,24,-1
 683 103 l 1,25,-1
 708 103 l 2,26,27
 723 103 723 103 730.5 93.5 c 128,-1,28
 738 84 738 84 738 73 c 128,-1,29
 738 62 738 62 730.5 52.5 c 128,-1,30
 723 43 723 43 708 43 c 2,31,-1
 683 43 l 1,0,-1
339 17 m 2,32,33
 333 3 333 3 322 -0.5 c 128,-1,34
 311 -4 311 -4 300.5 0 c 128,-1,35
 290 4 290 4 283.5 14.5 c 128,-1,36
 277 25 277 25 282 39 c 2,37,-1
 490 584 l 2,38,39
 495 598 495 598 506.5 602 c 128,-1,40
 518 606 518 606 528.5 601.5 c 128,-1,41
 539 597 539 597 545 586.5 c 128,-1,42
 551 576 551 576 546 562 c 2,43,-1
 339 17 l 2,32,33
321 356 m 0,44,45
 321 328 321 328 311.5 302 c 128,-1,46
 302 276 302 276 284.5 255.5 c 128,-1,47
 267 235 267 235 243.5 223 c 128,-1,48
 220 211 220 211 191 211 c 0,49,50
 140 211 140 211 105 238.5 c 128,-1,51
 70 266 70 266 60 314 c 0,52,53
 57 329 57 329 64 338 c 128,-1,54
 71 347 71 347 82 349.5 c 128,-1,55
 93 352 93 352 104 346.5 c 128,-1,56
 115 341 115 341 118 327 c 0,57,58
 124 301 124 301 143.5 285.5 c 128,-1,59
 163 270 163 270 191 270 c 0,60,61
 207 270 207 270 220 277.5 c 128,-1,62
 233 285 233 285 242 297 c 128,-1,63
 251 309 251 309 255.5 324.5 c 128,-1,64
 260 340 260 340 260 356 c 0,65,66
 260 393 260 393 234 414 c 128,-1,67
 208 435 208 435 163 435 c 0,68,69
 138 435 138 435 131 450 c 128,-1,70
 124 465 124 465 141 485 c 2,71,-1
 190 540 l 1,72,-1
 105 540 l 2,73,74
 90 540 90 540 82.5 549 c 128,-1,75
 75 558 75 558 75 569.5 c 128,-1,76
 75 581 75 581 82.5 590 c 128,-1,77
 90 599 90 599 105 599 c 2,78,-1
 259 599 l 2,79,80
 284 599 284 599 291 583 c 128,-1,81
 298 567 298 567 281 550 c 2,82,-1
 223 487 l 1,83,84
 271 473 271 473 296 439 c 128,-1,85
 321 405 321 405 321 356 c 0,44,45
EndSplineSet
Validated: 33
EndChar

StartChar: FL00BFh
Encoding: 191 191 129
Width: 432
GlyphClass: 2
Flags: W
LayerCount: 2
Fore
SplineSet
298 408 m 0,0,1
 298 394 298 394 288 383.5 c 128,-1,2
 278 373 278 373 263 373 c 0,3,4
 247 373 247 373 237 383.5 c 128,-1,5
 227 394 227 394 227 408 c 0,6,7
 227 423 227 423 237 433.5 c 128,-1,8
 247 444 247 444 263 444 c 0,9,10
 278 444 278 444 288 433.5 c 128,-1,11
 298 423 298 423 298 408 c 0,0,1
373 -17 m 0,12,13
 365 -83 365 -83 323.5 -123 c 128,-1,14
 282 -163 282 -163 219 -164 c 0,15,16
 187 -164 187 -164 158 -152 c 128,-1,17
 129 -140 129 -140 107.5 -119.5 c 128,-1,18
 86 -99 86 -99 73 -71 c 128,-1,19
 60 -43 60 -43 60 -12 c 0,20,21
 60 30 60 30 72.5 59.5 c 128,-1,22
 85 89 85 89 104.5 111.5 c 128,-1,23
 124 134 124 134 148.5 153.5 c 128,-1,24
 173 173 173 173 196 194 c 0,25,26
 207 205 207 205 219.5 215 c 128,-1,27
 232 225 232 225 232 243 c 0,28,29
 232 258 232 258 241.5 265.5 c 128,-1,30
 251 273 251 273 262.5 273 c 128,-1,31
 274 273 274 273 283.5 265.5 c 128,-1,32
 293 258 293 258 293 243 c 0,33,34
 293 227 293 227 289 215.5 c 128,-1,35
 285 204 285 204 278 194.5 c 128,-1,36
 271 185 271 185 262 176.5 c 128,-1,37
 253 168 253 168 243 157 c 0,38,39
 225 137 225 137 203.5 121.5 c 128,-1,40
 182 106 182 106 163.5 88 c 128,-1,41
 145 70 145 70 132.5 47 c 128,-1,42
 120 24 120 24 120 -12 c 0,43,44
 120 -30 120 -30 128 -47 c 128,-1,45
 136 -64 136 -64 149.5 -77 c 128,-1,46
 163 -90 163 -90 181 -97 c 128,-1,47
 199 -104 199 -104 219 -104 c 0,48,49
 257 -103 257 -103 282 -77 c 128,-1,50
 307 -51 307 -51 312 -12 c 0,51,52
 314 3 314 3 324.5 9.5 c 128,-1,53
 335 16 335 16 346.5 15 c 128,-1,54
 358 14 358 14 366.5 6 c 128,-1,55
 375 -2 375 -2 373 -17 c 0,12,13
EndSplineSet
Validated: 1
EndChar

StartChar: FL00C0h
Encoding: 192 192 130
Width: 256
GlyphClass: 2
Flags: W
LayerCount: 2
Fore
SplineSet
210 250 m 256,0,1
 210 215 210 215 186.5 191.5 c 128,-1,2
 163 168 163 168 128 168 c 256,3,4
 93 168 93 168 69 191.5 c 128,-1,5
 45 215 45 215 45 250 c 256,6,7
 45 285 45 285 69 308.5 c 128,-1,8
 93 332 93 332 128 332 c 256,9,10
 163 332 163 332 186.5 308.5 c 128,-1,11
 210 285 210 285 210 250 c 256,0,1
EndSplineSet
Validated: 1
EndChar

StartChar: FL00C1h
Encoding: 193 193 131
Width: 256
GlyphClass: 2
Flags: W
LayerCount: 2
Fore
SplineSet
210 250 m 256,0,1
 210 215 210 215 186.5 191.5 c 128,-1,2
 163 168 163 168 128 168 c 256,3,4
 93 168 93 168 69 191.5 c 128,-1,5
 45 215 45 215 45 250 c 256,6,7
 45 285 45 285 69 308.5 c 128,-1,8
 93 332 93 332 128 332 c 256,9,10
 163 332 163 332 186.5 308.5 c 128,-1,11
 210 285 210 285 210 250 c 256,0,1
EndSplineSet
Validated: 1
EndChar

StartChar: FL00C2h
Encoding: 194 194 132
Width: 256
GlyphClass: 2
Flags: W
LayerCount: 2
Fore
SplineSet
210 250 m 256,0,1
 210 215 210 215 186.5 191.5 c 128,-1,2
 163 168 163 168 128 168 c 256,3,4
 93 168 93 168 69 191.5 c 128,-1,5
 45 215 45 215 45 250 c 256,6,7
 45 285 45 285 69 308.5 c 128,-1,8
 93 332 93 332 128 332 c 256,9,10
 163 332 163 332 186.5 308.5 c 128,-1,11
 210 285 210 285 210 250 c 256,0,1
EndSplineSet
Validated: 1
EndChar

StartChar: FL00C3h
Encoding: 195 195 133
Width: 256
GlyphClass: 2
Flags: W
LayerCount: 2
Fore
SplineSet
210 250 m 256,0,1
 210 215 210 215 186.5 191.5 c 128,-1,2
 163 168 163 168 128 168 c 256,3,4
 93 168 93 168 69 191.5 c 128,-1,5
 45 215 45 215 45 250 c 256,6,7
 45 285 45 285 69 308.5 c 128,-1,8
 93 332 93 332 128 332 c 256,9,10
 163 332 163 332 186.5 308.5 c 128,-1,11
 210 285 210 285 210 250 c 256,0,1
EndSplineSet
Validated: 1
EndChar

StartChar: FL00C4h
Encoding: 196 196 134
Width: 256
GlyphClass: 2
Flags: W
LayerCount: 2
Fore
SplineSet
210 250 m 256,0,1
 210 215 210 215 186.5 191.5 c 128,-1,2
 163 168 163 168 128 168 c 256,3,4
 93 168 93 168 69 191.5 c 128,-1,5
 45 215 45 215 45 250 c 256,6,7
 45 285 45 285 69 308.5 c 128,-1,8
 93 332 93 332 128 332 c 256,9,10
 163 332 163 332 186.5 308.5 c 128,-1,11
 210 285 210 285 210 250 c 256,0,1
EndSplineSet
Validated: 1
EndChar

StartChar: FL00C5h
Encoding: 197 197 135
Width: 256
GlyphClass: 2
Flags: W
LayerCount: 2
Fore
SplineSet
210 250 m 256,0,1
 210 215 210 215 186.5 191.5 c 128,-1,2
 163 168 163 168 128 168 c 256,3,4
 93 168 93 168 69 191.5 c 128,-1,5
 45 215 45 215 45 250 c 256,6,7
 45 285 45 285 69 308.5 c 128,-1,8
 93 332 93 332 128 332 c 256,9,10
 163 332 163 332 186.5 308.5 c 128,-1,11
 210 285 210 285 210 250 c 256,0,1
EndSplineSet
Validated: 1
EndChar

StartChar: FL00C6h
Encoding: 198 198 136
Width: 256
GlyphClass: 2
Flags: W
LayerCount: 2
Fore
SplineSet
210 250 m 256,0,1
 210 215 210 215 186.5 191.5 c 128,-1,2
 163 168 163 168 128 168 c 256,3,4
 93 168 93 168 69 191.5 c 128,-1,5
 45 215 45 215 45 250 c 256,6,7
 45 285 45 285 69 308.5 c 128,-1,8
 93 332 93 332 128 332 c 256,9,10
 163 332 163 332 186.5 308.5 c 128,-1,11
 210 285 210 285 210 250 c 256,0,1
EndSplineSet
Validated: 1
EndChar

StartChar: FL00C7h
Encoding: 199 199 137
Width: 256
GlyphClass: 2
Flags: W
LayerCount: 2
Fore
SplineSet
210 250 m 256,0,1
 210 215 210 215 186.5 191.5 c 128,-1,2
 163 168 163 168 128 168 c 256,3,4
 93 168 93 168 69 191.5 c 128,-1,5
 45 215 45 215 45 250 c 256,6,7
 45 285 45 285 69 308.5 c 128,-1,8
 93 332 93 332 128 332 c 256,9,10
 163 332 163 332 186.5 308.5 c 128,-1,11
 210 285 210 285 210 250 c 256,0,1
EndSplineSet
Validated: 1
EndChar

StartChar: FL00C8h
Encoding: 200 200 138
Width: 256
GlyphClass: 2
Flags: W
LayerCount: 2
Fore
SplineSet
210 250 m 256,0,1
 210 215 210 215 186.5 191.5 c 128,-1,2
 163 168 163 168 128 168 c 256,3,4
 93 168 93 168 69 191.5 c 128,-1,5
 45 215 45 215 45 250 c 256,6,7
 45 285 45 285 69 308.5 c 128,-1,8
 93 332 93 332 128 332 c 256,9,10
 163 332 163 332 186.5 308.5 c 128,-1,11
 210 285 210 285 210 250 c 256,0,1
EndSplineSet
Validated: 1
EndChar

StartChar: FL00C9h
Encoding: 201 201 139
Width: 256
GlyphClass: 2
Flags: W
LayerCount: 2
Fore
SplineSet
210 250 m 256,0,1
 210 215 210 215 186.5 191.5 c 128,-1,2
 163 168 163 168 128 168 c 256,3,4
 93 168 93 168 69 191.5 c 128,-1,5
 45 215 45 215 45 250 c 256,6,7
 45 285 45 285 69 308.5 c 128,-1,8
 93 332 93 332 128 332 c 256,9,10
 163 332 163 332 186.5 308.5 c 128,-1,11
 210 285 210 285 210 250 c 256,0,1
EndSplineSet
Validated: 1
EndChar

StartChar: FL00CAh
Encoding: 202 202 140
Width: 256
GlyphClass: 2
Flags: W
LayerCount: 2
Fore
SplineSet
210 250 m 256,0,1
 210 215 210 215 186.5 191.5 c 128,-1,2
 163 168 163 168 128 168 c 256,3,4
 93 168 93 168 69 191.5 c 128,-1,5
 45 215 45 215 45 250 c 256,6,7
 45 285 45 285 69 308.5 c 128,-1,8
 93 332 93 332 128 332 c 256,9,10
 163 332 163 332 186.5 308.5 c 128,-1,11
 210 285 210 285 210 250 c 256,0,1
EndSplineSet
Validated: 1
EndChar

StartChar: FL00CBh
Encoding: 203 203 141
Width: 256
GlyphClass: 2
Flags: W
LayerCount: 2
Fore
SplineSet
210 250 m 256,0,1
 210 215 210 215 186.5 191.5 c 128,-1,2
 163 168 163 168 128 168 c 256,3,4
 93 168 93 168 69 191.5 c 128,-1,5
 45 215 45 215 45 250 c 256,6,7
 45 285 45 285 69 308.5 c 128,-1,8
 93 332 93 332 128 332 c 256,9,10
 163 332 163 332 186.5 308.5 c 128,-1,11
 210 285 210 285 210 250 c 256,0,1
EndSplineSet
Validated: 1
EndChar

StartChar: FL00CCh
Encoding: 204 204 142
Width: 256
GlyphClass: 2
Flags: W
LayerCount: 2
Fore
SplineSet
210 250 m 256,0,1
 210 215 210 215 186.5 191.5 c 128,-1,2
 163 168 163 168 128 168 c 256,3,4
 93 168 93 168 69 191.5 c 128,-1,5
 45 215 45 215 45 250 c 256,6,7
 45 285 45 285 69 308.5 c 128,-1,8
 93 332 93 332 128 332 c 256,9,10
 163 332 163 332 186.5 308.5 c 128,-1,11
 210 285 210 285 210 250 c 256,0,1
EndSplineSet
Validated: 1
EndChar

StartChar: FL00CDh
Encoding: 205 205 143
Width: 256
GlyphClass: 2
Flags: W
LayerCount: 2
Fore
SplineSet
210 250 m 256,0,1
 210 215 210 215 186.5 191.5 c 128,-1,2
 163 168 163 168 128 168 c 256,3,4
 93 168 93 168 69 191.5 c 128,-1,5
 45 215 45 215 45 250 c 256,6,7
 45 285 45 285 69 308.5 c 128,-1,8
 93 332 93 332 128 332 c 256,9,10
 163 332 163 332 186.5 308.5 c 128,-1,11
 210 285 210 285 210 250 c 256,0,1
EndSplineSet
Validated: 1
EndChar

StartChar: FL00CEh
Encoding: 206 206 144
Width: 256
GlyphClass: 2
Flags: W
LayerCount: 2
Fore
SplineSet
210 250 m 256,0,1
 210 215 210 215 186.5 191.5 c 128,-1,2
 163 168 163 168 128 168 c 256,3,4
 93 168 93 168 69 191.5 c 128,-1,5
 45 215 45 215 45 250 c 256,6,7
 45 285 45 285 69 308.5 c 128,-1,8
 93 332 93 332 128 332 c 256,9,10
 163 332 163 332 186.5 308.5 c 128,-1,11
 210 285 210 285 210 250 c 256,0,1
EndSplineSet
Validated: 1
EndChar

StartChar: FL00CFh
Encoding: 207 207 145
Width: 256
GlyphClass: 2
Flags: W
LayerCount: 2
Fore
SplineSet
210 250 m 256,0,1
 210 215 210 215 186.5 191.5 c 128,-1,2
 163 168 163 168 128 168 c 256,3,4
 93 168 93 168 69 191.5 c 128,-1,5
 45 215 45 215 45 250 c 256,6,7
 45 285 45 285 69 308.5 c 128,-1,8
 93 332 93 332 128 332 c 256,9,10
 163 332 163 332 186.5 308.5 c 128,-1,11
 210 285 210 285 210 250 c 256,0,1
EndSplineSet
Validated: 1
EndChar

StartChar: FL00D0h
Encoding: 208 208 146
Width: 256
GlyphClass: 2
Flags: W
LayerCount: 2
Fore
SplineSet
210 250 m 256,0,1
 210 215 210 215 186.5 191.5 c 128,-1,2
 163 168 163 168 128 168 c 256,3,4
 93 168 93 168 69 191.5 c 128,-1,5
 45 215 45 215 45 250 c 256,6,7
 45 285 45 285 69 308.5 c 128,-1,8
 93 332 93 332 128 332 c 256,9,10
 163 332 163 332 186.5 308.5 c 128,-1,11
 210 285 210 285 210 250 c 256,0,1
EndSplineSet
Validated: 1
EndChar

StartChar: FL00D1h
Encoding: 209 209 147
Width: 256
GlyphClass: 2
Flags: W
LayerCount: 2
Fore
SplineSet
210 250 m 256,0,1
 210 215 210 215 186.5 191.5 c 128,-1,2
 163 168 163 168 128 168 c 256,3,4
 93 168 93 168 69 191.5 c 128,-1,5
 45 215 45 215 45 250 c 256,6,7
 45 285 45 285 69 308.5 c 128,-1,8
 93 332 93 332 128 332 c 256,9,10
 163 332 163 332 186.5 308.5 c 128,-1,11
 210 285 210 285 210 250 c 256,0,1
EndSplineSet
Validated: 1
EndChar

StartChar: Ograve
Encoding: 210 210 148
Width: 256
GlyphClass: 2
Flags: W
LayerCount: 2
Fore
SplineSet
210 250 m 256,0,1
 210 215 210 215 186.5 191.5 c 128,-1,2
 163 168 163 168 128 168 c 256,3,4
 93 168 93 168 69 191.5 c 128,-1,5
 45 215 45 215 45 250 c 256,6,7
 45 285 45 285 69 308.5 c 128,-1,8
 93 332 93 332 128 332 c 256,9,10
 163 332 163 332 186.5 308.5 c 128,-1,11
 210 285 210 285 210 250 c 256,0,1
EndSplineSet
Validated: 1
EndChar

StartChar: FL00D3h
Encoding: 211 211 149
Width: 256
GlyphClass: 2
Flags: W
LayerCount: 2
Fore
SplineSet
210 250 m 256,0,1
 210 215 210 215 186.5 191.5 c 128,-1,2
 163 168 163 168 128 168 c 256,3,4
 93 168 93 168 69 191.5 c 128,-1,5
 45 215 45 215 45 250 c 256,6,7
 45 285 45 285 69 308.5 c 128,-1,8
 93 332 93 332 128 332 c 256,9,10
 163 332 163 332 186.5 308.5 c 128,-1,11
 210 285 210 285 210 250 c 256,0,1
EndSplineSet
Validated: 1
EndChar

StartChar: FL00D4h
Encoding: 212 212 150
Width: 256
GlyphClass: 2
Flags: W
LayerCount: 2
Fore
SplineSet
210 250 m 256,0,1
 210 215 210 215 186.5 191.5 c 128,-1,2
 163 168 163 168 128 168 c 256,3,4
 93 168 93 168 69 191.5 c 128,-1,5
 45 215 45 215 45 250 c 256,6,7
 45 285 45 285 69 308.5 c 128,-1,8
 93 332 93 332 128 332 c 256,9,10
 163 332 163 332 186.5 308.5 c 128,-1,11
 210 285 210 285 210 250 c 256,0,1
EndSplineSet
Validated: 1
EndChar

StartChar: FL00D5h
Encoding: 213 213 151
Width: 256
GlyphClass: 2
Flags: W
LayerCount: 2
Fore
SplineSet
210 250 m 256,0,1
 210 215 210 215 186.5 191.5 c 128,-1,2
 163 168 163 168 128 168 c 256,3,4
 93 168 93 168 69 191.5 c 128,-1,5
 45 215 45 215 45 250 c 256,6,7
 45 285 45 285 69 308.5 c 128,-1,8
 93 332 93 332 128 332 c 256,9,10
 163 332 163 332 186.5 308.5 c 128,-1,11
 210 285 210 285 210 250 c 256,0,1
EndSplineSet
Validated: 1
EndChar

StartChar: FL00D6h
Encoding: 214 214 152
Width: 256
GlyphClass: 2
Flags: W
LayerCount: 2
Fore
SplineSet
210 250 m 256,0,1
 210 215 210 215 186.5 191.5 c 128,-1,2
 163 168 163 168 128 168 c 256,3,4
 93 168 93 168 69 191.5 c 128,-1,5
 45 215 45 215 45 250 c 256,6,7
 45 285 45 285 69 308.5 c 128,-1,8
 93 332 93 332 128 332 c 256,9,10
 163 332 163 332 186.5 308.5 c 128,-1,11
 210 285 210 285 210 250 c 256,0,1
EndSplineSet
Validated: 1
EndChar

StartChar: FL00D7h
Encoding: 215 215 153
Width: 506
GlyphClass: 2
Flags: W
LayerCount: 2
Fore
SplineSet
416 98 m 1,0,1
 427 87 427 87 426 75 c 128,-1,2
 425 63 425 63 417 55 c 128,-1,3
 409 47 409 47 397 46 c 128,-1,4
 385 45 385 45 374 56 c 2,5,-1
 255 175 l 1,6,-1
 138 58 l 2,7,8
 127 48 127 48 115 49 c 128,-1,9
 103 50 103 50 95 58 c 128,-1,10
 87 66 87 66 86 78 c 128,-1,11
 85 90 85 90 96 100 c 2,12,-1
 212 217 l 1,13,-1
 96 333 l 2,14,15
 85 344 85 344 86.5 356 c 128,-1,16
 88 368 88 368 96 376 c 128,-1,17
 104 384 104 384 116 385.5 c 128,-1,18
 128 387 128 387 139 376 c 2,19,-1
 255 260 l 1,20,-1
 372 377 l 2,21,22
 383 388 383 388 394.5 386.5 c 128,-1,23
 406 385 406 385 414 377 c 128,-1,24
 422 369 422 369 423.5 357 c 128,-1,25
 425 345 425 345 414 334 c 2,26,-1
 297 217 l 1,27,-1
 416 98 l 1,28,-1
 416 98 l 1,0,1
EndSplineSet
Validated: 5
EndChar

StartChar: FL00D8h
Encoding: 216 216 154
Width: 256
GlyphClass: 2
Flags: W
LayerCount: 2
Fore
SplineSet
210 250 m 256,0,1
 210 215 210 215 186.5 191.5 c 128,-1,2
 163 168 163 168 128 168 c 256,3,4
 93 168 93 168 69 191.5 c 128,-1,5
 45 215 45 215 45 250 c 256,6,7
 45 285 45 285 69 308.5 c 128,-1,8
 93 332 93 332 128 332 c 256,9,10
 163 332 163 332 186.5 308.5 c 128,-1,11
 210 285 210 285 210 250 c 256,0,1
EndSplineSet
Validated: 1
EndChar

StartChar: FL00D9h
Encoding: 217 217 155
Width: 256
GlyphClass: 2
Flags: W
LayerCount: 2
Fore
SplineSet
210 250 m 256,0,1
 210 215 210 215 186.5 191.5 c 128,-1,2
 163 168 163 168 128 168 c 256,3,4
 93 168 93 168 69 191.5 c 128,-1,5
 45 215 45 215 45 250 c 256,6,7
 45 285 45 285 69 308.5 c 128,-1,8
 93 332 93 332 128 332 c 256,9,10
 163 332 163 332 186.5 308.5 c 128,-1,11
 210 285 210 285 210 250 c 256,0,1
EndSplineSet
Validated: 1
EndChar

StartChar: FL00DAh
Encoding: 218 218 156
Width: 256
GlyphClass: 2
Flags: W
LayerCount: 2
Fore
SplineSet
210 250 m 256,0,1
 210 215 210 215 186.5 191.5 c 128,-1,2
 163 168 163 168 128 168 c 256,3,4
 93 168 93 168 69 191.5 c 128,-1,5
 45 215 45 215 45 250 c 256,6,7
 45 285 45 285 69 308.5 c 128,-1,8
 93 332 93 332 128 332 c 256,9,10
 163 332 163 332 186.5 308.5 c 128,-1,11
 210 285 210 285 210 250 c 256,0,1
EndSplineSet
Validated: 1
EndChar

StartChar: FL00DBh
Encoding: 219 219 157
Width: 256
GlyphClass: 2
Flags: W
LayerCount: 2
Fore
SplineSet
210 250 m 256,0,1
 210 215 210 215 186.5 191.5 c 128,-1,2
 163 168 163 168 128 168 c 256,3,4
 93 168 93 168 69 191.5 c 128,-1,5
 45 215 45 215 45 250 c 256,6,7
 45 285 45 285 69 308.5 c 128,-1,8
 93 332 93 332 128 332 c 256,9,10
 163 332 163 332 186.5 308.5 c 128,-1,11
 210 285 210 285 210 250 c 256,0,1
EndSplineSet
Validated: 1
EndChar

StartChar: FL00DCh
Encoding: 220 220 158
Width: 256
GlyphClass: 2
Flags: W
LayerCount: 2
Fore
SplineSet
210 250 m 256,0,1
 210 215 210 215 186.5 191.5 c 128,-1,2
 163 168 163 168 128 168 c 256,3,4
 93 168 93 168 69 191.5 c 128,-1,5
 45 215 45 215 45 250 c 256,6,7
 45 285 45 285 69 308.5 c 128,-1,8
 93 332 93 332 128 332 c 256,9,10
 163 332 163 332 186.5 308.5 c 128,-1,11
 210 285 210 285 210 250 c 256,0,1
EndSplineSet
Validated: 1
EndChar

StartChar: FL00DDh
Encoding: 221 221 159
Width: 256
GlyphClass: 2
Flags: W
LayerCount: 2
Fore
SplineSet
210 250 m 256,0,1
 210 215 210 215 186.5 191.5 c 128,-1,2
 163 168 163 168 128 168 c 256,3,4
 93 168 93 168 69 191.5 c 128,-1,5
 45 215 45 215 45 250 c 256,6,7
 45 285 45 285 69 308.5 c 128,-1,8
 93 332 93 332 128 332 c 256,9,10
 163 332 163 332 186.5 308.5 c 128,-1,11
 210 285 210 285 210 250 c 256,0,1
EndSplineSet
Validated: 1
EndChar

StartChar: fi
Encoding: 222 222 160
Width: 256
GlyphClass: 2
Flags: W
LayerCount: 2
Fore
SplineSet
210 250 m 256,0,1
 210 215 210 215 186.5 191.5 c 128,-1,2
 163 168 163 168 128 168 c 256,3,4
 93 168 93 168 69 191.5 c 128,-1,5
 45 215 45 215 45 250 c 256,6,7
 45 285 45 285 69 308.5 c 128,-1,8
 93 332 93 332 128 332 c 256,9,10
 163 332 163 332 186.5 308.5 c 128,-1,11
 210 285 210 285 210 250 c 256,0,1
EndSplineSet
Validated: 1
EndChar

StartChar: FL00DFh
Encoding: 223 223 161
Width: 256
GlyphClass: 2
Flags: W
LayerCount: 2
Fore
SplineSet
210 250 m 256,0,1
 210 215 210 215 186.5 191.5 c 128,-1,2
 163 168 163 168 128 168 c 256,3,4
 93 168 93 168 69 191.5 c 128,-1,5
 45 215 45 215 45 250 c 256,6,7
 45 285 45 285 69 308.5 c 128,-1,8
 93 332 93 332 128 332 c 256,9,10
 163 332 163 332 186.5 308.5 c 128,-1,11
 210 285 210 285 210 250 c 256,0,1
EndSplineSet
Validated: 1
EndChar

StartChar: FL00E0h
Encoding: 224 224 162
Width: 256
GlyphClass: 2
Flags: W
LayerCount: 2
Fore
SplineSet
210 250 m 256,0,1
 210 215 210 215 186.5 191.5 c 128,-1,2
 163 168 163 168 128 168 c 256,3,4
 93 168 93 168 69 191.5 c 128,-1,5
 45 215 45 215 45 250 c 256,6,7
 45 285 45 285 69 308.5 c 128,-1,8
 93 332 93 332 128 332 c 256,9,10
 163 332 163 332 186.5 308.5 c 128,-1,11
 210 285 210 285 210 250 c 256,0,1
EndSplineSet
Validated: 1
EndChar

StartChar: FL00E1h
Encoding: 225 225 163
Width: 256
GlyphClass: 2
Flags: W
LayerCount: 2
Fore
SplineSet
210 250 m 256,0,1
 210 215 210 215 186.5 191.5 c 128,-1,2
 163 168 163 168 128 168 c 256,3,4
 93 168 93 168 69 191.5 c 128,-1,5
 45 215 45 215 45 250 c 256,6,7
 45 285 45 285 69 308.5 c 128,-1,8
 93 332 93 332 128 332 c 256,9,10
 163 332 163 332 186.5 308.5 c 128,-1,11
 210 285 210 285 210 250 c 256,0,1
EndSplineSet
Validated: 1
EndChar

StartChar: FL00E2h
Encoding: 226 226 164
Width: 256
GlyphClass: 2
Flags: W
LayerCount: 2
Fore
SplineSet
210 250 m 256,0,1
 210 215 210 215 186.5 191.5 c 128,-1,2
 163 168 163 168 128 168 c 256,3,4
 93 168 93 168 69 191.5 c 128,-1,5
 45 215 45 215 45 250 c 256,6,7
 45 285 45 285 69 308.5 c 128,-1,8
 93 332 93 332 128 332 c 256,9,10
 163 332 163 332 186.5 308.5 c 128,-1,11
 210 285 210 285 210 250 c 256,0,1
EndSplineSet
Validated: 1
EndChar

StartChar: FL00E3h
Encoding: 227 227 165
Width: 256
GlyphClass: 2
Flags: W
LayerCount: 2
Fore
SplineSet
210 250 m 256,0,1
 210 215 210 215 186.5 191.5 c 128,-1,2
 163 168 163 168 128 168 c 256,3,4
 93 168 93 168 69 191.5 c 128,-1,5
 45 215 45 215 45 250 c 256,6,7
 45 285 45 285 69 308.5 c 128,-1,8
 93 332 93 332 128 332 c 256,9,10
 163 332 163 332 186.5 308.5 c 128,-1,11
 210 285 210 285 210 250 c 256,0,1
EndSplineSet
Validated: 1
EndChar

StartChar: FL00E4h
Encoding: 228 228 166
Width: 256
GlyphClass: 2
Flags: W
LayerCount: 2
Fore
SplineSet
210 250 m 256,0,1
 210 215 210 215 186.5 191.5 c 128,-1,2
 163 168 163 168 128 168 c 256,3,4
 93 168 93 168 69 191.5 c 128,-1,5
 45 215 45 215 45 250 c 256,6,7
 45 285 45 285 69 308.5 c 128,-1,8
 93 332 93 332 128 332 c 256,9,10
 163 332 163 332 186.5 308.5 c 128,-1,11
 210 285 210 285 210 250 c 256,0,1
EndSplineSet
Validated: 1
EndChar

StartChar: FL00E5h
Encoding: 229 229 167
Width: 256
GlyphClass: 2
Flags: W
LayerCount: 2
Fore
SplineSet
210 250 m 256,0,1
 210 215 210 215 186.5 191.5 c 128,-1,2
 163 168 163 168 128 168 c 256,3,4
 93 168 93 168 69 191.5 c 128,-1,5
 45 215 45 215 45 250 c 256,6,7
 45 285 45 285 69 308.5 c 128,-1,8
 93 332 93 332 128 332 c 256,9,10
 163 332 163 332 186.5 308.5 c 128,-1,11
 210 285 210 285 210 250 c 256,0,1
EndSplineSet
Validated: 1
EndChar

StartChar: FL00E6h
Encoding: 230 230 168
Width: 256
GlyphClass: 2
Flags: W
LayerCount: 2
Fore
SplineSet
210 250 m 256,0,1
 210 215 210 215 186.5 191.5 c 128,-1,2
 163 168 163 168 128 168 c 256,3,4
 93 168 93 168 69 191.5 c 128,-1,5
 45 215 45 215 45 250 c 256,6,7
 45 285 45 285 69 308.5 c 128,-1,8
 93 332 93 332 128 332 c 256,9,10
 163 332 163 332 186.5 308.5 c 128,-1,11
 210 285 210 285 210 250 c 256,0,1
EndSplineSet
Validated: 1
EndChar

StartChar: FL00E7h
Encoding: 231 231 169
Width: 256
GlyphClass: 2
Flags: W
LayerCount: 2
Fore
SplineSet
210 250 m 256,0,1
 210 215 210 215 186.5 191.5 c 128,-1,2
 163 168 163 168 128 168 c 256,3,4
 93 168 93 168 69 191.5 c 128,-1,5
 45 215 45 215 45 250 c 256,6,7
 45 285 45 285 69 308.5 c 128,-1,8
 93 332 93 332 128 332 c 256,9,10
 163 332 163 332 186.5 308.5 c 128,-1,11
 210 285 210 285 210 250 c 256,0,1
EndSplineSet
Validated: 1
EndChar

StartChar: FL00E8h
Encoding: 232 232 170
Width: 256
GlyphClass: 2
Flags: W
LayerCount: 2
Fore
SplineSet
210 250 m 256,0,1
 210 215 210 215 186.5 191.5 c 128,-1,2
 163 168 163 168 128 168 c 256,3,4
 93 168 93 168 69 191.5 c 128,-1,5
 45 215 45 215 45 250 c 256,6,7
 45 285 45 285 69 308.5 c 128,-1,8
 93 332 93 332 128 332 c 256,9,10
 163 332 163 332 186.5 308.5 c 128,-1,11
 210 285 210 285 210 250 c 256,0,1
EndSplineSet
Validated: 1
EndChar

StartChar: FL00E9h
Encoding: 233 233 171
Width: 256
GlyphClass: 2
Flags: W
LayerCount: 2
Fore
SplineSet
210 250 m 256,0,1
 210 215 210 215 186.5 191.5 c 128,-1,2
 163 168 163 168 128 168 c 256,3,4
 93 168 93 168 69 191.5 c 128,-1,5
 45 215 45 215 45 250 c 256,6,7
 45 285 45 285 69 308.5 c 128,-1,8
 93 332 93 332 128 332 c 256,9,10
 163 332 163 332 186.5 308.5 c 128,-1,11
 210 285 210 285 210 250 c 256,0,1
EndSplineSet
Validated: 1
EndChar

StartChar: FL00EAh
Encoding: 234 234 172
Width: 256
GlyphClass: 2
Flags: W
LayerCount: 2
Fore
SplineSet
210 250 m 256,0,1
 210 215 210 215 186.5 191.5 c 128,-1,2
 163 168 163 168 128 168 c 256,3,4
 93 168 93 168 69 191.5 c 128,-1,5
 45 215 45 215 45 250 c 256,6,7
 45 285 45 285 69 308.5 c 128,-1,8
 93 332 93 332 128 332 c 256,9,10
 163 332 163 332 186.5 308.5 c 128,-1,11
 210 285 210 285 210 250 c 256,0,1
EndSplineSet
Validated: 1
EndChar

StartChar: FL00EBh
Encoding: 235 235 173
Width: 256
GlyphClass: 2
Flags: W
LayerCount: 2
Fore
SplineSet
210 250 m 256,0,1
 210 215 210 215 186.5 191.5 c 128,-1,2
 163 168 163 168 128 168 c 256,3,4
 93 168 93 168 69 191.5 c 128,-1,5
 45 215 45 215 45 250 c 256,6,7
 45 285 45 285 69 308.5 c 128,-1,8
 93 332 93 332 128 332 c 256,9,10
 163 332 163 332 186.5 308.5 c 128,-1,11
 210 285 210 285 210 250 c 256,0,1
EndSplineSet
Validated: 1
EndChar

StartChar: FL00ECh
Encoding: 236 236 174
Width: 256
GlyphClass: 2
Flags: W
LayerCount: 2
Fore
SplineSet
210 250 m 256,0,1
 210 215 210 215 186.5 191.5 c 128,-1,2
 163 168 163 168 128 168 c 256,3,4
 93 168 93 168 69 191.5 c 128,-1,5
 45 215 45 215 45 250 c 256,6,7
 45 285 45 285 69 308.5 c 128,-1,8
 93 332 93 332 128 332 c 256,9,10
 163 332 163 332 186.5 308.5 c 128,-1,11
 210 285 210 285 210 250 c 256,0,1
EndSplineSet
Validated: 1
EndChar

StartChar: FL00EDh
Encoding: 237 237 175
Width: 256
GlyphClass: 2
Flags: W
LayerCount: 2
Fore
SplineSet
210 250 m 256,0,1
 210 215 210 215 186.5 191.5 c 128,-1,2
 163 168 163 168 128 168 c 256,3,4
 93 168 93 168 69 191.5 c 128,-1,5
 45 215 45 215 45 250 c 256,6,7
 45 285 45 285 69 308.5 c 128,-1,8
 93 332 93 332 128 332 c 256,9,10
 163 332 163 332 186.5 308.5 c 128,-1,11
 210 285 210 285 210 250 c 256,0,1
EndSplineSet
Validated: 1
EndChar

StartChar: FL00EEh
Encoding: 238 238 176
Width: 256
GlyphClass: 2
Flags: W
LayerCount: 2
Fore
SplineSet
210 250 m 256,0,1
 210 215 210 215 186.5 191.5 c 128,-1,2
 163 168 163 168 128 168 c 256,3,4
 93 168 93 168 69 191.5 c 128,-1,5
 45 215 45 215 45 250 c 256,6,7
 45 285 45 285 69 308.5 c 128,-1,8
 93 332 93 332 128 332 c 256,9,10
 163 332 163 332 186.5 308.5 c 128,-1,11
 210 285 210 285 210 250 c 256,0,1
EndSplineSet
Validated: 1
EndChar

StartChar: FL00EFh
Encoding: 239 239 177
Width: 256
GlyphClass: 2
Flags: W
LayerCount: 2
Fore
SplineSet
210 250 m 256,0,1
 210 215 210 215 186.5 191.5 c 128,-1,2
 163 168 163 168 128 168 c 256,3,4
 93 168 93 168 69 191.5 c 128,-1,5
 45 215 45 215 45 250 c 256,6,7
 45 285 45 285 69 308.5 c 128,-1,8
 93 332 93 332 128 332 c 256,9,10
 163 332 163 332 186.5 308.5 c 128,-1,11
 210 285 210 285 210 250 c 256,0,1
EndSplineSet
Validated: 1
EndChar

StartChar: FL00F0h
Encoding: 240 240 178
Width: 256
GlyphClass: 2
Flags: W
LayerCount: 2
Fore
SplineSet
210 250 m 256,0,1
 210 215 210 215 186.5 191.5 c 128,-1,2
 163 168 163 168 128 168 c 256,3,4
 93 168 93 168 69 191.5 c 128,-1,5
 45 215 45 215 45 250 c 256,6,7
 45 285 45 285 69 308.5 c 128,-1,8
 93 332 93 332 128 332 c 256,9,10
 163 332 163 332 186.5 308.5 c 128,-1,11
 210 285 210 285 210 250 c 256,0,1
EndSplineSet
Validated: 1
EndChar

StartChar: FL00F1h
Encoding: 241 241 179
Width: 256
GlyphClass: 2
Flags: W
LayerCount: 2
Fore
SplineSet
210 250 m 256,0,1
 210 215 210 215 186.5 191.5 c 128,-1,2
 163 168 163 168 128 168 c 256,3,4
 93 168 93 168 69 191.5 c 128,-1,5
 45 215 45 215 45 250 c 256,6,7
 45 285 45 285 69 308.5 c 128,-1,8
 93 332 93 332 128 332 c 256,9,10
 163 332 163 332 186.5 308.5 c 128,-1,11
 210 285 210 285 210 250 c 256,0,1
EndSplineSet
Validated: 1
EndChar

StartChar: FL00F2h
Encoding: 242 242 180
Width: 256
GlyphClass: 2
Flags: W
LayerCount: 2
Fore
SplineSet
210 250 m 256,0,1
 210 215 210 215 186.5 191.5 c 128,-1,2
 163 168 163 168 128 168 c 256,3,4
 93 168 93 168 69 191.5 c 128,-1,5
 45 215 45 215 45 250 c 256,6,7
 45 285 45 285 69 308.5 c 128,-1,8
 93 332 93 332 128 332 c 256,9,10
 163 332 163 332 186.5 308.5 c 128,-1,11
 210 285 210 285 210 250 c 256,0,1
EndSplineSet
Validated: 1
EndChar

StartChar: FL00F3h
Encoding: 243 243 181
Width: 256
GlyphClass: 2
Flags: W
LayerCount: 2
Fore
SplineSet
210 250 m 256,0,1
 210 215 210 215 186.5 191.5 c 128,-1,2
 163 168 163 168 128 168 c 256,3,4
 93 168 93 168 69 191.5 c 128,-1,5
 45 215 45 215 45 250 c 256,6,7
 45 285 45 285 69 308.5 c 128,-1,8
 93 332 93 332 128 332 c 256,9,10
 163 332 163 332 186.5 308.5 c 128,-1,11
 210 285 210 285 210 250 c 256,0,1
EndSplineSet
Validated: 1
EndChar

StartChar: FL00F4h
Encoding: 244 244 182
Width: 256
GlyphClass: 2
Flags: W
LayerCount: 2
Fore
SplineSet
210 250 m 256,0,1
 210 215 210 215 186.5 191.5 c 128,-1,2
 163 168 163 168 128 168 c 256,3,4
 93 168 93 168 69 191.5 c 128,-1,5
 45 215 45 215 45 250 c 256,6,7
 45 285 45 285 69 308.5 c 128,-1,8
 93 332 93 332 128 332 c 256,9,10
 163 332 163 332 186.5 308.5 c 128,-1,11
 210 285 210 285 210 250 c 256,0,1
EndSplineSet
Validated: 1
EndChar

StartChar: FL00F5h
Encoding: 245 245 183
Width: 256
GlyphClass: 2
Flags: W
LayerCount: 2
Fore
SplineSet
210 250 m 256,0,1
 210 215 210 215 186.5 191.5 c 128,-1,2
 163 168 163 168 128 168 c 256,3,4
 93 168 93 168 69 191.5 c 128,-1,5
 45 215 45 215 45 250 c 256,6,7
 45 285 45 285 69 308.5 c 128,-1,8
 93 332 93 332 128 332 c 256,9,10
 163 332 163 332 186.5 308.5 c 128,-1,11
 210 285 210 285 210 250 c 256,0,1
EndSplineSet
Validated: 1
EndChar

StartChar: FL00F6h
Encoding: 246 246 184
Width: 256
GlyphClass: 2
Flags: W
LayerCount: 2
Fore
SplineSet
210 250 m 256,0,1
 210 215 210 215 186.5 191.5 c 128,-1,2
 163 168 163 168 128 168 c 256,3,4
 93 168 93 168 69 191.5 c 128,-1,5
 45 215 45 215 45 250 c 256,6,7
 45 285 45 285 69 308.5 c 128,-1,8
 93 332 93 332 128 332 c 256,9,10
 163 332 163 332 186.5 308.5 c 128,-1,11
 210 285 210 285 210 250 c 256,0,1
EndSplineSet
Validated: 1
EndChar

StartChar: FL00F7h
Encoding: 247 247 185
Width: 475
GlyphClass: 2
Flags: W
LayerCount: 2
Fore
SplineSet
279 375 m 256,0,1
 279 358 279 358 267.5 346.5 c 128,-1,2
 256 335 256 335 239 335 c 256,3,4
 222 335 222 335 211 346.5 c 128,-1,5
 200 358 200 358 200 375 c 256,6,7
 200 392 200 392 211 403.5 c 128,-1,8
 222 415 222 415 239 415 c 256,9,10
 256 415 256 415 267.5 403.5 c 128,-1,11
 279 392 279 392 279 375 c 256,0,1
88 215 m 2,12,13
 73 215 73 215 65.5 224.5 c 128,-1,14
 58 234 58 234 58 245 c 128,-1,15
 58 256 58 256 65.5 265.5 c 128,-1,16
 73 275 73 275 88 275 c 2,17,-1
 389 275 l 2,18,19
 404 275 404 275 411.5 265.5 c 128,-1,20
 419 256 419 256 419 245 c 128,-1,21
 419 234 419 234 411.5 224.5 c 128,-1,22
 404 215 404 215 389 215 c 2,23,-1
 88 215 l 2,12,13
279 113 m 256,24,25
 279 96 279 96 267.5 84.5 c 128,-1,26
 256 73 256 73 239 73 c 256,27,28
 222 73 222 73 211 84.5 c 128,-1,29
 200 96 200 96 200 113 c 256,30,31
 200 130 200 130 211 141.5 c 128,-1,32
 222 153 222 153 239 153 c 256,33,34
 256 153 256 153 267.5 141.5 c 128,-1,35
 279 130 279 130 279 113 c 256,24,25
EndSplineSet
Validated: 1
EndChar

StartChar: FL00F8h
Encoding: 248 248 186
Width: 256
GlyphClass: 2
Flags: W
LayerCount: 2
Fore
SplineSet
210 250 m 256,0,1
 210 215 210 215 186.5 191.5 c 128,-1,2
 163 168 163 168 128 168 c 256,3,4
 93 168 93 168 69 191.5 c 128,-1,5
 45 215 45 215 45 250 c 256,6,7
 45 285 45 285 69 308.5 c 128,-1,8
 93 332 93 332 128 332 c 256,9,10
 163 332 163 332 186.5 308.5 c 128,-1,11
 210 285 210 285 210 250 c 256,0,1
EndSplineSet
Validated: 1
EndChar

StartChar: FL00F9h
Encoding: 249 249 187
Width: 256
GlyphClass: 2
Flags: W
LayerCount: 2
Fore
SplineSet
210 250 m 256,0,1
 210 215 210 215 186.5 191.5 c 128,-1,2
 163 168 163 168 128 168 c 256,3,4
 93 168 93 168 69 191.5 c 128,-1,5
 45 215 45 215 45 250 c 256,6,7
 45 285 45 285 69 308.5 c 128,-1,8
 93 332 93 332 128 332 c 256,9,10
 163 332 163 332 186.5 308.5 c 128,-1,11
 210 285 210 285 210 250 c 256,0,1
EndSplineSet
Validated: 1
EndChar

StartChar: FL00FAh
Encoding: 250 250 188
Width: 256
GlyphClass: 2
Flags: W
LayerCount: 2
Fore
SplineSet
210 250 m 256,0,1
 210 215 210 215 186.5 191.5 c 128,-1,2
 163 168 163 168 128 168 c 256,3,4
 93 168 93 168 69 191.5 c 128,-1,5
 45 215 45 215 45 250 c 256,6,7
 45 285 45 285 69 308.5 c 128,-1,8
 93 332 93 332 128 332 c 256,9,10
 163 332 163 332 186.5 308.5 c 128,-1,11
 210 285 210 285 210 250 c 256,0,1
EndSplineSet
Validated: 1
EndChar

StartChar: FL00FBh
Encoding: 251 251 189
Width: 256
GlyphClass: 2
Flags: W
LayerCount: 2
Fore
SplineSet
210 250 m 256,0,1
 210 215 210 215 186.5 191.5 c 128,-1,2
 163 168 163 168 128 168 c 256,3,4
 93 168 93 168 69 191.5 c 128,-1,5
 45 215 45 215 45 250 c 256,6,7
 45 285 45 285 69 308.5 c 128,-1,8
 93 332 93 332 128 332 c 256,9,10
 163 332 163 332 186.5 308.5 c 128,-1,11
 210 285 210 285 210 250 c 256,0,1
EndSplineSet
Validated: 1
EndChar

StartChar: FL00FCh
Encoding: 252 252 190
Width: 256
GlyphClass: 2
Flags: W
LayerCount: 2
Fore
SplineSet
210 250 m 256,0,1
 210 215 210 215 186.5 191.5 c 128,-1,2
 163 168 163 168 128 168 c 256,3,4
 93 168 93 168 69 191.5 c 128,-1,5
 45 215 45 215 45 250 c 256,6,7
 45 285 45 285 69 308.5 c 128,-1,8
 93 332 93 332 128 332 c 256,9,10
 163 332 163 332 186.5 308.5 c 128,-1,11
 210 285 210 285 210 250 c 256,0,1
EndSplineSet
Validated: 1
EndChar

StartChar: FL00FDh
Encoding: 253 253 191
Width: 256
GlyphClass: 2
Flags: W
LayerCount: 2
Fore
SplineSet
210 250 m 256,0,1
 210 215 210 215 186.5 191.5 c 128,-1,2
 163 168 163 168 128 168 c 256,3,4
 93 168 93 168 69 191.5 c 128,-1,5
 45 215 45 215 45 250 c 256,6,7
 45 285 45 285 69 308.5 c 128,-1,8
 93 332 93 332 128 332 c 256,9,10
 163 332 163 332 186.5 308.5 c 128,-1,11
 210 285 210 285 210 250 c 256,0,1
EndSplineSet
Validated: 1
EndChar

StartChar: ogonek
Encoding: 254 254 192
Width: 256
GlyphClass: 2
Flags: W
LayerCount: 2
Fore
SplineSet
210 250 m 256,0,1
 210 215 210 215 186.5 191.5 c 128,-1,2
 163 168 163 168 128 168 c 256,3,4
 93 168 93 168 69 191.5 c 128,-1,5
 45 215 45 215 45 250 c 256,6,7
 45 285 45 285 69 308.5 c 128,-1,8
 93 332 93 332 128 332 c 256,9,10
 163 332 163 332 186.5 308.5 c 128,-1,11
 210 285 210 285 210 250 c 256,0,1
EndSplineSet
Validated: 1
EndChar

StartChar: FL00FFh
Encoding: 255 255 193
Width: 256
GlyphClass: 2
Flags: W
LayerCount: 2
Fore
SplineSet
210 250 m 256,0,1
 210 215 210 215 186.5 191.5 c 128,-1,2
 163 168 163 168 128 168 c 256,3,4
 93 168 93 168 69 191.5 c 128,-1,5
 45 215 45 215 45 250 c 256,6,7
 45 285 45 285 69 308.5 c 128,-1,8
 93 332 93 332 128 332 c 256,9,10
 163 332 163 332 186.5 308.5 c 128,-1,11
 210 285 210 285 210 250 c 256,0,1
EndSplineSet
Validated: 1
EndChar

StartChar: aring
Encoding: 338 338 194
Width: 838
GlyphClass: 2
Flags: W
LayerCount: 2
Fore
SplineSet
399 0 m 2,0,1
 393 0 393 0 385 2 c 1,2,3
 365 -8 365 -8 345 -12 c 128,-1,4
 325 -16 325 -16 298 -16 c 0,5,6
 239 -16 239 -16 194 11 c 128,-1,7
 149 38 149 38 119 82 c 128,-1,8
 89 126 89 126 74 182 c 128,-1,9
 59 238 59 238 59 295 c 0,10,11
 59 351 59 351 73.5 407 c 128,-1,12
 88 463 88 463 116 508 c 128,-1,13
 144 553 144 553 184.5 581 c 128,-1,14
 225 609 225 609 276 609 c 0,15,16
 308 609 308 609 330 604.5 c 128,-1,17
 352 600 352 600 380 595 c 1,18,19
 388 600 388 600 399 600 c 2,20,-1
 745 600 l 2,21,22
 760 600 760 600 768 590.5 c 128,-1,23
 776 581 776 581 776 570 c 128,-1,24
 776 559 776 559 768 549.5 c 128,-1,25
 760 540 760 540 745 540 c 2,26,-1
 429 540 l 1,27,-1
 429 358 l 1,28,-1
 725 358 l 2,29,30
 740 358 740 358 748 349 c 128,-1,31
 756 340 756 340 756 328.5 c 128,-1,32
 756 317 756 317 748 308 c 128,-1,33
 740 299 740 299 725 299 c 2,34,-1
 429 299 l 1,35,-1
 429 60 l 1,36,-1
 745 60 l 2,37,38
 760 60 760 60 768 50.5 c 128,-1,39
 776 41 776 41 776 30 c 128,-1,40
 776 19 776 19 768 9.5 c 128,-1,41
 760 0 760 0 745 0 c 2,42,-1
 399 0 l 2,0,1
369 536 m 1,43,44
 345 541 345 541 324 545.5 c 128,-1,45
 303 550 303 550 276 550 c 0,46,47
 236 550 236 550 206 526.5 c 128,-1,48
 176 503 176 503 157 466 c 128,-1,49
 138 429 138 429 128.5 384 c 128,-1,50
 119 339 119 339 119 295 c 0,51,52
 119 250 119 250 129.5 205 c 128,-1,53
 140 160 140 160 162 124 c 128,-1,54
 184 88 184 88 218 65.5 c 128,-1,55
 252 43 252 43 298 43 c 0,56,57
 319 43 319 43 335.5 47.5 c 128,-1,58
 352 52 352 52 369 60 c 1,59,-1
 369 536 l 1,43,44
EndSplineSet
Validated: 1
EndChar

StartChar: uacute
Encoding: 339 339 195
Width: 863
GlyphClass: 2
Flags: W
LayerCount: 2
Fore
SplineSet
804 215 m 0,0,1
 806 182 806 182 773 182 c 2,2,-1
 476 182 l 1,3,4
 478 157 478 157 487.5 134.5 c 128,-1,5
 497 112 497 112 514 95.5 c 128,-1,6
 531 79 531 79 556 69.5 c 128,-1,7
 581 60 581 60 615 60 c 0,8,9
 655 60 655 60 684.5 71 c 128,-1,10
 714 82 714 82 740 111 c 0,11,12
 749 123 749 123 761 122.5 c 128,-1,13
 773 122 773 122 782 115 c 128,-1,14
 791 108 791 108 793 96.5 c 128,-1,15
 795 85 795 85 785 74 c 0,16,17
 750 32 750 32 710 16 c 128,-1,18
 670 0 670 0 615 0 c 0,19,20
 549 0 549 0 506.5 24 c 128,-1,21
 464 48 464 48 441 89 c 1,22,23
 412 47 412 47 366.5 21.5 c 128,-1,24
 321 -4 321 -4 266 -4 c 0,25,26
 223 -4 223 -4 185 12 c 128,-1,27
 147 28 147 28 119 56 c 128,-1,28
 91 84 91 84 74.5 121.5 c 128,-1,29
 58 159 58 159 58 202 c 0,30,31
 58 244 58 244 74.5 281.5 c 128,-1,32
 91 319 91 319 119 347 c 128,-1,33
 147 375 147 375 185 391 c 128,-1,34
 223 407 223 407 266 407 c 0,35,36
 323 407 323 407 369 381 c 128,-1,37
 415 355 415 355 443 312 c 1,38,39
 469 357 469 357 514.5 384 c 128,-1,40
 560 411 560 411 617 411 c 0,41,42
 657 411 657 411 690 395 c 128,-1,43
 723 379 723 379 747.5 352 c 128,-1,44
 772 325 772 325 786.5 289.5 c 128,-1,45
 801 254 801 254 804 215 c 0,0,1
738 242 m 1,46,47
 726 288 726 288 695.5 319.5 c 128,-1,48
 665 351 665 351 617 351 c 0,49,50
 564 351 564 351 527.5 320.5 c 128,-1,51
 491 290 491 290 479 242 c 1,52,-1
 738 242 l 1,53,-1
 738 242 l 1,46,47
414 202 m 256,54,55
 414 232 414 232 402.5 258.5 c 128,-1,56
 391 285 391 285 370.5 305 c 128,-1,57
 350 325 350 325 323 336.5 c 128,-1,58
 296 348 296 348 266 348 c 256,59,60
 236 348 236 348 209 336.5 c 128,-1,61
 182 325 182 325 161.5 305 c 128,-1,62
 141 285 141 285 129.5 258.5 c 128,-1,63
 118 232 118 232 118 202 c 256,64,65
 118 172 118 172 129.5 145.5 c 128,-1,66
 141 119 141 119 161.5 99 c 128,-1,67
 182 79 182 79 209 67.5 c 128,-1,68
 236 56 236 56 266 56 c 256,69,70
 296 56 296 56 323 67.5 c 128,-1,71
 350 79 350 79 370.5 99 c 128,-1,72
 391 119 391 119 402.5 145.5 c 128,-1,73
 414 172 414 172 414 202 c 256,54,55
EndSplineSet
Validated: 37
EndChar

StartChar: adieresis
Encoding: 352 352 196
Width: 544
GlyphClass: 2
Flags: W
LayerCount: 2
Fore
SplineSet
280 649 m 2,0,1
 261 633 261 633 241 649 c 2,2,-1
 117 749 l 2,3,4
 105 758 105 758 105.5 770 c 128,-1,5
 106 782 106 782 113 790.5 c 128,-1,6
 120 799 120 799 131.5 801.5 c 128,-1,7
 143 804 143 804 155 794 c 2,8,-1
 261 710 l 1,9,-1
 366 794 l 2,10,11
 378 804 378 804 389.5 801.5 c 128,-1,12
 401 799 401 799 408.5 790.5 c 128,-1,13
 416 782 416 782 416.5 770 c 128,-1,14
 417 758 417 758 405 749 c 2,15,-1
 280 649 l 2,0,1
485 151 m 0,16,17
 485 73 485 73 430 31 c 128,-1,18
 375 -11 375 -11 273 -11 c 0,19,20
 198 -11 198 -11 143.5 24 c 128,-1,21
 89 59 89 59 60 127 c 0,22,23
 55 141 55 141 61 151.5 c 128,-1,24
 67 162 67 162 77.5 166.5 c 128,-1,25
 88 171 88 171 99.5 167 c 128,-1,26
 111 163 111 163 117 149 c 0,27,28
 138 98 138 98 178 74 c 128,-1,29
 218 50 218 50 273 50 c 0,30,31
 343 50 343 50 383.5 73.5 c 128,-1,32
 424 97 424 97 424 151 c 0,33,34
 424 180 424 180 411.5 198.5 c 128,-1,35
 399 217 399 217 378 230 c 128,-1,36
 357 243 357 243 329.5 253.5 c 128,-1,37
 302 264 302 264 272 277 c 0,38,39
 235 294 235 294 198.5 309.5 c 128,-1,40
 162 325 162 325 132.5 345.5 c 128,-1,41
 103 366 103 366 84.5 393 c 128,-1,42
 66 420 66 420 66 460 c 0,43,44
 66 496 66 496 80.5 525 c 128,-1,45
 95 554 95 554 121.5 573.5 c 128,-1,46
 148 593 148 593 185 603.5 c 128,-1,47
 222 614 222 614 267 614 c 0,48,49
 300 614 300 614 329.5 604 c 128,-1,50
 359 594 359 594 384 577.5 c 128,-1,51
 409 561 409 561 428.5 538.5 c 128,-1,52
 448 516 448 516 461 491 c 0,53,54
 467 478 467 478 462.5 467.5 c 128,-1,55
 458 457 458 457 448 451.5 c 128,-1,56
 438 446 438 446 426.5 448 c 128,-1,57
 415 450 415 450 408 463 c 0,58,59
 388 500 388 500 352 527 c 128,-1,60
 316 554 316 554 267 554 c 0,61,62
 237 554 237 554 211.5 548.5 c 128,-1,63
 186 543 186 543 167 531 c 128,-1,64
 148 519 148 519 137 501.5 c 128,-1,65
 126 484 126 484 126 460 c 0,66,67
 126 429 126 429 142 409.5 c 128,-1,68
 158 390 158 390 182.5 377 c 128,-1,69
 207 364 207 364 237 354 c 128,-1,70
 267 344 267 344 295 331 c 0,71,72
 334 314 334 314 369 298 c 128,-1,73
 404 282 404 282 429.5 262 c 128,-1,74
 455 242 455 242 470 215.5 c 128,-1,75
 485 189 485 189 485 151 c 0,16,17
EndSplineSet
Validated: 33
EndChar

StartChar: odieresis
Encoding: 353 353 197
Width: 433
GlyphClass: 2
Flags: W
LayerCount: 2
Fore
SplineSet
231 458 m 2,0,1
 212 443 212 443 192 458 c 2,2,-1
 68 559 l 2,3,4
 56 568 56 568 56.5 579.5 c 128,-1,5
 57 591 57 591 64 599.5 c 128,-1,6
 71 608 71 608 82.5 610.5 c 128,-1,7
 94 613 94 613 106 604 c 2,8,-1
 212 519 l 1,9,-1
 317 604 l 2,10,11
 329 613 329 613 340.5 610.5 c 128,-1,12
 352 608 352 608 359.5 599.5 c 128,-1,13
 367 591 367 591 367 579.5 c 128,-1,14
 367 568 367 568 355 559 c 2,15,-1
 231 458 l 2,0,1
374 113 m 0,16,17
 374 87 374 87 362.5 65.5 c 128,-1,18
 351 44 351 44 331.5 29 c 128,-1,19
 312 14 312 14 287.5 6 c 128,-1,20
 263 -2 263 -2 237 -2 c 0,21,22
 183 -2 183 -2 145.5 10.5 c 128,-1,23
 108 23 108 23 70 55 c 0,24,25
 58 64 58 64 58.5 76 c 128,-1,26
 59 88 59 88 66 96.5 c 128,-1,27
 73 105 73 105 84.5 107.5 c 128,-1,28
 96 110 96 110 108 100 c 0,29,30
 137 77 137 77 166.5 67.5 c 128,-1,31
 196 58 196 58 237 58 c 0,32,33
 264 58 264 58 288.5 72 c 128,-1,34
 313 86 313 86 313 113 c 0,35,36
 313 143 313 143 287.5 158 c 128,-1,37
 262 173 262 173 228 175 c 0,38,39
 198 177 198 177 169 184.5 c 128,-1,40
 140 192 140 192 116.5 206.5 c 128,-1,41
 93 221 93 221 78.5 242 c 128,-1,42
 64 263 64 263 64 292 c 0,43,44
 64 347 64 347 104.5 378.5 c 128,-1,45
 145 410 145 410 213 410 c 0,46,47
 235 410 235 410 252 407.5 c 128,-1,48
 269 405 269 405 285 400.5 c 128,-1,49
 301 396 301 396 316.5 388.5 c 128,-1,50
 332 381 332 381 351 372 c 0,51,52
 365 366 365 366 367 354 c 128,-1,53
 369 342 369 342 364 332 c 128,-1,54
 359 322 359 322 347.5 316.5 c 128,-1,55
 336 311 336 311 323 318 c 0,56,57
 292 335 292 335 269.5 343 c 128,-1,58
 247 351 247 351 213 351 c 0,59,60
 176 351 176 351 150.5 337 c 128,-1,61
 125 323 125 323 125 292 c 0,62,63
 125 275 125 275 135 264.5 c 128,-1,64
 145 254 145 254 161 248 c 128,-1,65
 177 242 177 242 195.5 239.5 c 128,-1,66
 214 237 214 237 232 236 c 0,67,68
 292 231 292 231 333 199.5 c 128,-1,69
 374 168 374 168 374 113 c 0,16,17
EndSplineSet
Validated: 33
EndChar

StartChar: udieresis
Encoding: 376 376 198
Width: 576
GlyphClass: 2
Flags: W
LayerCount: 2
Fore
SplineSet
398 680 m 0,0,1
 398 664 398 664 386.5 652 c 128,-1,2
 375 640 375 640 358 640 c 256,3,4
 341 640 341 640 329.5 652 c 128,-1,5
 318 664 318 664 318 680 c 0,6,7
 318 697 318 697 329.5 708.5 c 128,-1,8
 341 720 341 720 358 720 c 256,9,10
 375 720 375 720 386.5 708.5 c 128,-1,11
 398 697 398 697 398 680 c 0,0,1
247 680 m 256,12,13
 247 663 247 663 235.5 651.5 c 128,-1,14
 224 640 224 640 207 640 c 256,15,16
 190 640 190 640 178.5 651.5 c 128,-1,17
 167 663 167 663 167 680 c 256,18,19
 167 697 167 697 178.5 708.5 c 128,-1,20
 190 720 190 720 207 720 c 256,21,22
 224 720 224 720 235.5 708.5 c 128,-1,23
 247 697 247 697 247 680 c 256,12,13
311 270 m 2,24,25
 311 272 311 272 311 262.5 c 128,-1,26
 311 253 311 253 311.5 235.5 c 128,-1,27
 312 218 312 218 312.5 195.5 c 128,-1,28
 313 173 313 173 314 149 c 0,29,30
 316 93 316 93 317 21 c 0,31,32
 317 6 317 6 307.5 -1.5 c 128,-1,33
 298 -9 298 -9 287 -9 c 128,-1,34
 276 -9 276 -9 266.5 -1.5 c 128,-1,35
 257 6 257 6 257 21 c 2,36,-1
 257 278 l 1,37,-1
 66 559 l 2,38,39
 57 572 57 572 60.5 583.5 c 128,-1,40
 64 595 64 595 73.5 601.5 c 128,-1,41
 83 608 83 608 95 607 c 128,-1,42
 107 606 107 606 115 594 c 2,43,-1
 287 341 l 1,44,-1
 459 594 l 2,45,46
 467 606 467 606 479 607 c 128,-1,47
 491 608 491 608 500.5 601.5 c 128,-1,48
 510 595 510 595 513.5 583.5 c 128,-1,49
 517 572 517 572 508 559 c 2,50,-1
 311 270 l 2,24,25
EndSplineSet
Validated: 1
EndChar

StartChar: FL017Dh
Encoding: 381 381 199
Width: 529
GlyphClass: 2
Flags: W
LayerCount: 2
Fore
SplineSet
295 649 m 2,0,1
 287 641 287 641 276.5 641 c 128,-1,2
 266 641 266 641 257 649 c 2,3,-1
 132 749 l 2,4,5
 120 758 120 758 120.5 770 c 128,-1,6
 121 782 121 782 128.5 790.5 c 128,-1,7
 136 799 136 799 147.5 801.5 c 128,-1,8
 159 804 159 804 171 794 c 2,9,-1
 276 710 l 1,10,-1
 381 794 l 2,11,12
 393 804 393 804 405 801.5 c 128,-1,13
 417 799 417 799 424 790.5 c 128,-1,14
 431 782 431 782 431.5 770 c 128,-1,15
 432 758 432 758 420 749 c 2,16,-1
 295 649 l 2,0,1
149 61 m 1,17,-1
 443 61 l 2,18,19
 458 61 458 61 465.5 51.5 c 128,-1,20
 473 42 473 42 473 30.5 c 128,-1,21
 473 19 473 19 465.5 9.5 c 128,-1,22
 458 0 458 0 443 0 c 2,23,-1
 93 0 l 2,24,25
 70 0 70 0 62.5 13.5 c 128,-1,26
 55 27 55 27 67 47 c 2,27,-1
 378 541 l 1,28,-1
 92 541 l 2,29,30
 77 541 77 541 69 550.5 c 128,-1,31
 61 560 61 560 61 571 c 128,-1,32
 61 582 61 582 69 591.5 c 128,-1,33
 77 601 77 601 92 601 c 2,34,-1
 433 601 l 2,35,36
 457 601 457 601 464.5 588 c 128,-1,37
 472 575 472 575 460 555 c 2,38,-1
 149 61 l 1,17,-1
EndSplineSet
Validated: 33
EndChar

StartChar: FL017Eh
Encoding: 382 382 200
Width: 500
GlyphClass: 2
Flags: W
LayerCount: 2
Fore
SplineSet
274 458 m 2,0,1
 255 443 255 443 235 458 c 2,2,-1
 111 559 l 2,3,4
 99 568 99 568 99 579.5 c 128,-1,5
 99 591 99 591 106.5 599.5 c 128,-1,6
 114 608 114 608 125.5 610.5 c 128,-1,7
 137 613 137 613 149 604 c 2,8,-1
 254 519 l 1,9,-1
 360 604 l 2,10,11
 372 613 372 613 383.5 610.5 c 128,-1,12
 395 608 395 608 402 599.5 c 128,-1,13
 409 591 409 591 409.5 579.5 c 128,-1,14
 410 568 410 568 398 559 c 2,15,-1
 274 458 l 2,0,1
157 60 m 1,16,-1
 402 60 l 2,17,18
 417 60 417 60 424.5 50.5 c 128,-1,19
 432 41 432 41 432 30 c 128,-1,20
 432 19 432 19 424.5 9.5 c 128,-1,21
 417 0 417 0 402 0 c 2,22,-1
 91 0 l 2,23,24
 66 0 66 0 59 16 c 128,-1,25
 52 32 52 32 69 50 c 2,26,-1
 337 350 l 1,27,-1
 94 350 l 2,28,29
 79 350 79 350 71.5 359 c 128,-1,30
 64 368 64 368 64 379.5 c 128,-1,31
 64 391 64 391 71.5 400 c 128,-1,32
 79 409 79 409 94 409 c 2,33,-1
 403 409 l 2,34,35
 428 409 428 409 435 394 c 128,-1,36
 442 379 442 379 425 359 c 2,37,-1
 157 60 l 1,16,-1
EndSplineSet
Validated: 33
EndChar

StartChar: Eacute
Encoding: 402 402 201
Width: 683
GlyphClass: 2
Flags: W
LayerCount: 2
Fore
SplineSet
624 508 m 0,0,1
 627 493 627 493 619.5 484 c 128,-1,2
 612 475 612 475 601 473 c 128,-1,3
 590 471 590 471 579 476 c 128,-1,4
 568 481 568 481 565 495 c 0,5,6
 558 525 558 525 540 532 c 128,-1,7
 522 539 522 539 498 539 c 0,8,9
 464 539 464 539 442.5 517.5 c 128,-1,10
 421 496 421 496 408.5 462.5 c 128,-1,11
 396 429 396 429 390 389 c 128,-1,12
 384 349 384 349 379 312 c 1,13,-1
 494 312 l 2,14,15
 509 312 509 312 517 302.5 c 128,-1,16
 525 293 525 293 525 282 c 128,-1,17
 525 271 525 271 517 261.5 c 128,-1,18
 509 252 509 252 494 252 c 2,19,-1
 372 252 l 1,20,21
 362 184 362 184 348.5 113.5 c 128,-1,22
 335 43 335 43 313.5 -14.5 c 128,-1,23
 292 -72 292 -72 259.5 -108.5 c 128,-1,24
 227 -145 227 -145 180 -145 c 0,25,26
 158 -145 158 -145 139.5 -141 c 128,-1,27
 121 -137 121 -137 106 -126.5 c 128,-1,28
 91 -116 91 -116 79.5 -97.5 c 128,-1,29
 68 -79 68 -79 60 -49 c 0,30,31
 56 -34 56 -34 63 -24.5 c 128,-1,32
 70 -15 70 -15 81 -12 c 128,-1,33
 92 -9 92 -9 103 -14 c 128,-1,34
 114 -19 114 -19 118 -34 c 0,35,36
 126 -66 126 -66 141 -75.5 c 128,-1,37
 156 -85 156 -85 180 -85 c 0,38,39
 209 -85 209 -85 230 -53.5 c 128,-1,40
 251 -22 251 -22 266 27 c 128,-1,41
 281 76 281 76 292 135.5 c 128,-1,42
 303 195 303 195 310 252 c 1,43,-1
 211 252 l 2,44,45
 196 252 196 252 188 261.5 c 128,-1,46
 180 271 180 271 180 282 c 128,-1,47
 180 293 180 293 188 302.5 c 128,-1,48
 196 312 196 312 211 312 c 2,49,-1
 319 312 l 1,50,51
 326 359 326 359 333.5 410 c 128,-1,52
 341 461 341 461 358.5 503 c 128,-1,53
 376 545 376 545 408.5 572.5 c 128,-1,54
 441 600 441 600 498 600 c 0,55,56
 520 600 520 600 540 596.5 c 128,-1,57
 560 593 560 593 576.5 583 c 128,-1,58
 593 573 593 573 605.5 555 c 128,-1,59
 618 537 618 537 624 508 c 0,0,1
EndSplineSet
Validated: 1
EndChar

StartChar: agrave
Encoding: 710 710 202
Width: 429
GlyphClass: 2
Flags: W
LayerCount: 2
Fore
SplineSet
358 506 m 1,0,1
 370 497 370 497 369.5 485.5 c 128,-1,2
 369 474 369 474 362 465.5 c 128,-1,3
 355 457 355 457 343.5 455 c 128,-1,4
 332 453 332 453 320 462 c 2,5,-1
 214 544 l 1,6,-1
 109 462 l 2,7,8
 97 453 97 453 85.5 455 c 128,-1,9
 74 457 74 457 66.5 465.5 c 128,-1,10
 59 474 59 474 59 485.5 c 128,-1,11
 59 497 59 497 71 506 c 2,12,-1
 195 604 l 2,13,14
 215 620 215 620 234 604 c 2,15,-1
 358 506 l 1,16,-1
 358 506 l 1,0,1
EndSplineSet
Validated: 37
EndChar

StartChar: ograve
Encoding: 732 732 203
Width: 457
GlyphClass: 2
Flags: W
LayerCount: 2
Fore
SplineSet
397 550 m 0,0,1
 389 511 389 511 361 483 c 128,-1,2
 333 455 333 455 292 455 c 0,3,4
 255 455 255 455 239 466 c 128,-1,5
 223 477 223 477 214.5 490 c 128,-1,6
 206 503 206 503 198 514 c 128,-1,7
 190 525 190 525 170 525 c 0,8,9
 148 525 148 525 138 507.5 c 128,-1,10
 128 490 128 490 118 472 c 0,11,12
 111 459 111 459 99 456.5 c 128,-1,13
 87 454 87 454 76.5 459 c 128,-1,14
 66 464 66 464 61 474.5 c 128,-1,15
 56 485 56 485 63 498 c 0,16,17
 72 514 72 514 82.5 529.5 c 128,-1,18
 93 545 93 545 106 557 c 128,-1,19
 119 569 119 569 134.5 576 c 128,-1,20
 150 583 150 583 170 583 c 0,21,22
 205 583 205 583 220.5 572 c 128,-1,23
 236 561 236 561 245 548 c 128,-1,24
 254 535 254 535 262.5 524 c 128,-1,25
 271 513 271 513 292 513 c 0,26,27
 312 513 312 513 323 528.5 c 128,-1,28
 334 544 334 544 339 563 c 0,29,30
 342 577 342 577 353 582 c 128,-1,31
 364 587 364 587 375 584.5 c 128,-1,32
 386 582 386 582 393.5 573 c 128,-1,33
 401 564 401 564 397 550 c 0,0,1
EndSplineSet
Validated: 1
EndChar

StartChar: afii57388
Encoding: 1548 1548 204
Width: 243
GlyphClass: 2
Flags: W
LayerCount: 2
Fore
SplineSet
73 44 m 0,0,1
 73 71 73 71 86 86.5 c 128,-1,2
 99 102 99 102 115 105.5 c 128,-1,3
 131 109 131 109 146.5 100 c 128,-1,4
 162 91 162 91 166 67 c 0,5,6
 171 41 171 41 159 27.5 c 128,-1,7
 147 14 147 14 127 5 c 1,8,9
 124 -7 124 -7 129 -25.5 c 128,-1,10
 134 -44 134 -44 148 -64 c 0,11,12
 155 -76 155 -76 154.5 -86 c 128,-1,13
 154 -96 154 -96 149 -101.5 c 128,-1,14
 144 -107 144 -107 136 -105.5 c 128,-1,15
 128 -104 128 -104 120 -92 c 0,16,17
 105 -68 105 -68 96 -50.5 c 128,-1,18
 87 -33 87 -33 81.5 -18 c 128,-1,19
 76 -3 76 -3 74.5 11.5 c 128,-1,20
 73 26 73 26 73 44 c 0,0,1
EndSplineSet
Validated: 33
EndChar

StartChar: afii57403
Encoding: 1563 1563 205
Width: 228
GlyphClass: 2
Flags: W
LayerCount: 2
Fore
SplineSet
60 356 m 0,0,1
 60 376 60 376 73.5 389 c 128,-1,2
 87 402 87 402 106 402 c 0,3,4
 126 402 126 402 139 389 c 128,-1,5
 152 376 152 376 152 356 c 0,6,7
 152 337 152 337 139 323.5 c 128,-1,8
 126 310 126 310 106 310 c 0,9,10
 87 310 87 310 73.5 323.5 c 128,-1,11
 60 337 60 337 60 356 c 0,0,1
62 38 m 0,12,13
 62 63 62 63 74 78 c 128,-1,14
 86 93 86 93 102 97 c 128,-1,15
 118 101 118 101 132.5 92 c 128,-1,16
 147 83 147 83 151 60 c 0,17,18
 156 37 156 37 144 23.5 c 128,-1,19
 132 10 132 10 113 1 c 1,20,21
 110 -10 110 -10 116 -27 c 128,-1,22
 122 -44 122 -44 135 -64 c 0,23,24
 141 -75 141 -75 140.5 -84.5 c 128,-1,25
 140 -94 140 -94 134.5 -99 c 128,-1,26
 129 -104 129 -104 121.5 -102.5 c 128,-1,27
 114 -101 114 -101 107 -90 c 0,28,29
 92 -68 92 -68 83.5 -51 c 128,-1,30
 75 -34 75 -34 70 -20 c 128,-1,31
 65 -6 65 -6 63.5 8 c 128,-1,32
 62 22 62 22 62 38 c 0,12,13
EndSplineSet
Validated: 33
EndChar

StartChar: afii57407
Encoding: 1567 1567 206
Width: 426
GlyphClass: 2
Flags: W
LayerCount: 2
Fore
SplineSet
59 454 m 0,0,1
 59 495 59 495 73.5 524 c 128,-1,2
 88 553 88 553 111 571 c 128,-1,3
 134 589 134 589 163 597.5 c 128,-1,4
 192 606 192 606 220 605 c 0,5,6
 243 604 243 604 266 597 c 128,-1,7
 289 590 289 590 309 573.5 c 128,-1,8
 329 557 329 557 344 530.5 c 128,-1,9
 359 504 359 504 365 463 c 0,10,11
 368 448 368 448 360 439 c 128,-1,12
 352 430 352 430 341 428 c 128,-1,13
 330 426 330 426 319.5 432 c 128,-1,14
 309 438 309 438 306 454 c 0,15,16
 303 480 303 480 294 496.5 c 128,-1,17
 285 513 285 513 273 523.5 c 128,-1,18
 261 534 261 534 246.5 538.5 c 128,-1,19
 232 543 232 543 218 544 c 0,20,21
 200 545 200 545 182 540 c 128,-1,22
 164 535 164 535 150 524.5 c 128,-1,23
 136 514 136 514 127 496.5 c 128,-1,24
 118 479 118 479 118 454 c 0,25,26
 118 428 118 428 126 408.5 c 128,-1,27
 134 389 134 389 146.5 373.5 c 128,-1,28
 159 358 159 358 174 345.5 c 128,-1,29
 189 333 189 333 202 321 c 256,30,31
 215 309 215 309 230.5 294.5 c 128,-1,32
 246 280 246 280 259 263.5 c 128,-1,33
 272 247 272 247 281 230 c 128,-1,34
 290 213 290 213 290 197 c 0,35,36
 290 182 290 182 281 174 c 128,-1,37
 272 166 272 166 260.5 166 c 128,-1,38
 249 166 249 166 240 174 c 128,-1,39
 231 182 231 182 231 198 c 0,40,41
 231 207 231 207 224 217 c 128,-1,42
 217 227 217 227 206.5 237 c 128,-1,43
 196 247 196 247 184.5 256.5 c 128,-1,44
 173 266 173 266 164 275 c 0,45,46
 146 290 146 290 127 307.5 c 128,-1,47
 108 325 108 325 93 346 c 128,-1,48
 78 367 78 367 68.5 393.5 c 128,-1,49
 59 420 59 420 59 454 c 0,0,1
225 30 m 0,50,51
 225 45 225 45 235.5 55.5 c 128,-1,52
 246 66 246 66 261 66 c 256,53,54
 276 66 276 66 286.5 55.5 c 128,-1,55
 297 45 297 45 297 30 c 0,56,57
 297 17 297 17 286.5 6.5 c 128,-1,58
 276 -4 276 -4 261 -4 c 256,59,60
 246 -4 246 -4 235.5 6.5 c 128,-1,61
 225 17 225 17 225 30 c 0,50,51
EndSplineSet
Validated: 33
EndChar

StartChar: Idieresis
Encoding: 1576 125184 207
Width: 510
GlyphClass: 2
Flags: W
LayerCount: 2
Fore
SplineSet
450 179 m 0,0,1
 450 142 450 142 436 109.5 c 128,-1,2
 422 77 422 77 397.5 52.5 c 128,-1,3
 373 28 373 28 340.5 14 c 128,-1,4
 308 0 308 0 271 0 c 2,5,-1
 205 0 l 2,6,7
 165 0 165 0 137 20.5 c 128,-1,8
 109 41 109 41 92 69.5 c 128,-1,9
 75 98 75 98 67.5 128.5 c 128,-1,10
 60 159 60 159 60 179 c 2,11,-1
 60 419 l 2,12,13
 59 419 59 419 59 418.5 c 128,-1,14
 59 418 59 418 58 418 c 0,15,16
 44 411 44 411 31.5 411.5 c 128,-1,17
 19 412 19 412 12.5 418.5 c 128,-1,18
 6 425 6 425 7 436.5 c 128,-1,19
 8 448 8 448 21 463 c 0,20,21
 26 468 26 468 32.5 472 c 128,-1,22
 39 476 39 476 45 484 c 128,-1,23
 51 492 51 492 55.5 506.5 c 128,-1,24
 60 521 60 521 60 547 c 2,25,-1
 60 570 l 2,26,27
 60 585 60 585 69.5 592.5 c 128,-1,28
 79 600 79 600 90 600 c 128,-1,29
 101 600 101 600 110.5 592.5 c 128,-1,30
 120 585 120 585 120 570 c 2,31,-1
 120 179 l 2,32,33
 120 134 120 134 134.5 110 c 128,-1,34
 149 86 149 86 171 74.5 c 128,-1,35
 193 63 193 63 220 61.5 c 128,-1,36
 247 60 247 60 271 60 c 256,37,38
 295 60 295 60 317 69.5 c 128,-1,39
 339 79 339 79 355 95 c 128,-1,40
 371 111 371 111 380.5 133 c 128,-1,41
 390 155 390 155 390 179 c 256,42,43
 390 203 390 203 380.5 225 c 128,-1,44
 371 247 371 247 355.5 263 c 128,-1,45
 340 279 340 279 319 288.5 c 128,-1,46
 298 298 298 298 275 298 c 2,47,-1
 220 298 l 2,48,49
 205 298 205 298 197.5 307.5 c 128,-1,50
 190 317 190 317 190 328 c 128,-1,51
 190 339 190 339 197.5 348.5 c 128,-1,52
 205 358 205 358 220 358 c 2,53,-1
 310 358 l 2,54,55
 337 358 337 358 350.5 368 c 128,-1,56
 364 378 364 378 376 387 c 0,57,58
 392 399 392 399 405 399 c 128,-1,59
 418 399 418 399 425 391.5 c 128,-1,60
 432 384 432 384 432 372.5 c 128,-1,61
 432 361 432 361 421 350 c 256,62,63
 410 339 410 339 398.5 332.5 c 128,-1,64
 387 326 387 326 381 321 c 1,65,66
 413 296 413 296 431.5 259.5 c 128,-1,67
 450 223 450 223 450 179 c 0,0,1
EndSplineSet
Validated: 1
Substitution2: "'isol' Isolated Forms in Arabic lookup 0 subtable" uniFE8F
Substitution2: "'init' Initial Forms in Arabic lookup 1 subtable" florin
Substitution2: "'medi' Medial Forms in Arabic lookup 2 subtable" uniFE92
Substitution2: "'fina' Terminal Forms in Arabic lookup 3 subtable" uniFE90
EndChar

StartChar: Ocircumflex
Encoding: 1578 125185 208
Width: 428
GlyphClass: 2
Flags: W
LayerCount: 2
Fore
SplineSet
368 106 m 1,0,1
 368 0 368 0 266 0 c 2,2,-1
 90 0 l 2,3,4
 77 0 77 0 69.5 7.5 c 128,-1,5
 62 15 62 15 60.5 25 c 128,-1,6
 59 35 59 35 63.5 44.5 c 128,-1,7
 68 54 68 54 78 58 c 0,8,9
 84 64 84 64 91 70 c 0,10,11
 97 75 97 75 103.5 80 c 128,-1,12
 110 85 110 85 116 90 c 0,13,14
 131 101 131 101 143 101.5 c 128,-1,15
 155 102 155 102 162.5 96.5 c 128,-1,16
 170 91 170 91 171.5 81 c 128,-1,17
 173 71 173 71 167 60 c 1,18,-1
 266 60 l 2,19,20
 308 60 308 60 308 106 c 2,21,-1
 308 162 l 2,22,23
 305 176 305 176 295 185.5 c 128,-1,24
 285 195 285 195 271 203 c 0,25,26
 262 208 262 208 245.5 209.5 c 128,-1,27
 229 211 229 211 209.5 213.5 c 128,-1,28
 190 216 190 216 170.5 221.5 c 128,-1,29
 151 227 151 227 136 240 c 0,30,31
 116 258 116 258 104 277 c 128,-1,32
 92 296 92 296 86 323 c 2,33,-1
 64 565 l 2,34,35
 63 580 63 580 71.5 588.5 c 128,-1,36
 80 597 80 597 91 598 c 128,-1,37
 102 599 102 599 112.5 592.5 c 128,-1,38
 123 586 123 586 124 571 c 2,39,-1
 146 332 l 2,40,41
 151 317 151 317 157 305.5 c 128,-1,42
 163 294 163 294 176 284 c 256,43,44
 189 274 189 274 205.5 271 c 128,-1,45
 222 268 222 268 240 266.5 c 128,-1,46
 258 265 258 265 275.5 262 c 128,-1,47
 293 259 293 259 308 249 c 1,48,-1
 308 570 l 2,49,50
 308 585 308 585 317.5 592.5 c 128,-1,51
 327 600 327 600 338 600 c 128,-1,52
 349 600 349 600 358.5 592.5 c 128,-1,53
 368 585 368 585 368 570 c 2,54,-1
 368 106 l 1,55,-1
 368 106 l 1,0,1
EndSplineSet
Validated: 5
Substitution2: "'isol' Isolated Forms in Arabic lookup 0 subtable" uniFE95
Substitution2: "'init' Initial Forms in Arabic lookup 1 subtable" Delta
Substitution2: "'medi' Medial Forms in Arabic lookup 2 subtable" uniFE98
Substitution2: "'fina' Terminal Forms in Arabic lookup 3 subtable" uniFE96
EndChar

StartChar: afii57419
Encoding: 1579 125186 209
Width: 382
GlyphClass: 2
Flags: W
LayerCount: 2
Fore
SplineSet
322 106 m 1,0,1
 322 0 322 0 220 0 c 2,2,-1
 90 0 l 2,3,4
 77 0 77 0 69.5 7.5 c 128,-1,5
 62 15 62 15 60.5 25 c 128,-1,6
 59 35 59 35 63.5 44.5 c 128,-1,7
 68 54 68 54 78 58 c 0,8,9
 84 64 84 64 91 70 c 0,10,11
 97 75 97 75 103.5 80 c 128,-1,12
 110 85 110 85 116 90 c 0,13,14
 131 101 131 101 143 101.5 c 128,-1,15
 155 102 155 102 162.5 96.5 c 128,-1,16
 170 91 170 91 171.5 81 c 128,-1,17
 173 71 173 71 167 60 c 1,18,-1
 220 60 l 2,19,20
 262 60 262 60 262 106 c 2,21,-1
 262 489 l 2,22,23
 262 496 262 496 259.5 504.5 c 128,-1,24
 257 513 257 513 251 521 c 128,-1,25
 245 529 245 529 234 534.5 c 128,-1,26
 223 540 223 540 206 540 c 0,27,28
 179 540 179 540 162 530 c 128,-1,29
 145 520 145 520 135.5 506.5 c 128,-1,30
 126 493 126 493 123 479.5 c 128,-1,31
 120 466 120 466 120 459 c 2,32,-1
 120 362 l 2,33,34
 120 347 120 347 110.5 339.5 c 128,-1,35
 101 332 101 332 90 332 c 128,-1,36
 79 332 79 332 69.5 339.5 c 128,-1,37
 60 347 60 347 60 362 c 2,38,-1
 60 473 l 2,39,40
 60 492 60 492 69.5 514 c 128,-1,41
 79 536 79 536 98 555 c 128,-1,42
 117 574 117 574 144 587 c 128,-1,43
 171 600 171 600 206 600 c 0,44,45
 234 600 234 600 255.5 592 c 128,-1,46
 277 584 277 584 292 570.5 c 128,-1,47
 307 557 307 557 314.5 539.5 c 128,-1,48
 322 522 322 522 322 503 c 2,49,-1
 322 106 l 1,50,-1
 322 106 l 1,0,1
EndSplineSet
Validated: 5
Substitution2: "'isol' Isolated Forms in Arabic lookup 0 subtable" uniFE99
Substitution2: "'init' Initial Forms in Arabic lookup 1 subtable" acute
Substitution2: "'medi' Medial Forms in Arabic lookup 2 subtable" uniFE9C
Substitution2: "'fina' Terminal Forms in Arabic lookup 3 subtable" uniFE9A
EndChar

StartChar: quotedblright
Encoding: 1580 125187 210
Width: 450
GlyphClass: 2
Flags: W
LayerCount: 2
Fore
SplineSet
390 146 m 1,0,1
 390 113 390 113 382.5 86.5 c 128,-1,2
 375 60 375 60 358 40.5 c 128,-1,3
 341 21 341 21 314 10.5 c 128,-1,4
 287 0 287 0 248 0 c 2,5,-1
 90 0 l 2,6,7
 77 0 77 0 69.5 7.5 c 128,-1,8
 62 15 62 15 60.5 25 c 128,-1,9
 59 35 59 35 63.5 44.5 c 128,-1,10
 68 54 68 54 78 58 c 0,11,12
 84 64 84 64 91 70 c 0,13,14
 97 75 97 75 103.5 80 c 128,-1,15
 110 85 110 85 116 90 c 0,16,17
 131 101 131 101 143 101.5 c 128,-1,18
 155 102 155 102 162.5 96.5 c 128,-1,19
 170 91 170 91 171.5 81 c 128,-1,20
 173 71 173 71 167 60 c 1,21,-1
 248 60 l 2,22,23
 293 60 293 60 311.5 85.5 c 128,-1,24
 330 111 330 111 330 146 c 2,25,-1
 330 300 l 1,26,27
 304 281 304 281 277.5 273 c 128,-1,28
 251 265 251 265 226 265 c 128,-1,29
 201 265 201 265 178 270.5 c 128,-1,30
 155 276 155 276 137 283 c 0,31,32
 113 292 113 292 97.5 307.5 c 128,-1,33
 82 323 82 323 74 341.5 c 128,-1,34
 66 360 66 360 63 379.5 c 128,-1,35
 60 399 60 399 60 417 c 0,36,37
 60 450 60 450 74 482.5 c 128,-1,38
 88 515 88 515 112.5 541.5 c 128,-1,39
 137 568 137 568 170.5 584 c 128,-1,40
 204 600 204 600 243 600 c 0,41,42
 310 600 310 600 350 568 c 128,-1,43
 390 536 390 536 390 486 c 2,44,-1
 390 146 l 1,45,-1
 390 146 l 1,0,1
330 486 m 2,46,47
 330 512 330 512 303.5 526 c 128,-1,48
 277 540 277 540 243 540 c 0,49,50
 216 540 216 540 193.5 529 c 128,-1,51
 171 518 171 518 154.5 501 c 128,-1,52
 138 484 138 484 129 462 c 128,-1,53
 120 440 120 440 120 417 c 0,54,55
 120 407 120 407 121 395.5 c 128,-1,56
 122 384 122 384 125.5 373 c 128,-1,57
 129 362 129 362 136 353 c 128,-1,58
 143 344 143 344 155 341 c 0,59,60
 172 337 172 337 189.5 332.5 c 128,-1,61
 207 328 207 328 228 329 c 128,-1,62
 249 330 249 330 274 338 c 128,-1,63
 299 346 299 346 330 365 c 1,64,-1
 330 486 l 2,46,47
EndSplineSet
Validated: 37
Substitution2: "'isol' Isolated Forms in Arabic lookup 0 subtable" uniFE9D
Substitution2: "'init' Initial Forms in Arabic lookup 1 subtable" quotedblleft
Substitution2: "'medi' Medial Forms in Arabic lookup 2 subtable" uniFEA0
Substitution2: "'fina' Terminal Forms in Arabic lookup 3 subtable" uniFE9E
EndChar

StartChar: product
Encoding: 1581 1581 211
Width: 529
GlyphClass: 2
Flags: W
LayerCount: 2
Fore
SplineSet
475 418 m 0,0,1
 475 378 475 378 460 348 c 128,-1,2
 445 318 445 318 420 298 c 128,-1,3
 395 278 395 278 362 266.5 c 128,-1,4
 329 255 329 255 293 251 c 1,5,-1
 293 106 l 2,6,7
 293 0 293 0 191 0 c 2,8,-1
 90 0 l 2,9,10
 77 0 77 0 69.5 7.5 c 128,-1,11
 62 15 62 15 60.5 25 c 128,-1,12
 59 35 59 35 63.5 44.5 c 128,-1,13
 68 54 68 54 78 58 c 0,14,15
 84 64 84 64 91 70 c 0,16,17
 97 75 97 75 103.5 80 c 128,-1,18
 110 85 110 85 116 90 c 0,19,20
 131 101 131 101 143 101.5 c 128,-1,21
 155 102 155 102 162.5 96.5 c 128,-1,22
 170 91 170 91 171.5 81 c 128,-1,23
 173 71 173 71 167 60 c 1,24,-1
 191 60 l 2,25,26
 233 60 233 60 233 106 c 2,27,-1
 233 250 l 1,28,29
 199 253 199 253 167 263 c 128,-1,30
 135 273 135 273 110.5 292.5 c 128,-1,31
 86 312 86 312 71.5 342.5 c 128,-1,32
 57 373 57 373 57 415 c 0,33,34
 57 475 57 475 87.5 513 c 128,-1,35
 118 551 118 551 177 571 c 0,36,37
 222 585 222 585 261.5 590.5 c 128,-1,38
 301 596 301 596 329 601 c 0,39,40
 344 603 344 603 352.5 594.5 c 128,-1,41
 361 586 361 586 362 575.5 c 128,-1,42
 363 565 363 565 356.5 555 c 128,-1,43
 350 545 350 545 335 543 c 0,44,45
 323 542 323 542 307 539.5 c 128,-1,46
 291 537 291 537 272 533.5 c 128,-1,47
 253 530 253 530 233.5 524.5 c 128,-1,48
 214 519 214 519 195 513 c 0,49,50
 157 501 157 501 137 477.5 c 128,-1,51
 117 454 117 454 117 415 c 0,52,53
 117 388 117 388 126.5 369 c 128,-1,54
 136 350 136 350 152.5 337.5 c 128,-1,55
 169 325 169 325 190 319 c 128,-1,56
 211 313 211 313 233 311 c 1,57,-1
 233 396 l 2,58,59
 233 450 233 450 265 485 c 128,-1,60
 297 520 297 520 351 533 c 0,61,62
 388 542 388 542 412 532.5 c 128,-1,63
 436 523 436 523 450 504 c 128,-1,64
 464 485 464 485 469.5 461.5 c 128,-1,65
 475 438 475 438 475 418 c 0,0,1
415 412 m 0,66,67
 415 421 415 421 414 434.5 c 128,-1,68
 413 448 413 448 406.5 459 c 128,-1,69
 400 470 400 470 385.5 475 c 128,-1,70
 371 480 371 480 345 473 c 0,71,72
 317 465 317 465 305 445 c 128,-1,73
 293 425 293 425 293 396 c 2,74,-1
 293 312 l 1,75,76
 317 315 317 315 339.5 322.5 c 128,-1,77
 362 330 362 330 378.5 342 c 128,-1,78
 395 354 395 354 405 371.5 c 128,-1,79
 415 389 415 389 415 412 c 0,66,67
EndSplineSet
Validated: 33
Substitution2: "'fina' Terminal Forms in Arabic lookup 3 subtable" uniFEA2
Substitution2: "'medi' Medial Forms in Arabic lookup 2 subtable" uniFEA3
Substitution2: "'init' Initial Forms in Arabic lookup 1 subtable" pi
Substitution2: "'isol' Isolated Forms in Arabic lookup 0 subtable" uniFEA1
EndChar

StartChar: Oslash
Encoding: 1582 125189 212
Width: 444
GlyphClass: 2
Flags: W
LayerCount: 2
Fore
SplineSet
384 106 m 1,0,1
 380 54 380 54 357 27 c 128,-1,2
 334 0 334 0 282 0 c 2,3,-1
 90 0 l 2,4,5
 77 0 77 0 69.5 7.5 c 128,-1,6
 62 15 62 15 60.5 25 c 128,-1,7
 59 35 59 35 63.5 44.5 c 128,-1,8
 68 54 68 54 78 58 c 0,9,10
 84 64 84 64 91 70 c 0,11,12
 97 75 97 75 103.5 80 c 128,-1,13
 110 85 110 85 116 90 c 0,14,15
 131 101 131 101 143 101.5 c 128,-1,16
 155 102 155 102 162.5 96.5 c 128,-1,17
 170 91 170 91 171.5 81 c 128,-1,18
 173 71 173 71 167 60 c 1,19,-1
 282 60 l 2,20,21
 324 60 324 60 324 106 c 2,22,-1
 324 271 l 1,23,24
 306 266 306 266 288 266 c 0,25,26
 252 266 252 266 224 288 c 1,27,28
 199 266 199 266 156 266 c 0,29,30
 137 266 137 266 119.5 272.5 c 128,-1,31
 102 279 102 279 89 290.5 c 128,-1,32
 76 302 76 302 68 318 c 128,-1,33
 60 334 60 334 60 353 c 2,34,-1
 60 570 l 2,35,36
 60 585 60 585 69.5 592.5 c 128,-1,37
 79 600 79 600 90 600 c 128,-1,38
 101 600 101 600 110.5 592.5 c 128,-1,39
 120 585 120 585 120 570 c 2,40,-1
 120 367 l 2,41,42
 120 353 120 353 128 339.5 c 128,-1,43
 136 326 136 326 156 326 c 0,44,45
 178 326 178 326 185 338.5 c 128,-1,46
 192 351 192 351 192 367 c 2,47,-1
 192 570 l 2,48,49
 192 585 192 585 201.5 592.5 c 128,-1,50
 211 600 211 600 222 600 c 128,-1,51
 233 600 233 600 242.5 592.5 c 128,-1,52
 252 585 252 585 252 570 c 2,53,-1
 252 367 l 2,54,55
 252 351 252 351 260 338.5 c 128,-1,56
 268 326 268 326 288 326 c 0,57,58
 310 326 310 326 317 339.5 c 128,-1,59
 324 353 324 353 324 367 c 2,60,-1
 324 570 l 2,61,62
 324 585 324 585 333 592.5 c 128,-1,63
 342 600 342 600 352.5 600 c 128,-1,64
 363 600 363 600 373 592.5 c 128,-1,65
 383 585 383 585 384 570 c 2,66,-1
 384 106 l 1,67,-1
 384 106 l 1,0,1
EndSplineSet
Validated: 5
Substitution2: "'isol' Isolated Forms in Arabic lookup 0 subtable" uniFEA5
Substitution2: "'init' Initial Forms in Arabic lookup 1 subtable" oslash
Substitution2: "'medi' Medial Forms in Arabic lookup 2 subtable" uniFEA8
Substitution2: "'fina' Terminal Forms in Arabic lookup 3 subtable" uniFEA6
EndChar

StartChar: Iacute
Encoding: 1587 125190 213
Width: 416
GlyphClass: 2
Flags: W
LayerCount: 2
Fore
SplineSet
356 106 m 1,0,1
 356 0 356 0 254 0 c 2,2,-1
 51 0 l 2,3,4
 36 0 36 0 28.5 9.5 c 128,-1,5
 21 19 21 19 21 30 c 128,-1,6
 21 41 21 41 28.5 50.5 c 128,-1,7
 36 60 36 60 51 60 c 2,8,-1
 58 60 l 2,9,10
 67 60 67 60 73.5 73 c 128,-1,11
 80 86 80 86 80 106 c 2,12,-1
 80 494 l 2,13,14
 80 600 80 600 182 600 c 2,15,-1
 254 600 l 2,16,17
 356 600 356 600 356 494 c 2,18,-1
 356 106 l 1,19,-1
 356 106 l 1,0,1
296 494 m 2,20,21
 296 540 296 540 254 540 c 2,22,-1
 182 540 l 2,23,24
 140 540 140 540 140 494 c 2,25,-1
 140 106 l 2,26,27
 140 95 140 95 136 81.5 c 128,-1,28
 132 68 132 68 126 60 c 1,29,-1
 254 60 l 2,30,31
 296 60 296 60 296 106 c 2,32,-1
 296 494 l 2,20,21
EndSplineSet
Validated: 5
Substitution2: "'isol' Isolated Forms in Arabic lookup 0 subtable" uniFEB1
Substitution2: "'init' Initial Forms in Arabic lookup 1 subtable" germandbls
Substitution2: "'medi' Medial Forms in Arabic lookup 2 subtable" uniFEB4
Substitution2: "'fina' Terminal Forms in Arabic lookup 3 subtable" uniFEB2
EndChar

StartChar: Aring
Encoding: 1588 125191 214
Width: 494
GlyphClass: 2
Flags: W
LayerCount: 2
Fore
SplineSet
330 540 m 2,0,1
 292 540 292 540 259 540 c 128,-1,2
 226 540 226 540 202 531.5 c 128,-1,3
 178 523 178 523 164 503 c 128,-1,4
 150 483 150 483 150 444 c 0,5,6
 150 402 150 402 166 381.5 c 128,-1,7
 182 361 182 361 209 353.5 c 128,-1,8
 236 346 236 346 273 347 c 128,-1,9
 310 348 310 348 352 348 c 0,10,11
 367 348 367 348 374.5 338.5 c 128,-1,12
 382 329 382 329 382 318 c 128,-1,13
 382 307 382 307 374.5 297.5 c 128,-1,14
 367 288 367 288 352 288 c 2,15,-1
 294 288 l 1,16,-1
 294 106 l 2,17,18
 294 0 294 0 192 0 c 2,19,-1
 90 0 l 2,20,21
 77 0 77 0 69.5 7.5 c 128,-1,22
 62 15 62 15 60.5 25 c 128,-1,23
 59 35 59 35 63.5 44.5 c 128,-1,24
 68 54 68 54 78 58 c 0,25,26
 84 64 84 64 91 70 c 0,27,28
 97 75 97 75 103.5 80 c 128,-1,29
 110 85 110 85 116 90 c 0,30,31
 131 101 131 101 143 101.5 c 128,-1,32
 155 102 155 102 162.5 96.5 c 128,-1,33
 170 91 170 91 171.5 81 c 128,-1,34
 173 71 173 71 167 60 c 1,35,-1
 192 60 l 2,36,37
 234 60 234 60 234 106 c 2,38,-1
 234 289 l 1,39,40
 204 291 204 291 177.5 299.5 c 128,-1,41
 151 308 151 308 131.5 326 c 128,-1,42
 112 344 112 344 101 373 c 128,-1,43
 90 402 90 402 90 444 c 0,44,45
 90 500 90 500 107 531.5 c 128,-1,46
 124 563 124 563 154.5 578 c 128,-1,47
 185 593 185 593 229 596.5 c 128,-1,48
 273 600 273 600 327 600 c 2,49,-1
 402 600 l 2,50,51
 417 600 417 600 424.5 590.5 c 128,-1,52
 432 581 432 581 432 570 c 128,-1,53
 432 559 432 559 424.5 549.5 c 128,-1,54
 417 540 417 540 402 540 c 2,55,-1
 330 540 l 2,0,1
EndSplineSet
Validated: 33
Substitution2: "'isol' Isolated Forms in Arabic lookup 0 subtable" uniFEB5
Substitution2: "'init' Initial Forms in Arabic lookup 1 subtable" uniFEB7
Substitution2: "'medi' Medial Forms in Arabic lookup 2 subtable" uniFEB8
Substitution2: "'fina' Terminal Forms in Arabic lookup 3 subtable" uniFEB6
EndChar

StartChar: quotedblbase
Encoding: 1589 125192 215
Width: 432
GlyphClass: 2
Flags: W
LayerCount: 2
Fore
SplineSet
372 470 m 1,0,1
 372 420 372 420 367.5 377.5 c 128,-1,2
 363 335 363 335 347 304 c 128,-1,3
 331 273 331 273 300 255.5 c 128,-1,4
 269 238 269 238 216 238 c 0,5,6
 154 238 154 238 120 263 c 1,7,-1
 120 106 l 2,8,9
 120 60 120 60 162 60 c 2,10,-1
 266 60 l 2,11,12
 284 60 284 60 296.5 63.5 c 128,-1,13
 309 67 309 67 318 71 c 128,-1,14
 327 75 327 75 334.5 77.5 c 128,-1,15
 342 80 342 80 350 78 c 0,16,17
 364 74 364 74 361.5 61.5 c 128,-1,18
 359 49 359 49 347 35.5 c 128,-1,19
 335 22 335 22 316.5 11 c 128,-1,20
 298 0 298 0 280 0 c 2,21,-1
 162 0 l 2,22,23
 123 0 123 0 102 14 c 128,-1,24
 81 28 81 28 72 46.5 c 128,-1,25
 63 65 63 65 61.5 82.5 c 128,-1,26
 60 100 60 100 60 106 c 2,27,-1
 60 472 l 1,28,-1
 60 570 l 2,29,30
 60 585 60 585 69.5 592.5 c 128,-1,31
 79 600 79 600 90 600 c 128,-1,32
 101 600 101 600 110.5 592.5 c 128,-1,33
 120 585 120 585 120 570 c 2,34,-1
 120 470 l 2,35,36
 120 435 120 435 121.5 404 c 128,-1,37
 123 373 123 373 132.5 349.5 c 128,-1,38
 142 326 142 326 161.5 312 c 128,-1,39
 181 298 181 298 216 298 c 256,40,41
 251 298 251 298 270 311.5 c 128,-1,42
 289 325 289 325 298.5 348.5 c 128,-1,43
 308 372 308 372 310 403 c 128,-1,44
 312 434 312 434 312 468 c 2,45,-1
 312 570 l 2,46,47
 312 585 312 585 321.5 592.5 c 128,-1,48
 331 600 331 600 342 600 c 128,-1,49
 353 600 353 600 362.5 592.5 c 128,-1,50
 372 585 372 585 372 570 c 2,51,-1
 372 470 l 1,52,-1
 372 470 l 1,0,1
EndSplineSet
Validated: 5
Substitution2: "'isol' Isolated Forms in Arabic lookup 0 subtable" uniFEB9
Substitution2: "'init' Initial Forms in Arabic lookup 1 subtable" summation
Substitution2: "'medi' Medial Forms in Arabic lookup 2 subtable" uniFEBC
Substitution2: "'fina' Terminal Forms in Arabic lookup 3 subtable" uniFEBA
EndChar

StartChar: OE
Encoding: 1590 125193 216
Width: 542
GlyphClass: 2
Flags: W
LayerCount: 2
Fore
SplineSet
482 112 m 0,0,1
 482 75 482 75 468 53 c 128,-1,2
 454 31 454 31 432 19.5 c 128,-1,3
 410 8 410 8 382.5 4 c 128,-1,4
 355 0 355 0 328 0 c 0,5,6
 300 0 300 0 271 1.5 c 128,-1,7
 242 3 242 3 219.5 14 c 128,-1,8
 197 25 197 25 182.5 47.5 c 128,-1,9
 168 70 168 70 168 112 c 0,10,11
 168 146 168 146 176.5 165 c 128,-1,12
 185 184 185 184 199 197.5 c 128,-1,13
 213 211 213 211 230.5 223.5 c 128,-1,14
 248 236 248 236 266 256 c 0,15,16
 283 274 283 274 300 292 c 128,-1,17
 317 310 317 310 331.5 331.5 c 128,-1,18
 346 353 346 353 355 380 c 128,-1,19
 364 407 364 407 364 443 c 0,20,21
 364 467 364 467 352 485.5 c 128,-1,22
 340 504 340 504 321 516 c 128,-1,23
 302 528 302 528 280 534 c 128,-1,24
 258 540 258 540 237 540 c 0,25,26
 200 540 200 540 177 529 c 128,-1,27
 154 518 154 518 141 498.5 c 128,-1,28
 128 479 128 479 124 452 c 128,-1,29
 120 425 120 425 120 393 c 2,30,-1
 120 104 l 1,31,32
 131 110 131 110 141 108.5 c 128,-1,33
 151 107 151 107 156.5 99.5 c 128,-1,34
 162 92 162 92 161.5 80 c 128,-1,35
 161 68 161 68 150 53 c 0,36,37
 145 47 145 47 140 40.5 c 128,-1,38
 135 34 135 34 130 28 c 0,39,40
 124 21 124 21 118 15 c 0,41,42
 114 5 114 5 104.5 0 c 128,-1,43
 95 -5 95 -5 85 -3.5 c 128,-1,44
 75 -2 75 -2 67.5 6 c 128,-1,45
 60 14 60 14 60 27 c 2,46,-1
 60 393 l 2,47,48
 60 442 60 442 69.5 480.5 c 128,-1,49
 79 519 79 519 100 545.5 c 128,-1,50
 121 572 121 572 155 586 c 128,-1,51
 189 600 189 600 238 600 c 0,52,53
 271 600 271 600 304 590.5 c 128,-1,54
 337 581 337 581 363.5 561.5 c 128,-1,55
 390 542 390 542 407 512 c 128,-1,56
 424 482 424 482 424 440 c 0,57,58
 424 402 424 402 415.5 373 c 128,-1,59
 407 344 407 344 393 320.5 c 128,-1,60
 379 297 379 297 361 277.5 c 128,-1,61
 343 258 343 258 325 238 c 1,62,63
 373 238 373 238 404 229 c 128,-1,64
 435 220 435 220 452 203.5 c 128,-1,65
 469 187 469 187 475.5 163.5 c 128,-1,66
 482 140 482 140 482 112 c 0,0,1
422 112 m 0,67,68
 422 136 422 136 414 149.5 c 128,-1,69
 406 163 406 163 391.5 170.5 c 128,-1,70
 377 178 377 178 356.5 180 c 128,-1,71
 336 182 336 182 310 182 c 0,72,73
 300 182 300 182 285.5 177.5 c 128,-1,74
 271 173 271 173 258.5 164 c 128,-1,75
 246 155 246 155 237 141.5 c 128,-1,76
 228 128 228 128 228 110 c 0,77,78
 228 88 228 88 237.5 77 c 128,-1,79
 247 66 247 66 261 62.5 c 128,-1,80
 275 59 275 59 293 59.5 c 128,-1,81
 311 60 311 60 327 60 c 0,82,83
 342 60 342 60 359 61 c 128,-1,84
 376 62 376 62 390 66.5 c 128,-1,85
 404 71 404 71 413 81.5 c 128,-1,86
 422 92 422 92 422 112 c 0,67,68
EndSplineSet
Validated: 33
Substitution2: "'isol' Isolated Forms in Arabic lookup 0 subtable" uniFEBD
Substitution2: "'init' Initial Forms in Arabic lookup 1 subtable" oe
Substitution2: "'medi' Medial Forms in Arabic lookup 2 subtable" uniFEC0
Substitution2: "'fina' Terminal Forms in Arabic lookup 3 subtable" uniFEBE
EndChar

StartChar: afii57431
Encoding: 1591 125194 217
Width: 426
GlyphClass: 2
Flags: W
LayerCount: 2
Fore
SplineSet
376 180 m 0,0,1
 372 130 372 130 359 90 c 0,2,3
 353 73 353 73 345 57 c 128,-1,4
 337 41 337 41 325.5 28 c 128,-1,5
 314 15 314 15 298.5 7.5 c 128,-1,6
 283 0 283 0 263 0 c 2,7,-1
 90 0 l 2,8,9
 77 0 77 0 69.5 7.5 c 128,-1,10
 62 15 62 15 60.5 25 c 128,-1,11
 59 35 59 35 63.5 44.5 c 128,-1,12
 68 54 68 54 78 58 c 0,13,14
 84 64 84 64 91 70 c 0,15,16
 97 75 97 75 103.5 80 c 128,-1,17
 110 85 110 85 116 90 c 0,18,19
 131 101 131 101 143 101.5 c 128,-1,20
 155 102 155 102 162.5 96.5 c 128,-1,21
 170 91 170 91 171.5 81 c 128,-1,22
 173 71 173 71 167 60 c 1,23,-1
 251 60 l 2,24,25
 270 63 270 63 282.5 74.5 c 128,-1,26
 295 86 295 86 302 102.5 c 128,-1,27
 309 119 309 119 311.5 139 c 128,-1,28
 314 159 314 159 314 180 c 0,29,30
 314 215 314 215 316 246 c 128,-1,31
 318 277 318 277 310.5 300.5 c 128,-1,32
 303 324 303 324 282 338 c 128,-1,33
 261 352 261 352 214 352 c 0,34,35
 183 352 183 352 156 336.5 c 128,-1,36
 129 321 129 321 103 301 c 0,37,38
 86 288 86 288 72.5 297 c 128,-1,39
 59 306 59 306 60 328 c 0,40,41
 61 367 61 367 59.5 401 c 128,-1,42
 58 435 58 435 60 464 c 128,-1,43
 62 493 62 493 69 516 c 128,-1,44
 76 539 76 539 94 556 c 0,45,46
 129 589 129 589 165 594.5 c 128,-1,47
 201 600 201 600 236 600 c 0,48,49
 293 600 293 600 322 577.5 c 128,-1,50
 351 555 351 555 363 528 c 0,51,52
 377 496 377 496 376 456 c 0,53,54
 376 441 376 441 366.5 433.5 c 128,-1,55
 357 426 357 426 346 426 c 128,-1,56
 335 426 335 426 325.5 433.5 c 128,-1,57
 316 441 316 441 316 456 c 0,58,59
 317 480 317 480 309 499 c 0,60,61
 302 516 302 516 286 529 c 128,-1,62
 270 542 270 542 238 542 c 0,63,64
 230 542 230 542 217 542.5 c 128,-1,65
 204 543 204 543 190 541 c 128,-1,66
 176 539 176 539 162 533.5 c 128,-1,67
 148 528 148 528 137 516 c 0,68,69
 128 507 128 507 124.5 491 c 128,-1,70
 121 475 121 475 120 455.5 c 128,-1,71
 119 436 119 436 119.5 415.5 c 128,-1,72
 120 395 120 395 120 376 c 1,73,74
 140 399 140 399 167 405.5 c 128,-1,75
 194 412 194 412 216 412 c 0,76,77
 279 412 279 412 312 393.5 c 128,-1,78
 345 375 345 375 359 343.5 c 128,-1,79
 373 312 373 312 374.5 269.5 c 128,-1,80
 376 227 376 227 376 180 c 0,0,1
EndSplineSet
Validated: 33
Substitution2: "'isol' Isolated Forms in Arabic lookup 0 subtable" uniFEC1
Substitution2: "'init' Initial Forms in Arabic lookup 1 subtable" approxequal
Substitution2: "'medi' Medial Forms in Arabic lookup 2 subtable" uniFEC4
Substitution2: "'fina' Terminal Forms in Arabic lookup 3 subtable" uniFEC2
EndChar

StartChar: cedilla
Encoding: 1592 125195 218
Width: 498
GlyphClass: 2
Flags: W
LayerCount: 2
Fore
SplineSet
438 146 m 1,0,1
 438 113 438 113 430.5 86.5 c 128,-1,2
 423 60 423 60 406 40.5 c 128,-1,3
 389 21 389 21 362 10.5 c 128,-1,4
 335 0 335 0 296 0 c 2,5,-1
 92 0 l 2,6,7
 77 0 77 0 69.5 9.5 c 128,-1,8
 62 19 62 19 62 30 c 128,-1,9
 62 41 62 41 69.5 50.5 c 128,-1,10
 77 60 77 60 92 60 c 2,11,-1
 106 60 l 2,12,13
 112 60 112 60 121 69.5 c 128,-1,14
 130 79 130 79 130 106 c 2,15,-1
 130 570 l 2,16,17
 130 585 130 585 139.5 592.5 c 128,-1,18
 149 600 149 600 160 600 c 128,-1,19
 171 600 171 600 180.5 592.5 c 128,-1,20
 190 585 190 585 190 570 c 2,21,-1
 190 106 l 2,22,23
 190 95 190 95 186 81.5 c 128,-1,24
 182 68 182 68 176 60 c 1,25,-1
 296 60 l 2,26,27
 341 60 341 60 359.5 85.5 c 128,-1,28
 378 111 378 111 378 146 c 2,29,-1
 378 570 l 2,30,31
 378 585 378 585 387.5 592.5 c 128,-1,32
 397 600 397 600 408 600 c 128,-1,33
 419 600 419 600 428.5 592.5 c 128,-1,34
 438 585 438 585 438 570 c 2,35,-1
 438 146 l 1,36,-1
 438 146 l 1,0,1
EndSplineSet
Validated: 5
Substitution2: "'isol' Isolated Forms in Arabic lookup 0 subtable" uniFEC5
Substitution2: "'init' Initial Forms in Arabic lookup 1 subtable" Omega
Substitution2: "'medi' Medial Forms in Arabic lookup 2 subtable" uniFEC8
Substitution2: "'fina' Terminal Forms in Arabic lookup 3 subtable" uniFEC6
EndChar

StartChar: afii57433
Encoding: 1593 125196 219
Width: 448
GlyphClass: 2
Flags: W
LayerCount: 2
Fore
SplineSet
388 436 m 0,0,1
 388 421 388 421 378.5 413.5 c 128,-1,2
 369 406 369 406 358 406 c 128,-1,3
 347 406 347 406 337.5 413.5 c 128,-1,4
 328 421 328 421 328 436 c 0,5,6
 328 457 328 457 320 476 c 128,-1,7
 312 495 312 495 297.5 509.5 c 128,-1,8
 283 524 283 524 264 532 c 128,-1,9
 245 540 245 540 224 540 c 256,10,11
 203 540 203 540 184 532 c 128,-1,12
 165 524 165 524 150.5 509.5 c 128,-1,13
 136 495 136 495 128 476 c 128,-1,14
 120 457 120 457 120 436 c 2,15,-1
 120 166 l 2,16,17
 120 147 120 147 127 128 c 128,-1,18
 134 109 134 109 146 94 c 128,-1,19
 158 79 158 79 174.5 69.5 c 128,-1,20
 191 60 191 60 210 60 c 2,21,-1
 282 60 l 2,22,23
 300 60 300 60 312.5 63.5 c 128,-1,24
 325 67 325 67 334 71 c 128,-1,25
 343 75 343 75 350.5 77.5 c 128,-1,26
 358 80 358 80 366 78 c 0,27,28
 380 74 380 74 377.5 61.5 c 128,-1,29
 375 49 375 49 363 35.5 c 128,-1,30
 351 22 351 22 332.5 11 c 128,-1,31
 314 0 314 0 296 0 c 2,32,-1
 86 0 l 2,33,34
 71 0 71 0 63.5 9.5 c 128,-1,35
 56 19 56 19 56 30 c 128,-1,36
 56 41 56 41 63.5 50.5 c 128,-1,37
 71 60 71 60 86 60 c 2,38,-1
 98 60 l 1,39,40
 80 82 80 82 70 109 c 128,-1,41
 60 136 60 136 60 166 c 2,42,-1
 60 436 l 2,43,44
 60 470 60 470 73 499.5 c 128,-1,45
 86 529 86 529 108 551.5 c 128,-1,46
 130 574 130 574 160 587 c 128,-1,47
 190 600 190 600 224 600 c 256,48,49
 258 600 258 600 288 587 c 128,-1,50
 318 574 318 574 340 552 c 128,-1,51
 362 530 362 530 375 500 c 128,-1,52
 388 470 388 470 388 436 c 0,0,1
EndSplineSet
Validated: 1
Substitution2: "'isol' Isolated Forms in Arabic lookup 0 subtable" uniFEC9
Substitution2: "'init' Initial Forms in Arabic lookup 1 subtable" uniFECB
Substitution2: "'medi' Medial Forms in Arabic lookup 2 subtable" uniFECC
Substitution2: "'fina' Terminal Forms in Arabic lookup 3 subtable" uniFECA
EndChar

StartChar: Aacute
Encoding: 1594 125197 220
Width: 419
GlyphClass: 2
Flags: W
LayerCount: 2
Fore
SplineSet
359 148 m 1,0,1
 359 112 359 112 347 84 c 128,-1,2
 335 56 335 56 315 37.5 c 128,-1,3
 295 19 295 19 267.5 9.5 c 128,-1,4
 240 0 240 0 210 0 c 256,5,6
 180 0 180 0 153 11.5 c 128,-1,7
 126 23 126 23 106 43 c 1,8,9
 83 0 83 0 41 0 c 2,10,-1
 32 0 l 2,11,12
 17 0 17 0 9.5 9.5 c 128,-1,13
 2 19 2 19 2 30 c 128,-1,14
 2 41 2 41 9.5 50.5 c 128,-1,15
 17 60 17 60 32 60 c 2,16,-1
 41 60 l 2,17,18
 60 60 60 60 60 106 c 2,19,-1
 60 570 l 2,20,21
 60 585 60 585 69.5 592.5 c 128,-1,22
 79 600 79 600 90 600 c 128,-1,23
 101 600 101 600 110.5 592.5 c 128,-1,24
 120 585 120 585 120 570 c 2,25,-1
 120 267 l 1,26,27
 159 297 159 297 210 297 c 0,28,29
 236 297 236 297 258 289.5 c 128,-1,30
 280 282 280 282 299 268 c 1,31,-1
 299 570 l 2,32,33
 299 585 299 585 308.5 592.5 c 128,-1,34
 318 600 318 600 329 600 c 128,-1,35
 340 600 340 600 349.5 592.5 c 128,-1,36
 359 585 359 585 359 570 c 2,37,-1
 359 148 l 1,38,-1
 359 148 l 1,0,1
299 148 m 256,39,40
 299 185 299 185 273 211 c 128,-1,41
 247 237 247 237 210 237 c 256,42,43
 173 237 173 237 147 211 c 128,-1,44
 121 185 121 185 121 148 c 256,45,46
 121 111 121 111 147 85.5 c 128,-1,47
 173 60 173 60 210 60 c 256,48,49
 247 60 247 60 273 85.5 c 128,-1,50
 299 111 299 111 299 148 c 256,39,40
EndSplineSet
Validated: 5
Substitution2: "'isol' Isolated Forms in Arabic lookup 0 subtable" uniFECD
Substitution2: "'init' Initial Forms in Arabic lookup 1 subtable" uniFECF
Substitution2: "'medi' Medial Forms in Arabic lookup 2 subtable" uniFED0
Substitution2: "'fina' Terminal Forms in Arabic lookup 3 subtable" uniFECE
EndChar

StartChar: afii57440
Encoding: 0 0 221
Width: 60
GlyphClass: 2
Flags: W
LayerCount: 2
Fore
SplineSet
-30 0 m 2,0,1
 -45 0 -45 0 -53 9.5 c 128,-1,2
 -61 19 -61 19 -61 30.5 c 128,-1,3
 -61 42 -61 42 -53 51.5 c 128,-1,4
 -45 61 -45 61 -30 61 c 2,5,-1
 90 61 l 2,6,7
 105 61 105 61 113 51.5 c 128,-1,8
 121 42 121 42 121 30.5 c 128,-1,9
 121 19 121 19 113 9.5 c 128,-1,10
 105 0 105 0 90 0 c 2,11,-1
 -30 0 l 2,0,1
EndSplineSet
Validated: 1
EndChar

StartChar: caron
Encoding: 1601 125198 222
Width: 474
GlyphClass: 2
Flags: W
LayerCount: 2
Fore
SplineSet
408 388 m 1,0,1
 420 365 420 365 409 347 c 128,-1,2
 398 329 398 329 378 329 c 2,3,-1
 205 329 l 2,4,5
 184 329 184 329 168 318 c 128,-1,6
 152 307 152 307 141.5 289 c 128,-1,7
 131 271 131 271 125.5 247.5 c 128,-1,8
 120 224 120 224 120 200 c 0,9,10
 120 174 120 174 125 149 c 128,-1,11
 130 124 130 124 142.5 104 c 128,-1,12
 155 84 155 84 177.5 72 c 128,-1,13
 200 60 200 60 235 60 c 2,14,-1
 377 60 l 2,15,16
 392 60 392 60 399.5 50.5 c 128,-1,17
 407 41 407 41 407 30 c 128,-1,18
 407 19 407 19 399.5 9.5 c 128,-1,19
 392 0 392 0 377 0 c 2,20,-1
 88 0 l 2,21,22
 73 0 73 0 65.5 9.5 c 128,-1,23
 58 19 58 19 58 30 c 128,-1,24
 58 41 58 41 65.5 50.5 c 128,-1,25
 73 60 73 60 88 60 c 2,26,-1
 99 60 l 1,27,28
 86 77 86 77 78.5 96.5 c 128,-1,29
 71 116 71 116 67 135 c 128,-1,30
 63 154 63 154 61.5 171 c 128,-1,31
 60 188 60 188 60 200 c 0,32,33
 60 235 60 235 69.5 268.5 c 128,-1,34
 79 302 79 302 97 329 c 128,-1,35
 115 356 115 356 141 372.5 c 128,-1,36
 167 389 167 389 200 389 c 2,37,-1
 338 389 l 1,38,-1
 236 556 l 2,39,40
 229 570 229 570 233.5 580.5 c 128,-1,41
 238 591 238 591 248 596 c 128,-1,42
 258 601 258 601 270.5 598.5 c 128,-1,43
 283 596 283 596 290 582 c 2,44,-1
 408 388 l 1,45,-1
 408 388 l 1,0,1
EndSplineSet
Validated: 37
Substitution2: "'isol' Isolated Forms in Arabic lookup 0 subtable" uniFED1
Substitution2: "'init' Initial Forms in Arabic lookup 1 subtable" uniFED3
Substitution2: "'medi' Medial Forms in Arabic lookup 2 subtable" uniFED4
Substitution2: "'fina' Terminal Forms in Arabic lookup 3 subtable" uniFED2
EndChar

StartChar: perthousand
Encoding: 1602 125199 223
Width: 556
GlyphClass: 2
Flags: W
LayerCount: 2
Fore
SplineSet
496 326 m 1,0,1
 496 311 496 311 486.5 303.5 c 128,-1,2
 477 296 477 296 466 296 c 128,-1,3
 455 296 455 296 445.5 303.5 c 128,-1,4
 436 311 436 311 436 326 c 2,5,-1
 436 489 l 2,6,7
 436 496 436 496 433 504.5 c 128,-1,8
 430 513 430 513 423.5 521 c 128,-1,9
 417 529 417 529 406 534.5 c 128,-1,10
 395 540 395 540 380 540 c 0,11,12
 363 540 363 540 352 534.5 c 128,-1,13
 341 529 341 529 335 521 c 128,-1,14
 329 513 329 513 326.5 504.5 c 128,-1,15
 324 496 324 496 324 489 c 2,16,-1
 324 146 l 2,17,18
 324 113 324 113 316.5 86.5 c 128,-1,19
 309 60 309 60 292 40.5 c 128,-1,20
 275 21 275 21 248 10.5 c 128,-1,21
 221 0 221 0 182 0 c 2,22,-1
 90 0 l 2,23,24
 77 0 77 0 69.5 7.5 c 128,-1,25
 62 15 62 15 60.5 25 c 128,-1,26
 59 35 59 35 63.5 44.5 c 128,-1,27
 68 54 68 54 78 58 c 0,28,29
 84 64 84 64 91 70 c 0,30,31
 97 75 97 75 103.5 80 c 128,-1,32
 110 85 110 85 116 90 c 0,33,34
 131 101 131 101 143 101.5 c 128,-1,35
 155 102 155 102 162.5 96.5 c 128,-1,36
 170 91 170 91 171.5 81 c 128,-1,37
 173 71 173 71 167 60 c 1,38,-1
 182 60 l 2,39,40
 227 60 227 60 245.5 85.5 c 128,-1,41
 264 111 264 111 264 146 c 2,42,-1
 264 263 l 1,43,-1
 158 263 l 2,44,45
 143 263 143 263 135.5 272.5 c 128,-1,46
 128 282 128 282 128 293 c 128,-1,47
 128 304 128 304 135.5 313.5 c 128,-1,48
 143 323 143 323 158 323 c 2,49,-1
 264 323 l 1,50,-1
 264 503 l 2,51,52
 264 522 264 522 271.5 539.5 c 128,-1,53
 279 557 279 557 294 570.5 c 128,-1,54
 309 584 309 584 330.5 592 c 128,-1,55
 352 600 352 600 380 600 c 0,56,57
 404 600 404 600 425.5 592 c 128,-1,58
 447 584 447 584 462.5 570.5 c 128,-1,59
 478 557 478 557 487 539.5 c 128,-1,60
 496 522 496 522 496 503 c 2,61,-1
 496 326 l 1,62,-1
 496 326 l 1,0,1
EndSplineSet
Validated: 5
Substitution2: "'isol' Isolated Forms in Arabic lookup 0 subtable" uniFED5
Substitution2: "'init' Initial Forms in Arabic lookup 1 subtable" uniFED7
Substitution2: "'medi' Medial Forms in Arabic lookup 2 subtable" uniFED8
Substitution2: "'fina' Terminal Forms in Arabic lookup 3 subtable" uniFED6
EndChar

StartChar: Uacute
Encoding: 1603 125200 224
Width: 466
GlyphClass: 2
Flags: W
LayerCount: 2
Fore
SplineSet
410 456 m 0,0,1
 410 424 410 424 393.5 398.5 c 128,-1,2
 377 373 377 373 350 356 c 0,3,4
 331 344 331 344 301.5 340.5 c 128,-1,5
 272 337 272 337 240.5 333 c 128,-1,6
 209 329 209 329 181.5 319.5 c 128,-1,7
 154 310 154 310 140 287 c 0,8,9
 131 272 131 272 127 259.5 c 128,-1,10
 123 247 123 247 122 233.5 c 128,-1,11
 121 220 121 220 121.5 203 c 128,-1,12
 122 186 122 186 122 162 c 0,13,14
 122 140 122 140 126.5 121 c 128,-1,15
 131 102 131 102 141.5 88.5 c 128,-1,16
 152 75 152 75 169.5 67.5 c 128,-1,17
 187 60 187 60 213 60 c 2,18,-1
 378 60 l 2,19,20
 393 60 393 60 400.5 50.5 c 128,-1,21
 408 41 408 41 408 30 c 128,-1,22
 408 19 408 19 400.5 9.5 c 128,-1,23
 393 0 393 0 378 0 c 2,24,-1
 214 0 l 2,25,26
 199 0 199 0 173 3 c 128,-1,27
 147 6 147 6 122 21 c 128,-1,28
 97 36 97 36 78.5 69 c 128,-1,29
 60 102 60 102 60 162 c 0,30,31
 60 191 60 191 60 211.5 c 128,-1,32
 60 232 60 232 62 248.5 c 128,-1,33
 64 265 64 265 69.5 280.5 c 128,-1,34
 75 296 75 296 86 315 c 0,35,36
 104 346 104 346 137.5 360.5 c 128,-1,37
 171 375 171 375 207 382 c 128,-1,38
 243 389 243 389 273.5 392.5 c 128,-1,39
 304 396 304 396 316 404 c 0,40,41
 329 412 329 412 339.5 426.5 c 128,-1,42
 350 441 350 441 350 456 c 0,43,44
 350 464 350 464 348.5 478.5 c 128,-1,45
 347 493 347 493 335 507 c 128,-1,46
 323 521 323 521 296 531.5 c 128,-1,47
 269 542 269 542 217 542 c 0,48,49
 209 542 209 542 192.5 541 c 128,-1,50
 176 540 176 540 160 535 c 128,-1,51
 144 530 144 530 132 520.5 c 128,-1,52
 120 511 120 511 120 494 c 2,53,-1
 120 456 l 2,54,55
 120 441 120 441 110.5 433.5 c 128,-1,56
 101 426 101 426 90 426 c 128,-1,57
 79 426 79 426 69.5 433.5 c 128,-1,58
 60 441 60 441 60 456 c 2,59,-1
 60 494 l 2,60,61
 60 526 60 526 77.5 546.5 c 128,-1,62
 95 567 95 567 120 579 c 128,-1,63
 145 591 145 591 171.5 595.5 c 128,-1,64
 198 600 198 600 217 600 c 0,65,66
 288 600 288 600 327 583 c 128,-1,67
 366 566 366 566 384.5 542.5 c 128,-1,68
 403 519 403 519 406.5 495 c 128,-1,69
 410 471 410 471 410 456 c 0,0,1
EndSplineSet
Validated: 1
Substitution2: "'isol' Isolated Forms in Arabic lookup 0 subtable" uniFED9
Substitution2: "'init' Initial Forms in Arabic lookup 1 subtable" ellipsis
Substitution2: "'medi' Medial Forms in Arabic lookup 2 subtable" uniFEDC
Substitution2: "'fina' Terminal Forms in Arabic lookup 3 subtable" uniFEDA
EndChar

